%TF.GenerationSoftware,KiCad,Pcbnew,(6.0.11)*%
%TF.CreationDate,2023-05-27T13:57:12+02:00*%
%TF.ProjectId,Orp-pH Board,4f72702d-7048-4204-926f-6172642e6b69,V1.0*%
%TF.SameCoordinates,Original*%
%TF.FileFunction,Legend,Bot*%
%TF.FilePolarity,Positive*%
%FSLAX46Y46*%
G04 Gerber Fmt 4.6, Leading zero omitted, Abs format (unit mm)*
G04 Created by KiCad (PCBNEW (6.0.11)) date 2023-05-27 13:57:12*
%MOMM*%
%LPD*%
G01*
G04 APERTURE LIST*
%ADD10C,0.150000*%
%ADD11C,0.120000*%
G04 APERTURE END LIST*
D10*
%TO.C,C2*%
X147517142Y-103364833D02*
X147564761Y-103317214D01*
X147612380Y-103174357D01*
X147612380Y-103079119D01*
X147564761Y-102936261D01*
X147469523Y-102841023D01*
X147374285Y-102793404D01*
X147183809Y-102745785D01*
X147040952Y-102745785D01*
X146850476Y-102793404D01*
X146755238Y-102841023D01*
X146660000Y-102936261D01*
X146612380Y-103079119D01*
X146612380Y-103174357D01*
X146660000Y-103317214D01*
X146707619Y-103364833D01*
X146707619Y-103745785D02*
X146660000Y-103793404D01*
X146612380Y-103888642D01*
X146612380Y-104126738D01*
X146660000Y-104221976D01*
X146707619Y-104269595D01*
X146802857Y-104317214D01*
X146898095Y-104317214D01*
X147040952Y-104269595D01*
X147612380Y-103698166D01*
X147612380Y-104317214D01*
%TO.C,C8*%
X126531666Y-108975142D02*
X126579285Y-109022761D01*
X126722142Y-109070380D01*
X126817380Y-109070380D01*
X126960238Y-109022761D01*
X127055476Y-108927523D01*
X127103095Y-108832285D01*
X127150714Y-108641809D01*
X127150714Y-108498952D01*
X127103095Y-108308476D01*
X127055476Y-108213238D01*
X126960238Y-108118000D01*
X126817380Y-108070380D01*
X126722142Y-108070380D01*
X126579285Y-108118000D01*
X126531666Y-108165619D01*
X125960238Y-108498952D02*
X126055476Y-108451333D01*
X126103095Y-108403714D01*
X126150714Y-108308476D01*
X126150714Y-108260857D01*
X126103095Y-108165619D01*
X126055476Y-108118000D01*
X125960238Y-108070380D01*
X125769761Y-108070380D01*
X125674523Y-108118000D01*
X125626904Y-108165619D01*
X125579285Y-108260857D01*
X125579285Y-108308476D01*
X125626904Y-108403714D01*
X125674523Y-108451333D01*
X125769761Y-108498952D01*
X125960238Y-108498952D01*
X126055476Y-108546571D01*
X126103095Y-108594190D01*
X126150714Y-108689428D01*
X126150714Y-108879904D01*
X126103095Y-108975142D01*
X126055476Y-109022761D01*
X125960238Y-109070380D01*
X125769761Y-109070380D01*
X125674523Y-109022761D01*
X125626904Y-108975142D01*
X125579285Y-108879904D01*
X125579285Y-108689428D01*
X125626904Y-108594190D01*
X125674523Y-108546571D01*
X125769761Y-108498952D01*
%TO.C,C5*%
X137517142Y-101687333D02*
X137564761Y-101639714D01*
X137612380Y-101496857D01*
X137612380Y-101401619D01*
X137564761Y-101258761D01*
X137469523Y-101163523D01*
X137374285Y-101115904D01*
X137183809Y-101068285D01*
X137040952Y-101068285D01*
X136850476Y-101115904D01*
X136755238Y-101163523D01*
X136660000Y-101258761D01*
X136612380Y-101401619D01*
X136612380Y-101496857D01*
X136660000Y-101639714D01*
X136707619Y-101687333D01*
X136612380Y-102592095D02*
X136612380Y-102115904D01*
X137088571Y-102068285D01*
X137040952Y-102115904D01*
X136993333Y-102211142D01*
X136993333Y-102449238D01*
X137040952Y-102544476D01*
X137088571Y-102592095D01*
X137183809Y-102639714D01*
X137421904Y-102639714D01*
X137517142Y-102592095D01*
X137564761Y-102544476D01*
X137612380Y-102449238D01*
X137612380Y-102211142D01*
X137564761Y-102115904D01*
X137517142Y-102068285D01*
%TO.C,C4*%
X115833142Y-103111833D02*
X115880761Y-103064214D01*
X115928380Y-102921357D01*
X115928380Y-102826119D01*
X115880761Y-102683261D01*
X115785523Y-102588023D01*
X115690285Y-102540404D01*
X115499809Y-102492785D01*
X115356952Y-102492785D01*
X115166476Y-102540404D01*
X115071238Y-102588023D01*
X114976000Y-102683261D01*
X114928380Y-102826119D01*
X114928380Y-102921357D01*
X114976000Y-103064214D01*
X115023619Y-103111833D01*
X115261714Y-103968976D02*
X115928380Y-103968976D01*
X114880761Y-103730880D02*
X115595047Y-103492785D01*
X115595047Y-104111833D01*
%TO.C,C11*%
X132516357Y-125325142D02*
X132563976Y-125372761D01*
X132706833Y-125420380D01*
X132802071Y-125420380D01*
X132944928Y-125372761D01*
X133040166Y-125277523D01*
X133087785Y-125182285D01*
X133135404Y-124991809D01*
X133135404Y-124848952D01*
X133087785Y-124658476D01*
X133040166Y-124563238D01*
X132944928Y-124468000D01*
X132802071Y-124420380D01*
X132706833Y-124420380D01*
X132563976Y-124468000D01*
X132516357Y-124515619D01*
X131563976Y-125420380D02*
X132135404Y-125420380D01*
X131849690Y-125420380D02*
X131849690Y-124420380D01*
X131944928Y-124563238D01*
X132040166Y-124658476D01*
X132135404Y-124706095D01*
X130611595Y-125420380D02*
X131183023Y-125420380D01*
X130897309Y-125420380D02*
X130897309Y-124420380D01*
X130992547Y-124563238D01*
X131087785Y-124658476D01*
X131183023Y-124706095D01*
%TO.C,C10*%
X132432857Y-119069142D02*
X132480476Y-119116761D01*
X132623333Y-119164380D01*
X132718571Y-119164380D01*
X132861428Y-119116761D01*
X132956666Y-119021523D01*
X133004285Y-118926285D01*
X133051904Y-118735809D01*
X133051904Y-118592952D01*
X133004285Y-118402476D01*
X132956666Y-118307238D01*
X132861428Y-118212000D01*
X132718571Y-118164380D01*
X132623333Y-118164380D01*
X132480476Y-118212000D01*
X132432857Y-118259619D01*
X131480476Y-119164380D02*
X132051904Y-119164380D01*
X131766190Y-119164380D02*
X131766190Y-118164380D01*
X131861428Y-118307238D01*
X131956666Y-118402476D01*
X132051904Y-118450095D01*
X130861428Y-118164380D02*
X130766190Y-118164380D01*
X130670952Y-118212000D01*
X130623333Y-118259619D01*
X130575714Y-118354857D01*
X130528095Y-118545333D01*
X130528095Y-118783428D01*
X130575714Y-118973904D01*
X130623333Y-119069142D01*
X130670952Y-119116761D01*
X130766190Y-119164380D01*
X130861428Y-119164380D01*
X130956666Y-119116761D01*
X131004285Y-119069142D01*
X131051904Y-118973904D01*
X131099523Y-118783428D01*
X131099523Y-118545333D01*
X131051904Y-118354857D01*
X131004285Y-118259619D01*
X130956666Y-118212000D01*
X130861428Y-118164380D01*
%TO.C,R20*%
X123337880Y-113276142D02*
X122861690Y-112942809D01*
X123337880Y-112704714D02*
X122337880Y-112704714D01*
X122337880Y-113085666D01*
X122385500Y-113180904D01*
X122433119Y-113228523D01*
X122528357Y-113276142D01*
X122671214Y-113276142D01*
X122766452Y-113228523D01*
X122814071Y-113180904D01*
X122861690Y-113085666D01*
X122861690Y-112704714D01*
X122433119Y-113657095D02*
X122385500Y-113704714D01*
X122337880Y-113799952D01*
X122337880Y-114038047D01*
X122385500Y-114133285D01*
X122433119Y-114180904D01*
X122528357Y-114228523D01*
X122623595Y-114228523D01*
X122766452Y-114180904D01*
X123337880Y-113609476D01*
X123337880Y-114228523D01*
X122337880Y-114847571D02*
X122337880Y-114942809D01*
X122385500Y-115038047D01*
X122433119Y-115085666D01*
X122528357Y-115133285D01*
X122718833Y-115180904D01*
X122956928Y-115180904D01*
X123147404Y-115133285D01*
X123242642Y-115085666D01*
X123290261Y-115038047D01*
X123337880Y-114942809D01*
X123337880Y-114847571D01*
X123290261Y-114752333D01*
X123242642Y-114704714D01*
X123147404Y-114657095D01*
X122956928Y-114609476D01*
X122718833Y-114609476D01*
X122528357Y-114657095D01*
X122433119Y-114704714D01*
X122385500Y-114752333D01*
X122337880Y-114847571D01*
%TO.C,C12*%
X132976857Y-136421042D02*
X133024476Y-136468661D01*
X133167333Y-136516280D01*
X133262571Y-136516280D01*
X133405428Y-136468661D01*
X133500666Y-136373423D01*
X133548285Y-136278185D01*
X133595904Y-136087709D01*
X133595904Y-135944852D01*
X133548285Y-135754376D01*
X133500666Y-135659138D01*
X133405428Y-135563900D01*
X133262571Y-135516280D01*
X133167333Y-135516280D01*
X133024476Y-135563900D01*
X132976857Y-135611519D01*
X132024476Y-136516280D02*
X132595904Y-136516280D01*
X132310190Y-136516280D02*
X132310190Y-135516280D01*
X132405428Y-135659138D01*
X132500666Y-135754376D01*
X132595904Y-135801995D01*
X131643523Y-135611519D02*
X131595904Y-135563900D01*
X131500666Y-135516280D01*
X131262571Y-135516280D01*
X131167333Y-135563900D01*
X131119714Y-135611519D01*
X131072095Y-135706757D01*
X131072095Y-135801995D01*
X131119714Y-135944852D01*
X131691142Y-136516280D01*
X131072095Y-136516280D01*
%TO.C,C7*%
X124403142Y-104354333D02*
X124450761Y-104306714D01*
X124498380Y-104163857D01*
X124498380Y-104068619D01*
X124450761Y-103925761D01*
X124355523Y-103830523D01*
X124260285Y-103782904D01*
X124069809Y-103735285D01*
X123926952Y-103735285D01*
X123736476Y-103782904D01*
X123641238Y-103830523D01*
X123546000Y-103925761D01*
X123498380Y-104068619D01*
X123498380Y-104163857D01*
X123546000Y-104306714D01*
X123593619Y-104354333D01*
X123498380Y-104687666D02*
X123498380Y-105354333D01*
X124498380Y-104925761D01*
%TO.C,R3*%
X144568380Y-105878333D02*
X144092190Y-105545000D01*
X144568380Y-105306904D02*
X143568380Y-105306904D01*
X143568380Y-105687857D01*
X143616000Y-105783095D01*
X143663619Y-105830714D01*
X143758857Y-105878333D01*
X143901714Y-105878333D01*
X143996952Y-105830714D01*
X144044571Y-105783095D01*
X144092190Y-105687857D01*
X144092190Y-105306904D01*
X143568380Y-106211666D02*
X143568380Y-106830714D01*
X143949333Y-106497380D01*
X143949333Y-106640238D01*
X143996952Y-106735476D01*
X144044571Y-106783095D01*
X144139809Y-106830714D01*
X144377904Y-106830714D01*
X144473142Y-106783095D01*
X144520761Y-106735476D01*
X144568380Y-106640238D01*
X144568380Y-106354523D01*
X144520761Y-106259285D01*
X144473142Y-106211666D01*
%TO.C,R2*%
X116755380Y-101121333D02*
X116279190Y-100788000D01*
X116755380Y-100549904D02*
X115755380Y-100549904D01*
X115755380Y-100930857D01*
X115803000Y-101026095D01*
X115850619Y-101073714D01*
X115945857Y-101121333D01*
X116088714Y-101121333D01*
X116183952Y-101073714D01*
X116231571Y-101026095D01*
X116279190Y-100930857D01*
X116279190Y-100549904D01*
X115850619Y-101502285D02*
X115803000Y-101549904D01*
X115755380Y-101645142D01*
X115755380Y-101883238D01*
X115803000Y-101978476D01*
X115850619Y-102026095D01*
X115945857Y-102073714D01*
X116041095Y-102073714D01*
X116183952Y-102026095D01*
X116755380Y-101454666D01*
X116755380Y-102073714D01*
%TO.C,R4*%
X116755380Y-105417833D02*
X116279190Y-105084500D01*
X116755380Y-104846404D02*
X115755380Y-104846404D01*
X115755380Y-105227357D01*
X115803000Y-105322595D01*
X115850619Y-105370214D01*
X115945857Y-105417833D01*
X116088714Y-105417833D01*
X116183952Y-105370214D01*
X116231571Y-105322595D01*
X116279190Y-105227357D01*
X116279190Y-104846404D01*
X116088714Y-106274976D02*
X116755380Y-106274976D01*
X115707761Y-106036880D02*
X116422047Y-105798785D01*
X116422047Y-106417833D01*
%TO.C,C1*%
X120085142Y-103302333D02*
X120132761Y-103254714D01*
X120180380Y-103111857D01*
X120180380Y-103016619D01*
X120132761Y-102873761D01*
X120037523Y-102778523D01*
X119942285Y-102730904D01*
X119751809Y-102683285D01*
X119608952Y-102683285D01*
X119418476Y-102730904D01*
X119323238Y-102778523D01*
X119228000Y-102873761D01*
X119180380Y-103016619D01*
X119180380Y-103111857D01*
X119228000Y-103254714D01*
X119275619Y-103302333D01*
X120180380Y-104254714D02*
X120180380Y-103683285D01*
X120180380Y-103969000D02*
X119180380Y-103969000D01*
X119323238Y-103873761D01*
X119418476Y-103778523D01*
X119466095Y-103683285D01*
%TO.C,C13*%
X132722857Y-129516142D02*
X132770476Y-129563761D01*
X132913333Y-129611380D01*
X133008571Y-129611380D01*
X133151428Y-129563761D01*
X133246666Y-129468523D01*
X133294285Y-129373285D01*
X133341904Y-129182809D01*
X133341904Y-129039952D01*
X133294285Y-128849476D01*
X133246666Y-128754238D01*
X133151428Y-128659000D01*
X133008571Y-128611380D01*
X132913333Y-128611380D01*
X132770476Y-128659000D01*
X132722857Y-128706619D01*
X131770476Y-129611380D02*
X132341904Y-129611380D01*
X132056190Y-129611380D02*
X132056190Y-128611380D01*
X132151428Y-128754238D01*
X132246666Y-128849476D01*
X132341904Y-128897095D01*
X131437142Y-128611380D02*
X130818095Y-128611380D01*
X131151428Y-128992333D01*
X131008571Y-128992333D01*
X130913333Y-129039952D01*
X130865714Y-129087571D01*
X130818095Y-129182809D01*
X130818095Y-129420904D01*
X130865714Y-129516142D01*
X130913333Y-129563761D01*
X131008571Y-129611380D01*
X131294285Y-129611380D01*
X131389523Y-129563761D01*
X131437142Y-129516142D01*
%TO.C,R1*%
X144568380Y-101538833D02*
X144092190Y-101205500D01*
X144568380Y-100967404D02*
X143568380Y-100967404D01*
X143568380Y-101348357D01*
X143616000Y-101443595D01*
X143663619Y-101491214D01*
X143758857Y-101538833D01*
X143901714Y-101538833D01*
X143996952Y-101491214D01*
X144044571Y-101443595D01*
X144092190Y-101348357D01*
X144092190Y-100967404D01*
X144568380Y-102491214D02*
X144568380Y-101919785D01*
X144568380Y-102205500D02*
X143568380Y-102205500D01*
X143711238Y-102110261D01*
X143806476Y-102015023D01*
X143854095Y-101919785D01*
%TO.C,R19*%
X133428880Y-113530142D02*
X132952690Y-113196809D01*
X133428880Y-112958714D02*
X132428880Y-112958714D01*
X132428880Y-113339666D01*
X132476500Y-113434904D01*
X132524119Y-113482523D01*
X132619357Y-113530142D01*
X132762214Y-113530142D01*
X132857452Y-113482523D01*
X132905071Y-113434904D01*
X132952690Y-113339666D01*
X132952690Y-112958714D01*
X133428880Y-114482523D02*
X133428880Y-113911095D01*
X133428880Y-114196809D02*
X132428880Y-114196809D01*
X132571738Y-114101571D01*
X132666976Y-114006333D01*
X132714595Y-113911095D01*
X133428880Y-114958714D02*
X133428880Y-115149190D01*
X133381261Y-115244428D01*
X133333642Y-115292047D01*
X133190785Y-115387285D01*
X133000309Y-115434904D01*
X132619357Y-115434904D01*
X132524119Y-115387285D01*
X132476500Y-115339666D01*
X132428880Y-115244428D01*
X132428880Y-115053952D01*
X132476500Y-114958714D01*
X132524119Y-114911095D01*
X132619357Y-114863476D01*
X132857452Y-114863476D01*
X132952690Y-114911095D01*
X133000309Y-114958714D01*
X133047928Y-115053952D01*
X133047928Y-115244428D01*
X133000309Y-115339666D01*
X132952690Y-115387285D01*
X132857452Y-115434904D01*
%TO.C,R12*%
X135990380Y-101443642D02*
X135514190Y-101110309D01*
X135990380Y-100872214D02*
X134990380Y-100872214D01*
X134990380Y-101253166D01*
X135038000Y-101348404D01*
X135085619Y-101396023D01*
X135180857Y-101443642D01*
X135323714Y-101443642D01*
X135418952Y-101396023D01*
X135466571Y-101348404D01*
X135514190Y-101253166D01*
X135514190Y-100872214D01*
X135990380Y-102396023D02*
X135990380Y-101824595D01*
X135990380Y-102110309D02*
X134990380Y-102110309D01*
X135133238Y-102015071D01*
X135228476Y-101919833D01*
X135276095Y-101824595D01*
X135085619Y-102776976D02*
X135038000Y-102824595D01*
X134990380Y-102919833D01*
X134990380Y-103157928D01*
X135038000Y-103253166D01*
X135085619Y-103300785D01*
X135180857Y-103348404D01*
X135276095Y-103348404D01*
X135418952Y-103300785D01*
X135990380Y-102729357D01*
X135990380Y-103348404D01*
%TO.C,R14*%
X127296380Y-101465142D02*
X126820190Y-101131809D01*
X127296380Y-100893714D02*
X126296380Y-100893714D01*
X126296380Y-101274666D01*
X126344000Y-101369904D01*
X126391619Y-101417523D01*
X126486857Y-101465142D01*
X126629714Y-101465142D01*
X126724952Y-101417523D01*
X126772571Y-101369904D01*
X126820190Y-101274666D01*
X126820190Y-100893714D01*
X127296380Y-102417523D02*
X127296380Y-101846095D01*
X127296380Y-102131809D02*
X126296380Y-102131809D01*
X126439238Y-102036571D01*
X126534476Y-101941333D01*
X126582095Y-101846095D01*
X126629714Y-103274666D02*
X127296380Y-103274666D01*
X126248761Y-103036571D02*
X126963047Y-102798476D01*
X126963047Y-103417523D01*
%TO.C,C6*%
X137580666Y-109356142D02*
X137628285Y-109403761D01*
X137771142Y-109451380D01*
X137866380Y-109451380D01*
X138009238Y-109403761D01*
X138104476Y-109308523D01*
X138152095Y-109213285D01*
X138199714Y-109022809D01*
X138199714Y-108879952D01*
X138152095Y-108689476D01*
X138104476Y-108594238D01*
X138009238Y-108499000D01*
X137866380Y-108451380D01*
X137771142Y-108451380D01*
X137628285Y-108499000D01*
X137580666Y-108546619D01*
X136723523Y-108451380D02*
X136914000Y-108451380D01*
X137009238Y-108499000D01*
X137056857Y-108546619D01*
X137152095Y-108689476D01*
X137199714Y-108879952D01*
X137199714Y-109260904D01*
X137152095Y-109356142D01*
X137104476Y-109403761D01*
X137009238Y-109451380D01*
X136818761Y-109451380D01*
X136723523Y-109403761D01*
X136675904Y-109356142D01*
X136628285Y-109260904D01*
X136628285Y-109022809D01*
X136675904Y-108927571D01*
X136723523Y-108879952D01*
X136818761Y-108832333D01*
X137009238Y-108832333D01*
X137104476Y-108879952D01*
X137152095Y-108927571D01*
X137199714Y-109022809D01*
%TO.C,C3*%
X143646142Y-103184833D02*
X143693761Y-103137214D01*
X143741380Y-102994357D01*
X143741380Y-102899119D01*
X143693761Y-102756261D01*
X143598523Y-102661023D01*
X143503285Y-102613404D01*
X143312809Y-102565785D01*
X143169952Y-102565785D01*
X142979476Y-102613404D01*
X142884238Y-102661023D01*
X142789000Y-102756261D01*
X142741380Y-102899119D01*
X142741380Y-102994357D01*
X142789000Y-103137214D01*
X142836619Y-103184833D01*
X142741380Y-103518166D02*
X142741380Y-104137214D01*
X143122333Y-103803880D01*
X143122333Y-103946738D01*
X143169952Y-104041976D01*
X143217571Y-104089595D01*
X143312809Y-104137214D01*
X143550904Y-104137214D01*
X143646142Y-104089595D01*
X143693761Y-104041976D01*
X143741380Y-103946738D01*
X143741380Y-103661023D01*
X143693761Y-103565785D01*
X143646142Y-103518166D01*
D11*
%TO.C,C2*%
X148080000Y-103385233D02*
X148080000Y-103677767D01*
X149100000Y-103385233D02*
X149100000Y-103677767D01*
%TO.C,C8*%
X126218733Y-107698000D02*
X126511267Y-107698000D01*
X126218733Y-106678000D02*
X126511267Y-106678000D01*
%TO.C,C5*%
X136396000Y-104374733D02*
X136396000Y-104667267D01*
X137416000Y-104374733D02*
X137416000Y-104667267D01*
%TO.C,C4*%
X113536000Y-103424767D02*
X113536000Y-103132233D01*
X114556000Y-103424767D02*
X114556000Y-103132233D01*
%TO.C,C11*%
X132584752Y-124122100D02*
X131162248Y-124122100D01*
X132584752Y-121402100D02*
X131162248Y-121402100D01*
%TO.C,C10*%
X131936267Y-119632000D02*
X131643733Y-119632000D01*
X131936267Y-120652000D02*
X131643733Y-120652000D01*
%TO.C,R20*%
X123830500Y-113657748D02*
X123830500Y-114180252D01*
X125300500Y-113657748D02*
X125300500Y-114180252D01*
%TO.C,C12*%
X132046233Y-133983000D02*
X132338767Y-133983000D01*
X132046233Y-135003000D02*
X132338767Y-135003000D01*
%TO.C,C7*%
X124966000Y-104374733D02*
X124966000Y-104667267D01*
X125986000Y-104374733D02*
X125986000Y-104667267D01*
%TO.C,R3*%
X146531000Y-105783748D02*
X146531000Y-106306252D01*
X145061000Y-105783748D02*
X145061000Y-106306252D01*
%TO.C,R2*%
X117248000Y-101026748D02*
X117248000Y-101549252D01*
X118718000Y-101026748D02*
X118718000Y-101549252D01*
%TO.C,R4*%
X117248000Y-105323248D02*
X117248000Y-105845752D01*
X118718000Y-105323248D02*
X118718000Y-105845752D01*
%TO.C,C1*%
X120648000Y-103322733D02*
X120648000Y-103615267D01*
X121668000Y-103322733D02*
X121668000Y-103615267D01*
%TO.C,C13*%
X131416248Y-130419100D02*
X132838752Y-130419100D01*
X131416248Y-133139100D02*
X132838752Y-133139100D01*
%TO.C,R1*%
X145061000Y-101444248D02*
X145061000Y-101966752D01*
X146531000Y-101444248D02*
X146531000Y-101966752D01*
%TO.C,R19*%
X130561500Y-114434252D02*
X130561500Y-113911748D01*
X132031500Y-114434252D02*
X132031500Y-113911748D01*
%TO.C,R12*%
X134593000Y-102347752D02*
X134593000Y-101825248D01*
X133123000Y-102347752D02*
X133123000Y-101825248D01*
%TO.C,R14*%
X129259000Y-101846748D02*
X129259000Y-102369252D01*
X127789000Y-101846748D02*
X127789000Y-102369252D01*
%TO.C,C6*%
X137267733Y-107059000D02*
X137560267Y-107059000D01*
X137267733Y-108079000D02*
X137560267Y-108079000D01*
%TO.C,C3*%
X141349000Y-103497767D02*
X141349000Y-103205233D01*
X142369000Y-103497767D02*
X142369000Y-103205233D01*
%TD*%
M02*
