%TF.GenerationSoftware,KiCad,Pcbnew,(6.0.11)*%
%TF.CreationDate,2023-05-27T13:57:12+02:00*%
%TF.ProjectId,Orp-pH Board,4f72702d-7048-4204-926f-6172642e6b69,V1.0*%
%TF.SameCoordinates,Original*%
%TF.FileFunction,Soldermask,Top*%
%TF.FilePolarity,Negative*%
%FSLAX46Y46*%
G04 Gerber Fmt 4.6, Leading zero omitted, Abs format (unit mm)*
G04 Created by KiCad (PCBNEW (6.0.11)) date 2023-05-27 13:57:12*
%MOMM*%
%LPD*%
G01*
G04 APERTURE LIST*
G04 Aperture macros list*
%AMRoundRect*
0 Rectangle with rounded corners*
0 $1 Rounding radius*
0 $2 $3 $4 $5 $6 $7 $8 $9 X,Y pos of 4 corners*
0 Add a 4 corners polygon primitive as box body*
4,1,4,$2,$3,$4,$5,$6,$7,$8,$9,$2,$3,0*
0 Add four circle primitives for the rounded corners*
1,1,$1+$1,$2,$3*
1,1,$1+$1,$4,$5*
1,1,$1+$1,$6,$7*
1,1,$1+$1,$8,$9*
0 Add four rect primitives between the rounded corners*
20,1,$1+$1,$2,$3,$4,$5,0*
20,1,$1+$1,$4,$5,$6,$7,0*
20,1,$1+$1,$6,$7,$8,$9,0*
20,1,$1+$1,$8,$9,$2,$3,0*%
G04 Aperture macros list end*
%ADD10RoundRect,0.250000X0.475000X-0.337500X0.475000X0.337500X-0.475000X0.337500X-0.475000X-0.337500X0*%
%ADD11O,1.600000X2.500000*%
%ADD12O,3.500000X7.000000*%
%ADD13C,5.700000*%
%ADD14C,3.600000*%
%ADD15RoundRect,0.042000X-0.258000X0.943000X-0.258000X-0.943000X0.258000X-0.943000X0.258000X0.943000X0*%
%ADD16RoundRect,0.250000X0.337500X0.475000X-0.337500X0.475000X-0.337500X-0.475000X0.337500X-0.475000X0*%
%ADD17RoundRect,0.075000X0.650000X0.075000X-0.650000X0.075000X-0.650000X-0.075000X0.650000X-0.075000X0*%
%ADD18RoundRect,0.250000X-0.337500X-0.475000X0.337500X-0.475000X0.337500X0.475000X-0.337500X0.475000X0*%
%ADD19C,2.000000*%
%ADD20RoundRect,0.237500X0.237500X-0.300000X0.237500X0.300000X-0.237500X0.300000X-0.237500X-0.300000X0*%
%ADD21R,0.475200X1.702000*%
%ADD22R,1.700000X1.700000*%
%ADD23O,1.700000X1.700000*%
%ADD24RoundRect,0.250000X-0.475000X0.337500X-0.475000X-0.337500X0.475000X-0.337500X0.475000X0.337500X0*%
G04 APERTURE END LIST*
D10*
%TO.C,R6*%
X114046000Y-104320000D03*
X114046000Y-102245000D03*
%TD*%
%TO.C,R10*%
X113030000Y-111908500D03*
X113030000Y-109833500D03*
%TD*%
D11*
%TO.C,J1*%
X147320000Y-96520000D03*
D12*
X152400000Y-91440000D03*
X142240000Y-91440000D03*
D11*
X144780000Y-96520000D03*
%TD*%
D13*
%TO.C,REF2*%
X113030000Y-140970000D03*
D14*
X113030000Y-140970000D03*
%TD*%
D10*
%TO.C,R22*%
X137160000Y-121306500D03*
X137160000Y-119231500D03*
%TD*%
D13*
%TO.C,REF1*%
X132715000Y-91821000D03*
D14*
X132715000Y-91821000D03*
%TD*%
D15*
%TO.C,U1*%
X148717000Y-101289000D03*
X147447000Y-101289000D03*
X146177000Y-101289000D03*
X144907000Y-101289000D03*
X144907000Y-106229000D03*
X146177000Y-106229000D03*
X147447000Y-106229000D03*
X148717000Y-106229000D03*
%TD*%
D16*
%TO.C,R23*%
X133604000Y-134112000D03*
X131529000Y-134112000D03*
%TD*%
D17*
%TO.C,U3*%
X134026000Y-108442000D03*
X134026000Y-107942000D03*
X134026000Y-107442000D03*
X134026000Y-106942000D03*
X134026000Y-106442000D03*
X129626000Y-106442000D03*
X129626000Y-106942000D03*
X129626000Y-107442000D03*
X129626000Y-107942000D03*
X129626000Y-108442000D03*
%TD*%
D16*
%TO.C,R15*%
X125624500Y-118999000D03*
X123549500Y-118999000D03*
%TD*%
%TO.C,R17*%
X125520500Y-111252000D03*
X123445500Y-111252000D03*
%TD*%
D18*
%TO.C,R9*%
X149345000Y-110744000D03*
X151420000Y-110744000D03*
%TD*%
%TO.C,R21*%
X131275000Y-118618000D03*
X133350000Y-118618000D03*
%TD*%
D19*
%TO.C,TP2*%
X116205000Y-121920000D03*
%TD*%
D13*
%TO.C,REF3*%
X151130000Y-140970000D03*
D14*
X151130000Y-140970000D03*
%TD*%
D20*
%TO.C,C9*%
X126010500Y-108558500D03*
X126010500Y-106833500D03*
%TD*%
D16*
%TO.C,R16*%
X125542000Y-122936000D03*
X123467000Y-122936000D03*
%TD*%
D19*
%TO.C,TP1*%
X145288000Y-121679000D03*
%TD*%
D10*
%TO.C,R5*%
X142240000Y-104490500D03*
X142240000Y-102415500D03*
%TD*%
D16*
%TO.C,R24*%
X133604000Y-137668000D03*
X131529000Y-137668000D03*
%TD*%
D21*
%TO.C,U4*%
X129409000Y-130856900D03*
X130059000Y-130856900D03*
X130709000Y-130856900D03*
X131359000Y-130856900D03*
X132009000Y-130856900D03*
X132659000Y-130856900D03*
X133309000Y-130856900D03*
X133959000Y-130856900D03*
X134609000Y-130856900D03*
X135259000Y-130856900D03*
X135259000Y-123651100D03*
X134609000Y-123651100D03*
X133959000Y-123651100D03*
X133309000Y-123651100D03*
X132659000Y-123651100D03*
X132009000Y-123651100D03*
X131359000Y-123651100D03*
X130709000Y-123651100D03*
X130059000Y-123651100D03*
X129409000Y-123651100D03*
%TD*%
D16*
%TO.C,R7*%
X147214500Y-110744000D03*
X145139500Y-110744000D03*
%TD*%
D22*
%TO.C,J3*%
X136525000Y-142494000D03*
D23*
X133985000Y-142494000D03*
X131445000Y-142494000D03*
X128905000Y-142494000D03*
%TD*%
D18*
%TO.C,R8*%
X116416000Y-111125000D03*
X118491000Y-111125000D03*
%TD*%
D16*
%TO.C,R18*%
X125669000Y-114935000D03*
X123594000Y-114935000D03*
%TD*%
D11*
%TO.C,J2*%
X117138000Y-96330000D03*
D12*
X112058000Y-91250000D03*
X122218000Y-91250000D03*
D11*
X114598000Y-96330000D03*
%TD*%
D24*
%TO.C,R13*%
X111506000Y-102252000D03*
X111506000Y-104327000D03*
%TD*%
D15*
%TO.C,U2*%
X120396000Y-101105000D03*
X119126000Y-101105000D03*
X117856000Y-101105000D03*
X116586000Y-101105000D03*
X116586000Y-106045000D03*
X117856000Y-106045000D03*
X119126000Y-106045000D03*
X120396000Y-106045000D03*
%TD*%
D24*
%TO.C,R11*%
X139700000Y-102340500D03*
X139700000Y-104415500D03*
%TD*%
D19*
%TO.C,TP3*%
X142748000Y-135001000D03*
%TD*%
M02*
