M48
; DRILL file {KiCad (6.0.11)} date Sat May 27 13:57:19 2023
; FORMAT={-:-/ absolute / inch / decimal}
; #@! TF.CreationDate,2023-05-27T13:57:19+02:00
; #@! TF.GenerationSoftware,Kicad,Pcbnew,(6.0.11)
; #@! TF.FileFunction,Plated,1,2,PTH
FMAT,2
INCH
; #@! TA.AperFunction,Plated,PTH,ViaDrill
T1C0.0157
; #@! TA.AperFunction,Plated,PTH,ComponentDrill
T2C0.0350
; #@! TA.AperFunction,Plated,PTH,ComponentDrill
T3C0.0394
; #@! TA.AperFunction,Plated,PTH,ComponentDrill
T4C0.0791
; #@! TA.AperFunction,Plated,PTH,ComponentDrill
T5C0.1260
%
G90
G05
T1
X4.4Y-4.7
X4.5046Y-3.9781
X4.5832Y-4.1071
X4.6Y-3.5
X4.8Y-5.25
X4.85Y-5.65
X4.9566Y-4.438
X4.9837Y-4.1505
X5.0076Y-4.272
X5.0506Y-4.1929
X5.0979Y-4.5358
X5.1836Y-4.2315
X5.2Y-3.9
X5.25Y-3.4
X5.2874Y-4.1339
X5.3987Y-4.6254
X5.4333Y-4.1409
X5.5498Y-4.0677
X5.6364Y-4.1591
X5.65Y-5.55
X5.6672Y-4.3703
X5.8Y-3.5
X5.95Y-4.7
X5.95Y-5.25
X6.05Y-4.05
T2
X4.5117Y-3.7925
X4.6117Y-3.7925
X5.7Y-3.8
X5.8Y-3.8
T3
X5.075Y-5.61
X5.175Y-5.61
X5.275Y-5.61
X5.375Y-5.61
T4
X4.4117Y-3.5925
X4.8117Y-3.5925
X5.6Y-3.6
X6.0Y-3.6
T5
X4.45Y-5.55
X5.225Y-3.615
X5.95Y-5.55
T0
M30
