%TF.GenerationSoftware,KiCad,Pcbnew,(6.0.11)*%
%TF.CreationDate,2023-05-27T13:57:12+02:00*%
%TF.ProjectId,Orp-pH Board,4f72702d-7048-4204-926f-6172642e6b69,V1.0*%
%TF.SameCoordinates,Original*%
%TF.FileFunction,Copper,L1,Top*%
%TF.FilePolarity,Positive*%
%FSLAX46Y46*%
G04 Gerber Fmt 4.6, Leading zero omitted, Abs format (unit mm)*
G04 Created by KiCad (PCBNEW (6.0.11)) date 2023-05-27 13:57:12*
%MOMM*%
%LPD*%
G01*
G04 APERTURE LIST*
G04 Aperture macros list*
%AMRoundRect*
0 Rectangle with rounded corners*
0 $1 Rounding radius*
0 $2 $3 $4 $5 $6 $7 $8 $9 X,Y pos of 4 corners*
0 Add a 4 corners polygon primitive as box body*
4,1,4,$2,$3,$4,$5,$6,$7,$8,$9,$2,$3,0*
0 Add four circle primitives for the rounded corners*
1,1,$1+$1,$2,$3*
1,1,$1+$1,$4,$5*
1,1,$1+$1,$6,$7*
1,1,$1+$1,$8,$9*
0 Add four rect primitives between the rounded corners*
20,1,$1+$1,$2,$3,$4,$5,0*
20,1,$1+$1,$4,$5,$6,$7,0*
20,1,$1+$1,$6,$7,$8,$9,0*
20,1,$1+$1,$8,$9,$2,$3,0*%
G04 Aperture macros list end*
%TA.AperFunction,SMDPad,CuDef*%
%ADD10RoundRect,0.250000X0.475000X-0.337500X0.475000X0.337500X-0.475000X0.337500X-0.475000X-0.337500X0*%
%TD*%
%TA.AperFunction,ComponentPad*%
%ADD11O,1.600000X2.500000*%
%TD*%
%TA.AperFunction,ComponentPad*%
%ADD12O,3.500000X7.000000*%
%TD*%
%TA.AperFunction,ConnectorPad*%
%ADD13C,5.700000*%
%TD*%
%TA.AperFunction,ComponentPad*%
%ADD14C,3.600000*%
%TD*%
%TA.AperFunction,SMDPad,CuDef*%
%ADD15RoundRect,0.042000X-0.258000X0.943000X-0.258000X-0.943000X0.258000X-0.943000X0.258000X0.943000X0*%
%TD*%
%TA.AperFunction,SMDPad,CuDef*%
%ADD16RoundRect,0.250000X0.337500X0.475000X-0.337500X0.475000X-0.337500X-0.475000X0.337500X-0.475000X0*%
%TD*%
%TA.AperFunction,SMDPad,CuDef*%
%ADD17RoundRect,0.075000X0.650000X0.075000X-0.650000X0.075000X-0.650000X-0.075000X0.650000X-0.075000X0*%
%TD*%
%TA.AperFunction,SMDPad,CuDef*%
%ADD18RoundRect,0.250000X-0.337500X-0.475000X0.337500X-0.475000X0.337500X0.475000X-0.337500X0.475000X0*%
%TD*%
%TA.AperFunction,SMDPad,CuDef*%
%ADD19C,2.000000*%
%TD*%
%TA.AperFunction,SMDPad,CuDef*%
%ADD20RoundRect,0.237500X0.237500X-0.300000X0.237500X0.300000X-0.237500X0.300000X-0.237500X-0.300000X0*%
%TD*%
%TA.AperFunction,SMDPad,CuDef*%
%ADD21R,0.475200X1.702000*%
%TD*%
%TA.AperFunction,ComponentPad*%
%ADD22R,1.700000X1.700000*%
%TD*%
%TA.AperFunction,ComponentPad*%
%ADD23O,1.700000X1.700000*%
%TD*%
%TA.AperFunction,SMDPad,CuDef*%
%ADD24RoundRect,0.250000X-0.475000X0.337500X-0.475000X-0.337500X0.475000X-0.337500X0.475000X0.337500X0*%
%TD*%
%TA.AperFunction,ViaPad*%
%ADD25C,0.800000*%
%TD*%
%TA.AperFunction,Conductor*%
%ADD26C,0.250000*%
%TD*%
G04 APERTURE END LIST*
D10*
%TO.P,R6,1*%
%TO.N,Net-(C4-Pad1)*%
X114046000Y-104320000D03*
%TO.P,R6,2*%
%TO.N,Net-(C4-Pad2)*%
X114046000Y-102245000D03*
%TD*%
%TO.P,R10,1*%
%TO.N,Net-(J2-Pad2)*%
X113030000Y-111908500D03*
%TO.P,R10,2*%
%TO.N,GND Iso*%
X113030000Y-109833500D03*
%TD*%
D11*
%TO.P,J1,1,In*%
%TO.N,Net-(J1-Pad1)*%
X147320000Y-96520000D03*
D12*
%TO.P,J1,2,Ext*%
%TO.N,Net-(J1-Pad2)*%
X152400000Y-91440000D03*
X142240000Y-91440000D03*
D11*
X144780000Y-96520000D03*
%TD*%
D13*
%TO.P,REF2,1*%
%TO.N,N/C*%
X113030000Y-140970000D03*
D14*
X113030000Y-140970000D03*
%TD*%
D10*
%TO.P,R22,1*%
%TO.N,GND Iso*%
X137160000Y-121306500D03*
%TO.P,R22,2*%
%TO.N,Net-(R21-Pad2)*%
X137160000Y-119231500D03*
%TD*%
D13*
%TO.P,REF1,1*%
%TO.N,N/C*%
X132715000Y-91821000D03*
D14*
X132715000Y-91821000D03*
%TD*%
D15*
%TO.P,U1,1*%
%TO.N,Net-(J1-Pad1)*%
X148717000Y-101289000D03*
%TO.P,U1,2,N/C_2*%
%TO.N,unconnected-(U1-Pad2)*%
X147447000Y-101289000D03*
%TO.P,U1,3*%
%TO.N,GND Iso*%
X146177000Y-101289000D03*
%TO.P,U1,4*%
%TO.N,Net-(C3-Pad2)*%
X144907000Y-101289000D03*
%TO.P,U1,5,N/C_5*%
%TO.N,unconnected-(U1-Pad5)*%
X144907000Y-106229000D03*
%TO.P,U1,6*%
%TO.N,Vcc Iso*%
X146177000Y-106229000D03*
%TO.P,U1,7,N/C_7*%
%TO.N,unconnected-(U1-Pad7)*%
X147447000Y-106229000D03*
%TO.P,U1,8*%
%TO.N,Net-(C3-Pad1)*%
X148717000Y-106229000D03*
%TD*%
D16*
%TO.P,R23,1*%
%TO.N,Net-(C12-Pad2)*%
X133604000Y-134112000D03*
%TO.P,R23,2*%
%TO.N,Net-(J3-Pad2)*%
X131529000Y-134112000D03*
%TD*%
D17*
%TO.P,U3,1,ADDR*%
%TO.N,Net-(R15-Pad2)*%
X134026000Y-108442000D03*
%TO.P,U3,2,ALERT/RDY*%
%TO.N,unconnected-(U3-Pad2)*%
X134026000Y-107942000D03*
%TO.P,U3,3,GND*%
%TO.N,GND Iso*%
X134026000Y-107442000D03*
%TO.P,U3,4,AIN0*%
%TO.N,Net-(C5-Pad2)*%
X134026000Y-106942000D03*
%TO.P,U3,5,AIN1*%
%TO.N,Net-(C6-Pad2)*%
X134026000Y-106442000D03*
%TO.P,U3,6,AIN2*%
%TO.N,Net-(C7-Pad2)*%
X129626000Y-106442000D03*
%TO.P,U3,7,AIN3*%
%TO.N,Net-(C8-Pad2)*%
X129626000Y-106942000D03*
%TO.P,U3,8,VDD*%
%TO.N,Vcc Iso*%
X129626000Y-107442000D03*
%TO.P,U3,9,SDA*%
%TO.N,Net-(R17-Pad1)*%
X129626000Y-107942000D03*
%TO.P,U3,10,SCL*%
%TO.N,Net-(R16-Pad1)*%
X129626000Y-108442000D03*
%TD*%
D16*
%TO.P,R15,1*%
%TO.N,Vcc Iso*%
X125624500Y-118999000D03*
%TO.P,R15,2*%
%TO.N,Net-(R15-Pad2)*%
X123549500Y-118999000D03*
%TD*%
%TO.P,R17,1*%
%TO.N,Net-(R17-Pad1)*%
X125520500Y-111252000D03*
%TO.P,R17,2*%
%TO.N,Net-(R15-Pad2)*%
X123445500Y-111252000D03*
%TD*%
D18*
%TO.P,R9,1*%
%TO.N,Net-(J1-Pad2)*%
X149345000Y-110744000D03*
%TO.P,R9,2*%
%TO.N,GND Iso*%
X151420000Y-110744000D03*
%TD*%
%TO.P,R21,1*%
%TO.N,Vcc Iso*%
X131275000Y-118618000D03*
%TO.P,R21,2*%
%TO.N,Net-(R21-Pad2)*%
X133350000Y-118618000D03*
%TD*%
D19*
%TO.P,TP2,1,1*%
%TO.N,Vcc Iso*%
X116205000Y-121920000D03*
%TD*%
D13*
%TO.P,REF3,1*%
%TO.N,N/C*%
X151130000Y-140970000D03*
D14*
X151130000Y-140970000D03*
%TD*%
D20*
%TO.P,C9,1*%
%TO.N,GND Iso*%
X126010500Y-108558500D03*
%TO.P,C9,2*%
%TO.N,Vcc Iso*%
X126010500Y-106833500D03*
%TD*%
D16*
%TO.P,R16,1*%
%TO.N,Net-(R16-Pad1)*%
X125542000Y-122936000D03*
%TO.P,R16,2*%
%TO.N,Net-(R15-Pad2)*%
X123467000Y-122936000D03*
%TD*%
D19*
%TO.P,TP1,1,1*%
%TO.N,GND Iso*%
X145288000Y-121679000D03*
%TD*%
D10*
%TO.P,R5,1*%
%TO.N,Net-(C3-Pad1)*%
X142240000Y-104490500D03*
%TO.P,R5,2*%
%TO.N,Net-(C3-Pad2)*%
X142240000Y-102415500D03*
%TD*%
D16*
%TO.P,R24,1*%
%TO.N,Net-(C12-Pad2)*%
X133604000Y-137668000D03*
%TO.P,R24,2*%
%TO.N,Net-(J3-Pad3)*%
X131529000Y-137668000D03*
%TD*%
D21*
%TO.P,U4,1,GNDP@1*%
%TO.N,Net-(C12-Pad1)*%
X129409000Y-130856900D03*
%TO.P,U4,2,SCL2*%
%TO.N,Net-(J3-Pad3)*%
X130059000Y-130856900D03*
%TO.P,U4,3,SDA2*%
%TO.N,Net-(J3-Pad2)*%
X130709000Y-130856900D03*
%TO.P,U4,4,VDDP*%
%TO.N,Net-(C12-Pad2)*%
X131359000Y-130856900D03*
%TO.P,U4,5,GNDP@2*%
%TO.N,Net-(C12-Pad1)*%
X132009000Y-130856900D03*
%TO.P,U4,6*%
%TO.N,N/C*%
X132659000Y-130856900D03*
%TO.P,U4,7,GNDP@2*%
%TO.N,Net-(C12-Pad1)*%
X133309000Y-130856900D03*
%TO.P,U4,8,PDIS*%
X133959000Y-130856900D03*
%TO.P,U4,9,VIN*%
%TO.N,Net-(C12-Pad2)*%
X134609000Y-130856900D03*
%TO.P,U4,10,GNDP@2*%
%TO.N,Net-(C12-Pad1)*%
X135259000Y-130856900D03*
%TO.P,U4,11,GNDISO@2*%
%TO.N,GND Iso*%
X135259000Y-123651100D03*
%TO.P,U4,12,VISO*%
%TO.N,Vcc Iso*%
X134609000Y-123651100D03*
%TO.P,U4,13,VSEL*%
%TO.N,Net-(R21-Pad2)*%
X133959000Y-123651100D03*
%TO.P,U4,14,GNDISO@2*%
%TO.N,GND Iso*%
X133309000Y-123651100D03*
%TO.P,U4,15*%
%TO.N,N/C*%
X132659000Y-123651100D03*
%TO.P,U4,16,GNDISO@2*%
%TO.N,GND Iso*%
X132009000Y-123651100D03*
%TO.P,U4,17,VDDISO*%
%TO.N,Vcc Iso*%
X131359000Y-123651100D03*
%TO.P,U4,18,SDA1*%
%TO.N,Net-(R17-Pad1)*%
X130709000Y-123651100D03*
%TO.P,U4,19,SCL1*%
%TO.N,Net-(R16-Pad1)*%
X130059000Y-123651100D03*
%TO.P,U4,20,GNDISO@1*%
%TO.N,GND Iso*%
X129409000Y-123651100D03*
%TD*%
D16*
%TO.P,R7,1*%
%TO.N,Net-(J1-Pad2)*%
X147214500Y-110744000D03*
%TO.P,R7,2*%
%TO.N,Vcc Iso*%
X145139500Y-110744000D03*
%TD*%
D22*
%TO.P,J3,1,Pin_1*%
%TO.N,Net-(C12-Pad2)*%
X136525000Y-142494000D03*
D23*
%TO.P,J3,2,Pin_2*%
%TO.N,Net-(J3-Pad2)*%
X133985000Y-142494000D03*
%TO.P,J3,3,Pin_3*%
%TO.N,Net-(J3-Pad3)*%
X131445000Y-142494000D03*
%TO.P,J3,4,Pin_4*%
%TO.N,J3-GND*%
X128905000Y-142494000D03*
%TD*%
D18*
%TO.P,R8,1*%
%TO.N,Net-(J2-Pad2)*%
X116416000Y-111125000D03*
%TO.P,R8,2*%
%TO.N,Vcc Iso*%
X118491000Y-111125000D03*
%TD*%
D16*
%TO.P,R18,1*%
%TO.N,GND Iso*%
X125669000Y-114935000D03*
%TO.P,R18,2*%
%TO.N,Net-(R15-Pad2)*%
X123594000Y-114935000D03*
%TD*%
D11*
%TO.P,J2,1,In*%
%TO.N,Net-(J2-Pad1)*%
X117138000Y-96330000D03*
D12*
%TO.P,J2,2,Ext*%
%TO.N,Net-(J2-Pad2)*%
X112058000Y-91250000D03*
X122218000Y-91250000D03*
D11*
X114598000Y-96330000D03*
%TD*%
D24*
%TO.P,R13,1*%
%TO.N,Net-(C4-Pad2)*%
X111506000Y-102252000D03*
%TO.P,R13,2*%
%TO.N,Net-(C7-Pad2)*%
X111506000Y-104327000D03*
%TD*%
D15*
%TO.P,U2,1*%
%TO.N,Net-(J2-Pad1)*%
X120396000Y-101105000D03*
%TO.P,U2,2,N/C_2*%
%TO.N,unconnected-(U2-Pad2)*%
X119126000Y-101105000D03*
%TO.P,U2,3*%
%TO.N,GND Iso*%
X117856000Y-101105000D03*
%TO.P,U2,4*%
%TO.N,Net-(C4-Pad2)*%
X116586000Y-101105000D03*
%TO.P,U2,5,N/C_5*%
%TO.N,unconnected-(U2-Pad5)*%
X116586000Y-106045000D03*
%TO.P,U2,6*%
%TO.N,Vcc Iso*%
X117856000Y-106045000D03*
%TO.P,U2,7,N/C_7*%
%TO.N,unconnected-(U2-Pad7)*%
X119126000Y-106045000D03*
%TO.P,U2,8*%
%TO.N,Net-(C4-Pad1)*%
X120396000Y-106045000D03*
%TD*%
D24*
%TO.P,R11,1*%
%TO.N,Net-(C3-Pad2)*%
X139700000Y-102340500D03*
%TO.P,R11,2*%
%TO.N,Net-(C5-Pad2)*%
X139700000Y-104415500D03*
%TD*%
D19*
%TO.P,TP3,1,1*%
%TO.N,Net-(C12-Pad1)*%
X142748000Y-135001000D03*
%TD*%
D25*
%TO.N,GND Iso*%
X132080000Y-99060000D03*
X147320000Y-88900000D03*
X133350000Y-86360000D03*
X116840000Y-88900000D03*
X111760000Y-119380000D03*
X153670000Y-102870000D03*
%TO.N,J3-GND*%
X123190000Y-143510000D03*
X143510000Y-140970000D03*
X121920000Y-133350000D03*
%TO.N,GND Iso*%
X151130000Y-119380000D03*
%TO.N,J3-GND*%
X151130000Y-133350000D03*
%TO.N,GND Iso*%
X127192700Y-108509800D03*
X131663500Y-107479900D03*
%TO.N,Vcc Iso*%
X143947700Y-111006200D03*
X137126700Y-117486000D03*
%TO.N,Net-(C5-Pad2)*%
X138004700Y-105178200D03*
%TO.N,Net-(C6-Pad2)*%
X134300300Y-105002100D03*
%TO.N,Net-(C7-Pad2)*%
X126585700Y-105422900D03*
%TO.N,Net-(C8-Pad2)*%
X128286200Y-106499200D03*
%TO.N,Net-(R17-Pad1)*%
X125898700Y-112725300D03*
%TO.N,Net-(R16-Pad1)*%
X129486000Y-115210500D03*
%TO.N,Net-(C3-Pad1)*%
X143163400Y-105640900D03*
%TO.N,Net-(C4-Pad1)*%
X116414500Y-104320000D03*
%TO.N,Net-(C3-Pad2)*%
X140963700Y-103318800D03*
%TO.N,Net-(C4-Pad2)*%
X114416900Y-101044300D03*
%TD*%
D26*
%TO.N,Net-(C12-Pad1)*%
X132009000Y-130856900D02*
X132009000Y-129680600D01*
X138226800Y-135001000D02*
X135259000Y-132033200D01*
X135259000Y-130856900D02*
X135259000Y-129680600D01*
X142748000Y-135001000D02*
X138226800Y-135001000D01*
X133309000Y-130856900D02*
X133309000Y-129793200D01*
X133959000Y-129680600D02*
X135259000Y-129680600D01*
X128905000Y-141318700D02*
X129409000Y-140814700D01*
X133309000Y-129680600D02*
X132009000Y-129680600D01*
X133959000Y-129793200D02*
X133959000Y-129680600D01*
X129409000Y-130856900D02*
X129409000Y-129680600D01*
X129409000Y-140814700D02*
X129409000Y-130856900D01*
X133309000Y-129793200D02*
X133309000Y-129680600D01*
X128905000Y-142494000D02*
X128905000Y-141318700D01*
X133959000Y-129680600D02*
X133309000Y-129680600D01*
X129409000Y-129680600D02*
X132009000Y-129680600D01*
X133959000Y-130856900D02*
X133959000Y-129793200D01*
X135259000Y-130856900D02*
X135259000Y-132033200D01*
%TO.N,GND Iso*%
X138678500Y-120028500D02*
X137400500Y-121306500D01*
X149342600Y-107397200D02*
X147747100Y-108992700D01*
X113030000Y-109833500D02*
X110433900Y-107237400D01*
X112304800Y-99771300D02*
X117012800Y-99771300D01*
X136968300Y-107442000D02*
X134026000Y-107442000D01*
X117856000Y-101596600D02*
X118724700Y-102465300D01*
X135259000Y-123651100D02*
X135259000Y-124827400D01*
X146249200Y-111795400D02*
X145288000Y-111795400D01*
X150368600Y-111795400D02*
X146249200Y-111795400D01*
X138678500Y-117848600D02*
X138678500Y-120028500D01*
X132009000Y-123651100D02*
X132009000Y-124827400D01*
X110433900Y-107237400D02*
X110433900Y-101642200D01*
X126943100Y-102465300D02*
X131663500Y-107185700D01*
X118724700Y-102465300D02*
X126943100Y-102465300D01*
X129409000Y-123651100D02*
X129409000Y-124239200D01*
X146177000Y-101821500D02*
X149342600Y-104987100D01*
X151420000Y-110744000D02*
X150368600Y-111795400D01*
X145288000Y-121679000D02*
X145288000Y-111795400D01*
X132971800Y-112141900D02*
X138678500Y-117848600D01*
X117856000Y-100614500D02*
X117856000Y-101105000D01*
X124592800Y-123661000D02*
X124592800Y-122188300D01*
X126588100Y-120193000D02*
X126588100Y-115854100D01*
X135991700Y-122474800D02*
X137160000Y-121306500D01*
X131663500Y-107185700D02*
X131663500Y-107479900D01*
X110433900Y-101642200D02*
X112304800Y-99771300D01*
X132971800Y-107479900D02*
X132971800Y-112141900D01*
X127192700Y-108509800D02*
X126059200Y-108509800D01*
X133009700Y-107442000D02*
X134026000Y-107442000D01*
X129409000Y-124239200D02*
X129409000Y-124827400D01*
X135259000Y-122474800D02*
X135991700Y-122474800D01*
X132971800Y-107479900D02*
X133009700Y-107442000D01*
X117856000Y-101105000D02*
X117856000Y-101596600D01*
X133309000Y-123651100D02*
X133309000Y-124714800D01*
X137400500Y-121306500D02*
X137160000Y-121306500D01*
X133309000Y-124714800D02*
X133309000Y-124827400D01*
X145288000Y-111795400D02*
X141321700Y-111795400D01*
X132009000Y-124827400D02*
X129409000Y-124827400D01*
X124592800Y-122188300D02*
X126588100Y-120193000D01*
X125171000Y-124239200D02*
X124592800Y-123661000D01*
X126059200Y-108509800D02*
X126010500Y-108558500D01*
X149342600Y-104987100D02*
X149342600Y-107397200D01*
X135259000Y-123651100D02*
X135259000Y-122474800D01*
X147747100Y-108992700D02*
X147332500Y-108992700D01*
X133309000Y-124827400D02*
X135259000Y-124827400D01*
X126588100Y-115854100D02*
X125669000Y-114935000D01*
X117012800Y-99771300D02*
X117856000Y-100614500D01*
X129409000Y-124239200D02*
X125171000Y-124239200D01*
X147332500Y-108992700D02*
X146249200Y-110076000D01*
X131663500Y-107479900D02*
X132971800Y-107479900D01*
X141321700Y-111795400D02*
X136968300Y-107442000D01*
X133309000Y-124827400D02*
X132009000Y-124827400D01*
X146249200Y-110076000D02*
X146249200Y-111795400D01*
X146177000Y-101289000D02*
X146177000Y-101821500D01*
%TO.N,Vcc Iso*%
X132326400Y-109168600D02*
X132326400Y-117566600D01*
X132326400Y-117566600D02*
X131275000Y-118618000D01*
X118491000Y-119634000D02*
X116205000Y-121920000D01*
X131359000Y-123062900D02*
X131359000Y-123651100D01*
X138223200Y-118663100D02*
X137126700Y-117566600D01*
X129626000Y-107442000D02*
X130599800Y-107442000D01*
X136549100Y-120269000D02*
X137756700Y-120269000D01*
X118491000Y-111125000D02*
X118491000Y-119634000D01*
X130599800Y-107442000D02*
X132326400Y-109168600D01*
X123527500Y-109696700D02*
X119919300Y-109696700D01*
X145726700Y-110156800D02*
X145139500Y-110744000D01*
X123527600Y-109696700D02*
X125782300Y-107442000D01*
X125782300Y-107442000D02*
X126010500Y-107442000D01*
X137126700Y-117566600D02*
X137126700Y-117486000D01*
X117856000Y-106045000D02*
X117856000Y-107633400D01*
X137126700Y-117566600D02*
X132326400Y-117566600D01*
X137756700Y-120269000D02*
X138223200Y-119802500D01*
X131275000Y-122390800D02*
X131359000Y-122474800D01*
X117856000Y-107633400D02*
X119919300Y-109696700D01*
X145726700Y-106679300D02*
X145726700Y-110156800D01*
X124557300Y-110726500D02*
X123527600Y-109696700D01*
X131359000Y-123062900D02*
X131359000Y-122474800D01*
X144877300Y-111006200D02*
X145139500Y-110744000D01*
X138223200Y-119802500D02*
X138223200Y-118663100D01*
X119919300Y-109696700D02*
X118491000Y-111125000D01*
X124557300Y-117931800D02*
X124557300Y-110726500D01*
X126010500Y-107442000D02*
X129626000Y-107442000D01*
X125624500Y-118999000D02*
X124557300Y-117931800D01*
X126010500Y-107442000D02*
X126010500Y-106833500D01*
X146177000Y-106229000D02*
X145726700Y-106679300D01*
X123527600Y-109696700D02*
X123527500Y-109696700D01*
X134609000Y-123651100D02*
X134609000Y-122209100D01*
X131275000Y-118618000D02*
X131275000Y-122390800D01*
X134609000Y-122209100D02*
X136549100Y-120269000D01*
X143947700Y-111006200D02*
X144877300Y-111006200D01*
%TO.N,Net-(R15-Pad2)*%
X134026000Y-108442000D02*
X139183400Y-113599400D01*
X135510900Y-125283900D02*
X125566200Y-125283900D01*
X123445500Y-111252000D02*
X123594000Y-111400500D01*
X139183400Y-121611400D02*
X135510900Y-125283900D01*
X123594000Y-114935000D02*
X123594000Y-118954500D01*
X139183400Y-113599400D02*
X139183400Y-121611400D01*
X123594000Y-111400500D02*
X123594000Y-114935000D01*
X123594000Y-118954500D02*
X123549500Y-118999000D01*
X123549500Y-118999000D02*
X123467000Y-119081500D01*
X125566200Y-125283900D02*
X123467000Y-123184700D01*
X123467000Y-123184700D02*
X123467000Y-122936000D01*
X123467000Y-119081500D02*
X123467000Y-122936000D01*
%TO.N,Net-(C5-Pad2)*%
X138004700Y-105178200D02*
X138937300Y-105178200D01*
X136240900Y-106942000D02*
X134026000Y-106942000D01*
X138004700Y-105178200D02*
X136240900Y-106942000D01*
X138937300Y-105178200D02*
X139700000Y-104415500D01*
%TO.N,Net-(C6-Pad2)*%
X134300300Y-105002100D02*
X134026000Y-105276400D01*
X134026000Y-105276400D02*
X134026000Y-106442000D01*
%TO.N,Net-(C7-Pad2)*%
X112434100Y-103398900D02*
X124561700Y-103398900D01*
X128606900Y-105422900D02*
X126585700Y-105422900D01*
X124561700Y-103398900D02*
X126585700Y-105422900D01*
X129626000Y-106442000D02*
X128606900Y-105422900D01*
X111506000Y-104327000D02*
X112434100Y-103398900D01*
%TO.N,Net-(C8-Pad2)*%
X128729000Y-106942000D02*
X129626000Y-106942000D01*
X128286200Y-106499200D02*
X128729000Y-106942000D01*
%TO.N,Net-(R17-Pad1)*%
X130692900Y-115029500D02*
X130359700Y-115362700D01*
X125520500Y-112347100D02*
X125898700Y-112725300D01*
X128830500Y-107942000D02*
X129626000Y-107942000D01*
X125520500Y-111252000D02*
X125520500Y-112347100D01*
X130692900Y-108183500D02*
X130692900Y-115029500D01*
X130359700Y-120760300D02*
X130709000Y-121109600D01*
X130451400Y-107942000D02*
X130692900Y-108183500D01*
X129626000Y-107942000D02*
X130451400Y-107942000D01*
X130359700Y-115362700D02*
X130359700Y-120760300D01*
X130709000Y-121109600D02*
X130709000Y-123651100D01*
X125520500Y-111252000D02*
X128830500Y-107942000D01*
%TO.N,Net-(R16-Pad1)*%
X129147700Y-121563500D02*
X130059000Y-122474800D01*
X127775200Y-122936000D02*
X125542000Y-122936000D01*
X130059000Y-123651100D02*
X130059000Y-122474800D01*
X129486000Y-121225200D02*
X129147700Y-121563500D01*
X129147700Y-121563500D02*
X127775200Y-122936000D01*
X129486000Y-108582000D02*
X129486000Y-115210500D01*
X129486000Y-115210500D02*
X129486000Y-121225200D01*
X129626000Y-108442000D02*
X129486000Y-108582000D01*
%TO.N,Net-(C12-Pad2)*%
X133604000Y-137668000D02*
X133604000Y-134112000D01*
X134609000Y-130856900D02*
X134609000Y-132033200D01*
X134609000Y-133107000D02*
X134609000Y-132033200D01*
X131359000Y-130856900D02*
X131359000Y-132033200D01*
X133604000Y-134112000D02*
X134609000Y-133107000D01*
X133604000Y-138397700D02*
X133604000Y-137668000D01*
X136525000Y-141318700D02*
X133604000Y-138397700D01*
X131359000Y-132033200D02*
X131525200Y-132033200D01*
X136525000Y-142494000D02*
X136525000Y-141318700D01*
X131525200Y-132033200D02*
X133604000Y-134112000D01*
%TO.N,Net-(J3-Pad2)*%
X132630400Y-139964100D02*
X132630400Y-135213400D01*
X132630400Y-135213400D02*
X131529000Y-134112000D01*
X133985000Y-141318700D02*
X132630400Y-139964100D01*
X130709000Y-133292000D02*
X130709000Y-130856900D01*
X133985000Y-142494000D02*
X133985000Y-141318700D01*
X131529000Y-134112000D02*
X130709000Y-133292000D01*
%TO.N,Net-(J3-Pad3)*%
X131445000Y-142494000D02*
X131445000Y-141318700D01*
X130059000Y-136198000D02*
X130059000Y-130856900D01*
X131529000Y-137668000D02*
X130059000Y-136198000D01*
X131445000Y-141318700D02*
X131529000Y-141234700D01*
X131529000Y-141234700D02*
X131529000Y-137668000D01*
%TO.N,Net-(J1-Pad1)*%
X147320000Y-96520000D02*
X147320000Y-98095300D01*
X148717000Y-99492300D02*
X147320000Y-98095300D01*
X148717000Y-101289000D02*
X148717000Y-99492300D01*
%TO.N,Net-(J1-Pad2)*%
X149345000Y-110744000D02*
X149794200Y-110294800D01*
X149860000Y-93980000D02*
X152400000Y-91440000D01*
X144780000Y-93980000D02*
X149860000Y-93980000D01*
X144780000Y-96520000D02*
X144780000Y-98095300D01*
X149794200Y-110294800D02*
X149794200Y-104628700D01*
X148082000Y-100197400D02*
X145979900Y-98095300D01*
X149794200Y-104628700D02*
X148082000Y-102916500D01*
X144780000Y-96520000D02*
X144780000Y-94944700D01*
X144780000Y-94944700D02*
X144780000Y-93980000D01*
X144780000Y-93980000D02*
X142240000Y-91440000D01*
X147214500Y-110744000D02*
X149345000Y-110744000D01*
X145979900Y-98095300D02*
X144780000Y-98095300D01*
X148082000Y-102916500D02*
X148082000Y-100197400D01*
%TO.N,Net-(J2-Pad1)*%
X117670400Y-97905300D02*
X117138000Y-97905300D01*
X120396000Y-101105000D02*
X120396000Y-100630900D01*
X120396000Y-100630900D02*
X117670400Y-97905300D01*
X117138000Y-96330000D02*
X117138000Y-97905300D01*
%TO.N,Net-(J2-Pad2)*%
X113312700Y-96330000D02*
X112058000Y-95075300D01*
X113030000Y-111717000D02*
X113030000Y-111908500D01*
X113030000Y-111717000D02*
X115824000Y-111717000D01*
X109927800Y-108614800D02*
X113030000Y-111717000D01*
X115824000Y-111717000D02*
X116416000Y-111125000D01*
X109927800Y-99714900D02*
X109927800Y-108614800D01*
X112058000Y-91250000D02*
X112058000Y-95075300D01*
X114598000Y-96330000D02*
X113312700Y-96330000D01*
X113312700Y-96330000D02*
X109927800Y-99714900D01*
%TO.N,Net-(R21-Pad2)*%
X133350000Y-118618000D02*
X133959000Y-119227000D01*
X133959000Y-123651100D02*
X133959000Y-119231500D01*
X133959000Y-119231500D02*
X137160000Y-119231500D01*
X133959000Y-119227000D02*
X133959000Y-119231500D01*
%TO.N,Net-(C3-Pad1)*%
X148717000Y-105677000D02*
X148717000Y-106229000D01*
X147914300Y-104874300D02*
X148717000Y-105677000D01*
X143163400Y-105640900D02*
X143930000Y-104874300D01*
X142240000Y-104717500D02*
X143163400Y-105640900D01*
X143930000Y-104874300D02*
X147914300Y-104874300D01*
X142240000Y-104490500D02*
X142240000Y-104717500D01*
%TO.N,Net-(C4-Pad1)*%
X120396000Y-106045000D02*
X120396000Y-105510300D01*
X120396000Y-105510300D02*
X119205700Y-104320000D01*
X119205700Y-104320000D02*
X116414500Y-104320000D01*
X116414500Y-104320000D02*
X114046000Y-104320000D01*
%TO.N,Net-(C3-Pad2)*%
X141336700Y-103318800D02*
X140963700Y-103318800D01*
X139985400Y-102340500D02*
X140963700Y-103318800D01*
X143780500Y-102415500D02*
X144907000Y-101289000D01*
X142240000Y-102415500D02*
X141336700Y-103318800D01*
X142240000Y-102415500D02*
X143780500Y-102415500D01*
X139700000Y-102340500D02*
X139985400Y-102340500D01*
%TO.N,Net-(C4-Pad2)*%
X111513000Y-102245000D02*
X111506000Y-102252000D01*
X116586000Y-101105000D02*
X114477600Y-101105000D01*
X114046000Y-102245000D02*
X114046000Y-101415200D01*
X114477600Y-101105000D02*
X114416900Y-101044300D01*
X114046000Y-101415200D02*
X114416900Y-101044300D01*
X114046000Y-102245000D02*
X111513000Y-102245000D01*
%TD*%
%TA.AperFunction,Conductor*%
%TO.N,J3-GND*%
G36*
X128701293Y-129560002D02*
G01*
X128747786Y-129613658D01*
X128757890Y-129683932D01*
X128733998Y-129741565D01*
X128720785Y-129759195D01*
X128669655Y-129895584D01*
X128662900Y-129957766D01*
X128662900Y-131756034D01*
X128669655Y-131818216D01*
X128720785Y-131954605D01*
X128750327Y-131994023D01*
X128775174Y-132060527D01*
X128775500Y-132069586D01*
X128775500Y-140500105D01*
X128755498Y-140568226D01*
X128738596Y-140589200D01*
X128548914Y-140778881D01*
X128512742Y-140815053D01*
X128504463Y-140822587D01*
X128497982Y-140826700D01*
X128462431Y-140864558D01*
X128451357Y-140876351D01*
X128448602Y-140879193D01*
X128428865Y-140898930D01*
X128426385Y-140902127D01*
X128418682Y-140911147D01*
X128388414Y-140943379D01*
X128384595Y-140950325D01*
X128384593Y-140950328D01*
X128378652Y-140961134D01*
X128367801Y-140977653D01*
X128355386Y-140993659D01*
X128352241Y-141000928D01*
X128352238Y-141000932D01*
X128337826Y-141034237D01*
X128332609Y-141044887D01*
X128311305Y-141083640D01*
X128309334Y-141091315D01*
X128309334Y-141091316D01*
X128306267Y-141103262D01*
X128299863Y-141121966D01*
X128291819Y-141140555D01*
X128290580Y-141148378D01*
X128290577Y-141148388D01*
X128284901Y-141184224D01*
X128282495Y-141195844D01*
X128271500Y-141238669D01*
X128270115Y-141238313D01*
X128245158Y-141295541D01*
X128206711Y-141326439D01*
X128183470Y-141338538D01*
X128174736Y-141344038D01*
X128004433Y-141471905D01*
X127996726Y-141478748D01*
X127849590Y-141632717D01*
X127843104Y-141640727D01*
X127723098Y-141816649D01*
X127718000Y-141825623D01*
X127628338Y-142018783D01*
X127624775Y-142028470D01*
X127569389Y-142228183D01*
X127570912Y-142236607D01*
X127583292Y-142240000D01*
X128145500Y-142240000D01*
X128213621Y-142260002D01*
X128260114Y-142313658D01*
X128271500Y-142366000D01*
X128271500Y-142533856D01*
X128271997Y-142537788D01*
X128280640Y-142606208D01*
X128269334Y-142676299D01*
X128221928Y-142729150D01*
X128155634Y-142748000D01*
X127588225Y-142748000D01*
X127574694Y-142751973D01*
X127573257Y-142761966D01*
X127603565Y-142896446D01*
X127606645Y-142906275D01*
X127686770Y-143103603D01*
X127691413Y-143112794D01*
X127802694Y-143294388D01*
X127808777Y-143302699D01*
X127948213Y-143463667D01*
X127955580Y-143470883D01*
X128119434Y-143606916D01*
X128127881Y-143612831D01*
X128311756Y-143720279D01*
X128321042Y-143724729D01*
X128520001Y-143800703D01*
X128529899Y-143803579D01*
X128633250Y-143824606D01*
X128647299Y-143823410D01*
X128651000Y-143813065D01*
X128651000Y-143242778D01*
X128671002Y-143174657D01*
X128724658Y-143128164D01*
X128800610Y-143119010D01*
X128857120Y-143129790D01*
X128857122Y-143129790D01*
X128864906Y-143131275D01*
X129024650Y-143121225D01*
X129024865Y-143124643D01*
X129079986Y-143129981D01*
X129135734Y-143173943D01*
X129159000Y-143246892D01*
X129159000Y-143812517D01*
X129163064Y-143826359D01*
X129176478Y-143828393D01*
X129183184Y-143827534D01*
X129193262Y-143825392D01*
X129397255Y-143764191D01*
X129406842Y-143760433D01*
X129598095Y-143666739D01*
X129606945Y-143661464D01*
X129780328Y-143537792D01*
X129788200Y-143531139D01*
X129939052Y-143380812D01*
X129945730Y-143372965D01*
X130073022Y-143195819D01*
X130074279Y-143196722D01*
X130121373Y-143153362D01*
X130191311Y-143141145D01*
X130256751Y-143168678D01*
X130284579Y-143200511D01*
X130344987Y-143299088D01*
X130491250Y-143467938D01*
X130663126Y-143610632D01*
X130856000Y-143723338D01*
X131064692Y-143803030D01*
X131069760Y-143804061D01*
X131069763Y-143804062D01*
X131164862Y-143823410D01*
X131283597Y-143847567D01*
X131288772Y-143847757D01*
X131288774Y-143847757D01*
X131501673Y-143855564D01*
X131501677Y-143855564D01*
X131506837Y-143855753D01*
X131511957Y-143855097D01*
X131511959Y-143855097D01*
X131723288Y-143828025D01*
X131723289Y-143828025D01*
X131728416Y-143827368D01*
X131733366Y-143825883D01*
X131937429Y-143764661D01*
X131937434Y-143764659D01*
X131942384Y-143763174D01*
X132142994Y-143664896D01*
X132324860Y-143535173D01*
X132483096Y-143377489D01*
X132613453Y-143196077D01*
X132614776Y-143197028D01*
X132661645Y-143153857D01*
X132731580Y-143141625D01*
X132797026Y-143169144D01*
X132824875Y-143200994D01*
X132884987Y-143299088D01*
X133031250Y-143467938D01*
X133203126Y-143610632D01*
X133396000Y-143723338D01*
X133604692Y-143803030D01*
X133609760Y-143804061D01*
X133609763Y-143804062D01*
X133704862Y-143823410D01*
X133823597Y-143847567D01*
X133828772Y-143847757D01*
X133828774Y-143847757D01*
X134041673Y-143855564D01*
X134041677Y-143855564D01*
X134046837Y-143855753D01*
X134051957Y-143855097D01*
X134051959Y-143855097D01*
X134263288Y-143828025D01*
X134263289Y-143828025D01*
X134268416Y-143827368D01*
X134273366Y-143825883D01*
X134477429Y-143764661D01*
X134477434Y-143764659D01*
X134482384Y-143763174D01*
X134682994Y-143664896D01*
X134864860Y-143535173D01*
X134973091Y-143427319D01*
X135035462Y-143393404D01*
X135106268Y-143398592D01*
X135163030Y-143441238D01*
X135180012Y-143472341D01*
X135202055Y-143531139D01*
X135224385Y-143590705D01*
X135311739Y-143707261D01*
X135428295Y-143794615D01*
X135564684Y-143845745D01*
X135626866Y-143852500D01*
X137423134Y-143852500D01*
X137485316Y-143845745D01*
X137621705Y-143794615D01*
X137738261Y-143707261D01*
X137825615Y-143590705D01*
X137876745Y-143454316D01*
X137883500Y-143392134D01*
X137883500Y-141595866D01*
X137876745Y-141533684D01*
X137825615Y-141397295D01*
X137738261Y-141280739D01*
X137621705Y-141193385D01*
X137485316Y-141142255D01*
X137423134Y-141135500D01*
X137223164Y-141135500D01*
X137155043Y-141115498D01*
X137111840Y-141064622D01*
X137111019Y-141065108D01*
X137108190Y-141060324D01*
X137108188Y-141060321D01*
X137106052Y-141056709D01*
X137100707Y-141047672D01*
X137092012Y-141029924D01*
X137084552Y-141011083D01*
X137058564Y-140975313D01*
X137052048Y-140965393D01*
X137047829Y-140958259D01*
X147766587Y-140958259D01*
X147766759Y-140961654D01*
X147766759Y-140961655D01*
X147784284Y-141307601D01*
X147784992Y-141321574D01*
X147785529Y-141324929D01*
X147785530Y-141324935D01*
X147820225Y-141541540D01*
X147842527Y-141680777D01*
X147938519Y-142031664D01*
X148071845Y-142370133D01*
X148073428Y-142373148D01*
X148239362Y-142689206D01*
X148239367Y-142689214D01*
X148240946Y-142692222D01*
X148242840Y-142695040D01*
X148242845Y-142695049D01*
X148381668Y-142901639D01*
X148443843Y-142994165D01*
X148678163Y-143272428D01*
X148791921Y-143381137D01*
X148938702Y-143521405D01*
X148938709Y-143521411D01*
X148941165Y-143523758D01*
X149229771Y-143745214D01*
X149321827Y-143801185D01*
X149537692Y-143932433D01*
X149537697Y-143932436D01*
X149540607Y-143934205D01*
X149543695Y-143935651D01*
X149543694Y-143935651D01*
X149866952Y-144087077D01*
X149866962Y-144087081D01*
X149870036Y-144088521D01*
X149873254Y-144089623D01*
X149873257Y-144089624D01*
X150210981Y-144205253D01*
X150210989Y-144205255D01*
X150214204Y-144206356D01*
X150569084Y-144286332D01*
X150622123Y-144292375D01*
X150927144Y-144327128D01*
X150927152Y-144327128D01*
X150930527Y-144327513D01*
X150933931Y-144327531D01*
X150933934Y-144327531D01*
X151132058Y-144328568D01*
X151294303Y-144329418D01*
X151297689Y-144329068D01*
X151297691Y-144329068D01*
X151652765Y-144292375D01*
X151652774Y-144292374D01*
X151656157Y-144292024D01*
X151659490Y-144291310D01*
X151659493Y-144291309D01*
X151769895Y-144267641D01*
X152011856Y-144215768D01*
X152357239Y-144101544D01*
X152360323Y-144100138D01*
X152360332Y-144100135D01*
X152685171Y-143952096D01*
X152688265Y-143950686D01*
X152848151Y-143855753D01*
X152998128Y-143766704D01*
X152998132Y-143766701D01*
X153001063Y-143764961D01*
X153291973Y-143546539D01*
X153557592Y-143297977D01*
X153794813Y-143022182D01*
X153902983Y-142864794D01*
X153998931Y-142725190D01*
X153998936Y-142725182D01*
X154000861Y-142722381D01*
X154002473Y-142719387D01*
X154002478Y-142719379D01*
X154171703Y-142405092D01*
X154173325Y-142402080D01*
X154310188Y-142065027D01*
X154409850Y-141715164D01*
X154440871Y-141533684D01*
X154470571Y-141359930D01*
X154470571Y-141359928D01*
X154471143Y-141356583D01*
X154471911Y-141344038D01*
X154493241Y-140995278D01*
X154493351Y-140993481D01*
X154493406Y-140977653D01*
X154493427Y-140971820D01*
X154493427Y-140971808D01*
X154493433Y-140970000D01*
X154473760Y-140606751D01*
X154414972Y-140247752D01*
X154317756Y-139897202D01*
X154313331Y-139886081D01*
X154184508Y-139562365D01*
X154183249Y-139559201D01*
X154152690Y-139501485D01*
X154014624Y-139240723D01*
X154014620Y-139240716D01*
X154013025Y-139237704D01*
X154011118Y-139234888D01*
X154011113Y-139234879D01*
X153810985Y-138939292D01*
X153809075Y-138936471D01*
X153573785Y-138659027D01*
X153309908Y-138408617D01*
X153031662Y-138196650D01*
X153023237Y-138190232D01*
X153023235Y-138190230D01*
X153020530Y-138188170D01*
X153017618Y-138186413D01*
X153017613Y-138186410D01*
X152711951Y-138002023D01*
X152711945Y-138002020D01*
X152709036Y-138000265D01*
X152379071Y-137847100D01*
X152034494Y-137730467D01*
X152025234Y-137728414D01*
X151950485Y-137711843D01*
X151679336Y-137651731D01*
X151550217Y-137637476D01*
X151321133Y-137612184D01*
X151321128Y-137612184D01*
X151317752Y-137611811D01*
X151314353Y-137611805D01*
X151314352Y-137611805D01*
X151142762Y-137611506D01*
X150953972Y-137611176D01*
X150818831Y-137625618D01*
X150595634Y-137649471D01*
X150595628Y-137649472D01*
X150592250Y-137649833D01*
X150236820Y-137727330D01*
X149891838Y-137842759D01*
X149561340Y-137994771D01*
X149249192Y-138181588D01*
X148959046Y-138401023D01*
X148694296Y-138650511D01*
X148458040Y-138927132D01*
X148253040Y-139227651D01*
X148081694Y-139548552D01*
X148080419Y-139551724D01*
X148080417Y-139551728D01*
X148005296Y-139738600D01*
X147946009Y-139886081D01*
X147847569Y-140236290D01*
X147847007Y-140239647D01*
X147847007Y-140239648D01*
X147791462Y-140571576D01*
X147787528Y-140595082D01*
X147766587Y-140958259D01*
X137047829Y-140958259D01*
X137033580Y-140934165D01*
X137033578Y-140934162D01*
X137029542Y-140927338D01*
X137015221Y-140913017D01*
X137002380Y-140897983D01*
X137001031Y-140896126D01*
X136990472Y-140881593D01*
X136956395Y-140853402D01*
X136947616Y-140845412D01*
X134672231Y-138570026D01*
X134638205Y-138507714D01*
X134641733Y-138441264D01*
X134687132Y-138304389D01*
X134687132Y-138304387D01*
X134689297Y-138297861D01*
X134700000Y-138193400D01*
X134700000Y-137142600D01*
X134699663Y-137139350D01*
X134689738Y-137043692D01*
X134689737Y-137043688D01*
X134689026Y-137036834D01*
X134633050Y-136869054D01*
X134539978Y-136718652D01*
X134414803Y-136593695D01*
X134297383Y-136521316D01*
X134249891Y-136468545D01*
X134237500Y-136414057D01*
X134237500Y-135366046D01*
X134257502Y-135297925D01*
X134297197Y-135258902D01*
X134409620Y-135189332D01*
X134415848Y-135185478D01*
X134540805Y-135060303D01*
X134633615Y-134909738D01*
X134660064Y-134829995D01*
X134687132Y-134748389D01*
X134687132Y-134748387D01*
X134689297Y-134741861D01*
X134700000Y-134637400D01*
X134700000Y-133964094D01*
X134720002Y-133895973D01*
X134736905Y-133874999D01*
X135001247Y-133610657D01*
X135009537Y-133603113D01*
X135016018Y-133599000D01*
X135062659Y-133549332D01*
X135065413Y-133546491D01*
X135085135Y-133526769D01*
X135087612Y-133523576D01*
X135095317Y-133514555D01*
X135103278Y-133506077D01*
X135125586Y-133482321D01*
X135129407Y-133475371D01*
X135135346Y-133464568D01*
X135146202Y-133448041D01*
X135153757Y-133438302D01*
X135153758Y-133438300D01*
X135158614Y-133432040D01*
X135176174Y-133391460D01*
X135181391Y-133380812D01*
X135198875Y-133349009D01*
X135198876Y-133349007D01*
X135202695Y-133342060D01*
X135207733Y-133322437D01*
X135214137Y-133303734D01*
X135219033Y-133292420D01*
X135219033Y-133292419D01*
X135222181Y-133285145D01*
X135223420Y-133277322D01*
X135223423Y-133277312D01*
X135229099Y-133241476D01*
X135231505Y-133229856D01*
X135242500Y-133187031D01*
X135244562Y-133187560D01*
X135268537Y-133132588D01*
X135327597Y-133093186D01*
X135398583Y-133091969D01*
X135454257Y-133124361D01*
X137723148Y-135393253D01*
X137730688Y-135401539D01*
X137734800Y-135408018D01*
X137740577Y-135413443D01*
X137784451Y-135454643D01*
X137787293Y-135457398D01*
X137807030Y-135477135D01*
X137810227Y-135479615D01*
X137819247Y-135487318D01*
X137851479Y-135517586D01*
X137858425Y-135521405D01*
X137858428Y-135521407D01*
X137869234Y-135527348D01*
X137885753Y-135538199D01*
X137901759Y-135550614D01*
X137909028Y-135553759D01*
X137909032Y-135553762D01*
X137942337Y-135568174D01*
X137952987Y-135573391D01*
X137991740Y-135594695D01*
X137999415Y-135596666D01*
X137999416Y-135596666D01*
X138011362Y-135599733D01*
X138030067Y-135606137D01*
X138048655Y-135614181D01*
X138056478Y-135615420D01*
X138056488Y-135615423D01*
X138092324Y-135621099D01*
X138103944Y-135623505D01*
X138139089Y-135632528D01*
X138146770Y-135634500D01*
X138167024Y-135634500D01*
X138186734Y-135636051D01*
X138206743Y-135639220D01*
X138214635Y-135638474D01*
X138250761Y-135635059D01*
X138262619Y-135634500D01*
X141296434Y-135634500D01*
X141364555Y-135654502D01*
X141403867Y-135694665D01*
X141521241Y-135886202D01*
X141521245Y-135886208D01*
X141523824Y-135890416D01*
X141678031Y-136070969D01*
X141858584Y-136225176D01*
X141862792Y-136227755D01*
X141862798Y-136227759D01*
X142056817Y-136346654D01*
X142061037Y-136349240D01*
X142065607Y-136351133D01*
X142065611Y-136351135D01*
X142266874Y-136434500D01*
X142280406Y-136440105D01*
X142360609Y-136459360D01*
X142506476Y-136494380D01*
X142506482Y-136494381D01*
X142511289Y-136495535D01*
X142748000Y-136514165D01*
X142984711Y-136495535D01*
X142989518Y-136494381D01*
X142989524Y-136494380D01*
X143135391Y-136459360D01*
X143215594Y-136440105D01*
X143229126Y-136434500D01*
X143430389Y-136351135D01*
X143430393Y-136351133D01*
X143434963Y-136349240D01*
X143439183Y-136346654D01*
X143633202Y-136227759D01*
X143633208Y-136227755D01*
X143637416Y-136225176D01*
X143817969Y-136070969D01*
X143972176Y-135890416D01*
X143974755Y-135886208D01*
X143974759Y-135886202D01*
X144093654Y-135692183D01*
X144096240Y-135687963D01*
X144116944Y-135637980D01*
X144185211Y-135473167D01*
X144185212Y-135473165D01*
X144187105Y-135468594D01*
X144216736Y-135345172D01*
X144241380Y-135242524D01*
X144241381Y-135242518D01*
X144242535Y-135237711D01*
X144261165Y-135001000D01*
X144242535Y-134764289D01*
X144212840Y-134640598D01*
X144188260Y-134538218D01*
X144187105Y-134533406D01*
X144118385Y-134367500D01*
X144098135Y-134318611D01*
X144098133Y-134318607D01*
X144096240Y-134314037D01*
X144092133Y-134307335D01*
X143974759Y-134115798D01*
X143974755Y-134115792D01*
X143972176Y-134111584D01*
X143817969Y-133931031D01*
X143637416Y-133776824D01*
X143633208Y-133774245D01*
X143633202Y-133774241D01*
X143439183Y-133655346D01*
X143434963Y-133652760D01*
X143430393Y-133650867D01*
X143430389Y-133650865D01*
X143220167Y-133563789D01*
X143220165Y-133563788D01*
X143215594Y-133561895D01*
X143135391Y-133542640D01*
X142989524Y-133507620D01*
X142989518Y-133507619D01*
X142984711Y-133506465D01*
X142748000Y-133487835D01*
X142511289Y-133506465D01*
X142506482Y-133507619D01*
X142506476Y-133507620D01*
X142360609Y-133542640D01*
X142280406Y-133561895D01*
X142275835Y-133563788D01*
X142275833Y-133563789D01*
X142065611Y-133650865D01*
X142065607Y-133650867D01*
X142061037Y-133652760D01*
X142056817Y-133655346D01*
X141862798Y-133774241D01*
X141862792Y-133774245D01*
X141858584Y-133776824D01*
X141678031Y-133931031D01*
X141523824Y-134111584D01*
X141521245Y-134115792D01*
X141521241Y-134115798D01*
X141403867Y-134307335D01*
X141351219Y-134354966D01*
X141296434Y-134367500D01*
X138541394Y-134367500D01*
X138473273Y-134347498D01*
X138452299Y-134330595D01*
X136035308Y-131913603D01*
X136001282Y-131851291D01*
X135999140Y-131810901D01*
X136004731Y-131759433D01*
X136004731Y-131759429D01*
X136005100Y-131756034D01*
X136005100Y-129957766D01*
X135998345Y-129895584D01*
X135947215Y-129759195D01*
X135941835Y-129752016D01*
X135941833Y-129752013D01*
X135934002Y-129741564D01*
X135909155Y-129675058D01*
X135924208Y-129605675D01*
X135974383Y-129555446D01*
X136034829Y-129540000D01*
X155194500Y-129540000D01*
X155262621Y-129560002D01*
X155309114Y-129613658D01*
X155320500Y-129666000D01*
X155320500Y-144653500D01*
X155300498Y-144721621D01*
X155246842Y-144768114D01*
X155194500Y-144779500D01*
X109473500Y-144779500D01*
X109405379Y-144759498D01*
X109358886Y-144705842D01*
X109347500Y-144653500D01*
X109347500Y-140958259D01*
X109666587Y-140958259D01*
X109666759Y-140961654D01*
X109666759Y-140961655D01*
X109684284Y-141307601D01*
X109684992Y-141321574D01*
X109685529Y-141324929D01*
X109685530Y-141324935D01*
X109720225Y-141541540D01*
X109742527Y-141680777D01*
X109838519Y-142031664D01*
X109971845Y-142370133D01*
X109973428Y-142373148D01*
X110139362Y-142689206D01*
X110139367Y-142689214D01*
X110140946Y-142692222D01*
X110142840Y-142695040D01*
X110142845Y-142695049D01*
X110281668Y-142901639D01*
X110343843Y-142994165D01*
X110578163Y-143272428D01*
X110691921Y-143381137D01*
X110838702Y-143521405D01*
X110838709Y-143521411D01*
X110841165Y-143523758D01*
X111129771Y-143745214D01*
X111221827Y-143801185D01*
X111437692Y-143932433D01*
X111437697Y-143932436D01*
X111440607Y-143934205D01*
X111443695Y-143935651D01*
X111443694Y-143935651D01*
X111766952Y-144087077D01*
X111766962Y-144087081D01*
X111770036Y-144088521D01*
X111773254Y-144089623D01*
X111773257Y-144089624D01*
X112110981Y-144205253D01*
X112110989Y-144205255D01*
X112114204Y-144206356D01*
X112469084Y-144286332D01*
X112522123Y-144292375D01*
X112827144Y-144327128D01*
X112827152Y-144327128D01*
X112830527Y-144327513D01*
X112833931Y-144327531D01*
X112833934Y-144327531D01*
X113032058Y-144328568D01*
X113194303Y-144329418D01*
X113197689Y-144329068D01*
X113197691Y-144329068D01*
X113552765Y-144292375D01*
X113552774Y-144292374D01*
X113556157Y-144292024D01*
X113559490Y-144291310D01*
X113559493Y-144291309D01*
X113669895Y-144267641D01*
X113911856Y-144215768D01*
X114257239Y-144101544D01*
X114260323Y-144100138D01*
X114260332Y-144100135D01*
X114585171Y-143952096D01*
X114588265Y-143950686D01*
X114748151Y-143855753D01*
X114898128Y-143766704D01*
X114898132Y-143766701D01*
X114901063Y-143764961D01*
X115191973Y-143546539D01*
X115457592Y-143297977D01*
X115694813Y-143022182D01*
X115802983Y-142864794D01*
X115898931Y-142725190D01*
X115898936Y-142725182D01*
X115900861Y-142722381D01*
X115902473Y-142719387D01*
X115902478Y-142719379D01*
X116071703Y-142405092D01*
X116073325Y-142402080D01*
X116210188Y-142065027D01*
X116309850Y-141715164D01*
X116340871Y-141533684D01*
X116370571Y-141359930D01*
X116370571Y-141359928D01*
X116371143Y-141356583D01*
X116371911Y-141344038D01*
X116393241Y-140995278D01*
X116393351Y-140993481D01*
X116393406Y-140977653D01*
X116393427Y-140971820D01*
X116393427Y-140971808D01*
X116393433Y-140970000D01*
X116373760Y-140606751D01*
X116314972Y-140247752D01*
X116217756Y-139897202D01*
X116213331Y-139886081D01*
X116084508Y-139562365D01*
X116083249Y-139559201D01*
X116052690Y-139501485D01*
X115914624Y-139240723D01*
X115914620Y-139240716D01*
X115913025Y-139237704D01*
X115911118Y-139234888D01*
X115911113Y-139234879D01*
X115710985Y-138939292D01*
X115709075Y-138936471D01*
X115473785Y-138659027D01*
X115209908Y-138408617D01*
X114931662Y-138196650D01*
X114923237Y-138190232D01*
X114923235Y-138190230D01*
X114920530Y-138188170D01*
X114917618Y-138186413D01*
X114917613Y-138186410D01*
X114611951Y-138002023D01*
X114611945Y-138002020D01*
X114609036Y-138000265D01*
X114279071Y-137847100D01*
X113934494Y-137730467D01*
X113925234Y-137728414D01*
X113850485Y-137711843D01*
X113579336Y-137651731D01*
X113450217Y-137637476D01*
X113221133Y-137612184D01*
X113221128Y-137612184D01*
X113217752Y-137611811D01*
X113214353Y-137611805D01*
X113214352Y-137611805D01*
X113042762Y-137611506D01*
X112853972Y-137611176D01*
X112718831Y-137625618D01*
X112495634Y-137649471D01*
X112495628Y-137649472D01*
X112492250Y-137649833D01*
X112136820Y-137727330D01*
X111791838Y-137842759D01*
X111461340Y-137994771D01*
X111149192Y-138181588D01*
X110859046Y-138401023D01*
X110594296Y-138650511D01*
X110358040Y-138927132D01*
X110153040Y-139227651D01*
X109981694Y-139548552D01*
X109980419Y-139551724D01*
X109980417Y-139551728D01*
X109905296Y-139738600D01*
X109846009Y-139886081D01*
X109747569Y-140236290D01*
X109747007Y-140239647D01*
X109747007Y-140239648D01*
X109691462Y-140571576D01*
X109687528Y-140595082D01*
X109666587Y-140958259D01*
X109347500Y-140958259D01*
X109347500Y-129666000D01*
X109367502Y-129597879D01*
X109421158Y-129551386D01*
X109473500Y-129540000D01*
X128633172Y-129540000D01*
X128701293Y-129560002D01*
G37*
%TD.AperFunction*%
%TD*%
%TA.AperFunction,NonConductor*%
G36*
X133019865Y-132216031D02*
G01*
X133019874Y-132216031D01*
X133023266Y-132216400D01*
X133594734Y-132216400D01*
X133598126Y-132216031D01*
X133598135Y-132216031D01*
X133620393Y-132213613D01*
X133647607Y-132213613D01*
X133669865Y-132216031D01*
X133669874Y-132216031D01*
X133673266Y-132216400D01*
X133849500Y-132216400D01*
X133917621Y-132236402D01*
X133964114Y-132290058D01*
X133975500Y-132342400D01*
X133975500Y-132752500D01*
X133955498Y-132820621D01*
X133901842Y-132867114D01*
X133849500Y-132878500D01*
X133318595Y-132878500D01*
X133250474Y-132858498D01*
X133229499Y-132841595D01*
X132819400Y-132431495D01*
X132785375Y-132369183D01*
X132790440Y-132298367D01*
X132832987Y-132241532D01*
X132899507Y-132216721D01*
X132908496Y-132216400D01*
X132944734Y-132216400D01*
X132948126Y-132216031D01*
X132948135Y-132216031D01*
X132970393Y-132213613D01*
X132997607Y-132213613D01*
X133019865Y-132216031D01*
G37*
%TD.AperFunction*%
%TA.AperFunction,NonConductor*%
G36*
X130867403Y-135278277D02*
G01*
X130868762Y-135279115D01*
X130895170Y-135287874D01*
X131030111Y-135332632D01*
X131030113Y-135332632D01*
X131036639Y-135334797D01*
X131043475Y-135335497D01*
X131043478Y-135335498D01*
X131086531Y-135339909D01*
X131141100Y-135345500D01*
X131814405Y-135345500D01*
X131882526Y-135365502D01*
X131903500Y-135382405D01*
X131959995Y-135438900D01*
X131994021Y-135501212D01*
X131996900Y-135527995D01*
X131996900Y-136308500D01*
X131976898Y-136376621D01*
X131923242Y-136423114D01*
X131870900Y-136434500D01*
X131243595Y-136434500D01*
X131175474Y-136414498D01*
X131154500Y-136397595D01*
X130729405Y-135972500D01*
X130695379Y-135910188D01*
X130692500Y-135883405D01*
X130692500Y-135393768D01*
X130712502Y-135325647D01*
X130766158Y-135279154D01*
X130836432Y-135269050D01*
X130867403Y-135278277D01*
G37*
%TD.AperFunction*%
%TA.AperFunction,NonConductor*%
G36*
X133472412Y-139162470D02*
G01*
X133478995Y-139168599D01*
X135368679Y-141058284D01*
X135402705Y-141120596D01*
X135397640Y-141191412D01*
X135355149Y-141248205D01*
X135311739Y-141280739D01*
X135224385Y-141397295D01*
X135221233Y-141405703D01*
X135179919Y-141515907D01*
X135137277Y-141572671D01*
X135070716Y-141597371D01*
X135001367Y-141582163D01*
X134968743Y-141556476D01*
X134918151Y-141500875D01*
X134918142Y-141500866D01*
X134914670Y-141497051D01*
X134910619Y-141493852D01*
X134910615Y-141493848D01*
X134743414Y-141361800D01*
X134743410Y-141361798D01*
X134739359Y-141358598D01*
X134729563Y-141353190D01*
X134680753Y-141326246D01*
X134630782Y-141275813D01*
X134619562Y-141234184D01*
X134617163Y-141234564D01*
X134615923Y-141226736D01*
X134615674Y-141218811D01*
X134613462Y-141211197D01*
X134613461Y-141211192D01*
X134610023Y-141199359D01*
X134606012Y-141179995D01*
X134604467Y-141167764D01*
X134603474Y-141159903D01*
X134600557Y-141152536D01*
X134600556Y-141152531D01*
X134587198Y-141118792D01*
X134583354Y-141107565D01*
X134580916Y-141099175D01*
X134571018Y-141065107D01*
X134560707Y-141047672D01*
X134552012Y-141029924D01*
X134544552Y-141011083D01*
X134518564Y-140975313D01*
X134512048Y-140965393D01*
X134493580Y-140934165D01*
X134493578Y-140934162D01*
X134489542Y-140927338D01*
X134475221Y-140913017D01*
X134462380Y-140897983D01*
X134461031Y-140896126D01*
X134450472Y-140881593D01*
X134416395Y-140853402D01*
X134407616Y-140845412D01*
X133300805Y-139738600D01*
X133266779Y-139676288D01*
X133263900Y-139649505D01*
X133263900Y-139257694D01*
X133283902Y-139189573D01*
X133337558Y-139143080D01*
X133407832Y-139132976D01*
X133472412Y-139162470D01*
G37*
%TD.AperFunction*%
%TA.AperFunction,NonConductor*%
G36*
X132371012Y-140601070D02*
G01*
X132377595Y-140607199D01*
X133073529Y-141303133D01*
X133107555Y-141365445D01*
X133102490Y-141436260D01*
X133075529Y-141479277D01*
X132925629Y-141636138D01*
X132818201Y-141793621D01*
X132763293Y-141838621D01*
X132692768Y-141846792D01*
X132629021Y-141815538D01*
X132608324Y-141791054D01*
X132527822Y-141666617D01*
X132527820Y-141666614D01*
X132525014Y-141662277D01*
X132374670Y-141497051D01*
X132370619Y-141493852D01*
X132370615Y-141493848D01*
X132213685Y-141369912D01*
X132172622Y-141311995D01*
X132165839Y-141267072D01*
X132165980Y-141262586D01*
X132167220Y-141254757D01*
X132163059Y-141210738D01*
X132162500Y-141198881D01*
X132162500Y-140696294D01*
X132182502Y-140628173D01*
X132236158Y-140581680D01*
X132306432Y-140571576D01*
X132371012Y-140601070D01*
G37*
%TD.AperFunction*%
%TA.AperFunction,NonConductor*%
G36*
X130251012Y-137286372D02*
G01*
X130257595Y-137292501D01*
X130396095Y-137431001D01*
X130430121Y-137493313D01*
X130433000Y-137520096D01*
X130433000Y-138193400D01*
X130443974Y-138299166D01*
X130499950Y-138466946D01*
X130593022Y-138617348D01*
X130718197Y-138742305D01*
X130835617Y-138814684D01*
X130883109Y-138867455D01*
X130895500Y-138921943D01*
X130895500Y-140967302D01*
X130885137Y-141017342D01*
X130877826Y-141034237D01*
X130872609Y-141044887D01*
X130851305Y-141083640D01*
X130849334Y-141091315D01*
X130849334Y-141091316D01*
X130846267Y-141103262D01*
X130839863Y-141121966D01*
X130831819Y-141140555D01*
X130830580Y-141148378D01*
X130830577Y-141148388D01*
X130824901Y-141184224D01*
X130822495Y-141195844D01*
X130811500Y-141238669D01*
X130809947Y-141238270D01*
X130785234Y-141294940D01*
X130746789Y-141325836D01*
X130718607Y-141340507D01*
X130701715Y-141353190D01*
X130591076Y-141436260D01*
X130539965Y-141474635D01*
X130514541Y-141501240D01*
X130446280Y-141572671D01*
X130385629Y-141636138D01*
X130382720Y-141640403D01*
X130382714Y-141640411D01*
X130370404Y-141658457D01*
X130278204Y-141793618D01*
X130277898Y-141794066D01*
X130222987Y-141839069D01*
X130152462Y-141847240D01*
X130088715Y-141815986D01*
X130068018Y-141791502D01*
X129987426Y-141666926D01*
X129981136Y-141658757D01*
X129837806Y-141501240D01*
X129830270Y-141494213D01*
X129828542Y-141492848D01*
X129828026Y-141492120D01*
X129826488Y-141490686D01*
X129826784Y-141490368D01*
X129787482Y-141434929D01*
X129784254Y-141364006D01*
X129816978Y-141307601D01*
X129816018Y-141306700D01*
X129862658Y-141257033D01*
X129865413Y-141254191D01*
X129885135Y-141234469D01*
X129887612Y-141231276D01*
X129895317Y-141222255D01*
X129898551Y-141218811D01*
X129925586Y-141190021D01*
X129931098Y-141179995D01*
X129935346Y-141172268D01*
X129946202Y-141155741D01*
X129953757Y-141146002D01*
X129953758Y-141146000D01*
X129958614Y-141139740D01*
X129976174Y-141099160D01*
X129981391Y-141088512D01*
X129998875Y-141056709D01*
X129998876Y-141056707D01*
X130002695Y-141049760D01*
X130007733Y-141030137D01*
X130014137Y-141011434D01*
X130019033Y-141000120D01*
X130019033Y-141000119D01*
X130022181Y-140992845D01*
X130023420Y-140985022D01*
X130023423Y-140985012D01*
X130029099Y-140949176D01*
X130031505Y-140937556D01*
X130040528Y-140902411D01*
X130040528Y-140902410D01*
X130042500Y-140894730D01*
X130042500Y-140874476D01*
X130044051Y-140854765D01*
X130045980Y-140842586D01*
X130047220Y-140834757D01*
X130043059Y-140790738D01*
X130042500Y-140778881D01*
X130042500Y-137381596D01*
X130062502Y-137313475D01*
X130116158Y-137266982D01*
X130186432Y-137256878D01*
X130251012Y-137286372D01*
G37*
%TD.AperFunction*%
%TA.AperFunction,Conductor*%
%TO.N,GND Iso*%
G36*
X109556012Y-109139370D02*
G01*
X109562595Y-109145499D01*
X111767268Y-111350172D01*
X111801294Y-111412484D01*
X111803517Y-111452109D01*
X111797156Y-111514197D01*
X111796500Y-111520600D01*
X111796500Y-112296400D01*
X111796837Y-112299646D01*
X111796837Y-112299650D01*
X111805016Y-112378473D01*
X111807474Y-112402166D01*
X111809655Y-112408702D01*
X111809655Y-112408704D01*
X111831706Y-112474797D01*
X111863450Y-112569946D01*
X111956522Y-112720348D01*
X112081697Y-112845305D01*
X112087927Y-112849145D01*
X112087928Y-112849146D01*
X112225090Y-112933694D01*
X112232262Y-112938115D01*
X112312005Y-112964564D01*
X112393611Y-112991632D01*
X112393613Y-112991632D01*
X112400139Y-112993797D01*
X112406975Y-112994497D01*
X112406978Y-112994498D01*
X112450031Y-112998909D01*
X112504600Y-113004500D01*
X113555400Y-113004500D01*
X113558646Y-113004163D01*
X113558650Y-113004163D01*
X113654308Y-112994238D01*
X113654312Y-112994237D01*
X113661166Y-112993526D01*
X113667702Y-112991345D01*
X113667704Y-112991345D01*
X113799806Y-112947272D01*
X113828946Y-112937550D01*
X113979348Y-112844478D01*
X114104305Y-112719303D01*
X114197115Y-112568738D01*
X114240866Y-112436833D01*
X114281297Y-112378473D01*
X114346861Y-112351236D01*
X114360459Y-112350500D01*
X115745233Y-112350500D01*
X115756416Y-112351027D01*
X115763909Y-112352702D01*
X115771835Y-112352453D01*
X115771836Y-112352453D01*
X115831986Y-112350562D01*
X115835945Y-112350500D01*
X115863856Y-112350500D01*
X115867791Y-112350003D01*
X115867856Y-112349995D01*
X115879693Y-112349062D01*
X115905919Y-112348238D01*
X115914352Y-112347973D01*
X115931152Y-112348567D01*
X115990364Y-112354634D01*
X116028100Y-112358500D01*
X116803900Y-112358500D01*
X116807146Y-112358163D01*
X116807150Y-112358163D01*
X116902808Y-112348238D01*
X116902812Y-112348237D01*
X116909666Y-112347526D01*
X116916202Y-112345345D01*
X116916204Y-112345345D01*
X117070498Y-112293868D01*
X117077446Y-112291550D01*
X117227848Y-112198478D01*
X117352805Y-112073303D01*
X117355406Y-112069084D01*
X117412530Y-112028583D01*
X117483453Y-112025351D01*
X117544865Y-112060976D01*
X117551422Y-112068530D01*
X117555022Y-112074348D01*
X117680197Y-112199305D01*
X117797617Y-112271684D01*
X117845109Y-112324455D01*
X117857500Y-112378943D01*
X117857500Y-119319405D01*
X117837498Y-119387526D01*
X117820595Y-119408500D01*
X116783459Y-120445636D01*
X116721147Y-120479662D01*
X116664951Y-120479060D01*
X116580187Y-120458710D01*
X116446524Y-120426620D01*
X116446518Y-120426619D01*
X116441711Y-120425465D01*
X116205000Y-120406835D01*
X115968289Y-120425465D01*
X115963482Y-120426619D01*
X115963476Y-120426620D01*
X115829813Y-120458710D01*
X115737406Y-120480895D01*
X115732835Y-120482788D01*
X115732833Y-120482789D01*
X115522611Y-120569865D01*
X115522607Y-120569867D01*
X115518037Y-120571760D01*
X115513817Y-120574346D01*
X115319798Y-120693241D01*
X115319792Y-120693245D01*
X115315584Y-120695824D01*
X115135031Y-120850031D01*
X114980824Y-121030584D01*
X114978245Y-121034792D01*
X114978241Y-121034798D01*
X114911485Y-121143734D01*
X114856760Y-121233037D01*
X114854867Y-121237607D01*
X114854865Y-121237611D01*
X114767789Y-121447833D01*
X114765895Y-121452406D01*
X114753456Y-121504217D01*
X114712207Y-121676035D01*
X114710465Y-121683289D01*
X114691835Y-121920000D01*
X114710465Y-122156711D01*
X114711619Y-122161518D01*
X114711620Y-122161524D01*
X114742969Y-122292100D01*
X114765895Y-122387594D01*
X114767788Y-122392165D01*
X114767789Y-122392167D01*
X114834572Y-122553395D01*
X114856760Y-122606963D01*
X114859346Y-122611183D01*
X114978241Y-122805202D01*
X114978245Y-122805208D01*
X114980824Y-122809416D01*
X115135031Y-122989969D01*
X115315584Y-123144176D01*
X115319792Y-123146755D01*
X115319798Y-123146759D01*
X115513817Y-123265654D01*
X115518037Y-123268240D01*
X115522607Y-123270133D01*
X115522611Y-123270135D01*
X115732833Y-123357211D01*
X115737406Y-123359105D01*
X115817609Y-123378360D01*
X115963476Y-123413380D01*
X115963482Y-123413381D01*
X115968289Y-123414535D01*
X116205000Y-123433165D01*
X116441711Y-123414535D01*
X116446518Y-123413381D01*
X116446524Y-123413380D01*
X116592391Y-123378360D01*
X116672594Y-123359105D01*
X116677167Y-123357211D01*
X116887389Y-123270135D01*
X116887393Y-123270133D01*
X116891963Y-123268240D01*
X116896183Y-123265654D01*
X117090202Y-123146759D01*
X117090208Y-123146755D01*
X117094416Y-123144176D01*
X117274969Y-122989969D01*
X117429176Y-122809416D01*
X117431755Y-122805208D01*
X117431759Y-122805202D01*
X117550654Y-122611183D01*
X117553240Y-122606963D01*
X117575429Y-122553395D01*
X117642211Y-122392167D01*
X117642212Y-122392165D01*
X117644105Y-122387594D01*
X117667031Y-122292100D01*
X117698380Y-122161524D01*
X117698381Y-122161518D01*
X117699535Y-122156711D01*
X117718165Y-121920000D01*
X117699535Y-121683289D01*
X117697794Y-121676035D01*
X117645940Y-121460049D01*
X117649487Y-121389141D01*
X117679364Y-121341540D01*
X118883247Y-120137657D01*
X118891537Y-120130113D01*
X118898018Y-120126000D01*
X118944659Y-120076332D01*
X118947413Y-120073491D01*
X118967134Y-120053770D01*
X118969612Y-120050575D01*
X118977318Y-120041553D01*
X119002158Y-120015101D01*
X119007586Y-120009321D01*
X119017346Y-119991568D01*
X119028199Y-119975045D01*
X119035753Y-119965306D01*
X119040613Y-119959041D01*
X119058176Y-119918457D01*
X119063383Y-119907827D01*
X119084695Y-119869060D01*
X119086666Y-119861383D01*
X119086668Y-119861378D01*
X119089732Y-119849442D01*
X119096138Y-119830730D01*
X119101033Y-119819419D01*
X119104181Y-119812145D01*
X119105421Y-119804317D01*
X119105423Y-119804310D01*
X119111099Y-119768476D01*
X119113505Y-119756856D01*
X119122528Y-119721711D01*
X119122528Y-119721710D01*
X119124500Y-119714030D01*
X119124500Y-119693776D01*
X119126051Y-119674065D01*
X119127980Y-119661886D01*
X119129220Y-119654057D01*
X119125059Y-119610038D01*
X119124500Y-119598181D01*
X119124500Y-112379046D01*
X119144502Y-112310925D01*
X119184197Y-112271902D01*
X119296620Y-112202332D01*
X119302848Y-112198478D01*
X119427805Y-112073303D01*
X119487168Y-111976999D01*
X119516775Y-111928968D01*
X119516776Y-111928966D01*
X119520615Y-111922738D01*
X119567743Y-111780650D01*
X119574132Y-111761389D01*
X119574132Y-111761387D01*
X119576297Y-111754861D01*
X119587000Y-111650400D01*
X119587000Y-110977094D01*
X119607002Y-110908973D01*
X119623905Y-110887999D01*
X120144799Y-110367105D01*
X120207111Y-110333079D01*
X120233894Y-110330200D01*
X122282492Y-110330200D01*
X122350613Y-110350202D01*
X122397106Y-110403858D01*
X122407210Y-110474132D01*
X122402085Y-110495867D01*
X122367679Y-110599600D01*
X122360203Y-110622139D01*
X122349500Y-110726600D01*
X122349500Y-111777400D01*
X122349837Y-111780646D01*
X122349837Y-111780650D01*
X122359348Y-111872309D01*
X122360474Y-111883166D01*
X122362655Y-111889702D01*
X122362655Y-111889704D01*
X122388445Y-111967005D01*
X122416450Y-112050946D01*
X122509522Y-112201348D01*
X122634697Y-112326305D01*
X122640927Y-112330145D01*
X122640928Y-112330146D01*
X122757766Y-112402166D01*
X122785262Y-112419115D01*
X122874168Y-112448604D01*
X122932527Y-112489033D01*
X122959764Y-112554597D01*
X122960500Y-112568196D01*
X122960500Y-113680954D01*
X122940498Y-113749075D01*
X122900803Y-113788098D01*
X122782152Y-113861522D01*
X122657195Y-113986697D01*
X122564385Y-114137262D01*
X122508703Y-114305139D01*
X122498000Y-114409600D01*
X122498000Y-115460400D01*
X122498337Y-115463646D01*
X122498337Y-115463650D01*
X122508118Y-115557914D01*
X122508974Y-115566166D01*
X122511155Y-115572702D01*
X122511155Y-115572704D01*
X122528638Y-115625105D01*
X122564950Y-115733946D01*
X122658022Y-115884348D01*
X122783197Y-116009305D01*
X122900617Y-116081684D01*
X122948109Y-116134455D01*
X122960500Y-116188943D01*
X122960500Y-117719334D01*
X122940498Y-117787455D01*
X122889706Y-117831899D01*
X122888054Y-117832450D01*
X122737652Y-117925522D01*
X122612695Y-118050697D01*
X122519885Y-118201262D01*
X122517581Y-118208209D01*
X122472531Y-118344032D01*
X122464203Y-118369139D01*
X122453500Y-118473600D01*
X122453500Y-119524400D01*
X122453837Y-119527646D01*
X122453837Y-119527650D01*
X122462386Y-119610039D01*
X122464474Y-119630166D01*
X122466655Y-119636702D01*
X122466655Y-119636704D01*
X122483480Y-119687134D01*
X122520450Y-119797946D01*
X122613522Y-119948348D01*
X122738697Y-120073305D01*
X122744928Y-120077146D01*
X122744931Y-120077148D01*
X122773617Y-120094831D01*
X122821110Y-120147604D01*
X122833500Y-120202090D01*
X122833500Y-121681954D01*
X122813498Y-121750075D01*
X122773803Y-121789098D01*
X122655152Y-121862522D01*
X122530195Y-121987697D01*
X122526355Y-121993927D01*
X122526354Y-121993928D01*
X122489490Y-122053733D01*
X122437385Y-122138262D01*
X122421547Y-122186013D01*
X122386360Y-122292100D01*
X122381703Y-122306139D01*
X122381003Y-122312975D01*
X122381002Y-122312978D01*
X122380692Y-122316003D01*
X122371000Y-122410600D01*
X122371000Y-123461400D01*
X122371337Y-123464646D01*
X122371337Y-123464650D01*
X122381050Y-123558256D01*
X122381974Y-123567166D01*
X122437950Y-123734946D01*
X122531022Y-123885348D01*
X122656197Y-124010305D01*
X122662427Y-124014145D01*
X122662428Y-124014146D01*
X122799590Y-124098694D01*
X122806762Y-124103115D01*
X122886505Y-124129564D01*
X122968111Y-124156632D01*
X122968113Y-124156632D01*
X122974639Y-124158797D01*
X122981475Y-124159497D01*
X122981478Y-124159498D01*
X123024531Y-124163909D01*
X123079100Y-124169500D01*
X123503706Y-124169500D01*
X123571827Y-124189502D01*
X123592801Y-124206405D01*
X123631301Y-124244905D01*
X123665327Y-124307217D01*
X123660262Y-124378032D01*
X123617715Y-124434868D01*
X123551195Y-124459679D01*
X123542206Y-124460000D01*
X109473500Y-124460000D01*
X109405379Y-124439998D01*
X109358886Y-124386342D01*
X109347500Y-124334000D01*
X109347500Y-109234594D01*
X109367502Y-109166473D01*
X109421158Y-109119980D01*
X109491432Y-109109876D01*
X109556012Y-109139370D01*
G37*
%TD.AperFunction*%
%TA.AperFunction,Conductor*%
G36*
X155262621Y-83713502D02*
G01*
X155309114Y-83767158D01*
X155320500Y-83819500D01*
X155320500Y-124334000D01*
X155300498Y-124402121D01*
X155246842Y-124448614D01*
X155194500Y-124460000D01*
X137534894Y-124460000D01*
X137466773Y-124439998D01*
X137420280Y-124386342D01*
X137410176Y-124316068D01*
X137439670Y-124251488D01*
X137445799Y-124244905D01*
X138779034Y-122911670D01*
X144420160Y-122911670D01*
X144425887Y-122919320D01*
X144597042Y-123024205D01*
X144605837Y-123028687D01*
X144815988Y-123115734D01*
X144825373Y-123118783D01*
X145046554Y-123171885D01*
X145056301Y-123173428D01*
X145283070Y-123191275D01*
X145292930Y-123191275D01*
X145519699Y-123173428D01*
X145529446Y-123171885D01*
X145750627Y-123118783D01*
X145760012Y-123115734D01*
X145970163Y-123028687D01*
X145978958Y-123024205D01*
X146146445Y-122921568D01*
X146155907Y-122911110D01*
X146152124Y-122902334D01*
X145300812Y-122051022D01*
X145286868Y-122043408D01*
X145285035Y-122043539D01*
X145278420Y-122047790D01*
X144426920Y-122899290D01*
X144420160Y-122911670D01*
X138779034Y-122911670D01*
X139575647Y-122115057D01*
X139583937Y-122107513D01*
X139590418Y-122103400D01*
X139637059Y-122053732D01*
X139639813Y-122050891D01*
X139659534Y-122031170D01*
X139662012Y-122027975D01*
X139669718Y-122018953D01*
X139672175Y-122016337D01*
X139699986Y-121986721D01*
X139706132Y-121975542D01*
X139709746Y-121968968D01*
X139720599Y-121952445D01*
X139728153Y-121942706D01*
X139733013Y-121936441D01*
X139750576Y-121895857D01*
X139755783Y-121885227D01*
X139777095Y-121846460D01*
X139779066Y-121838783D01*
X139779068Y-121838778D01*
X139782132Y-121826842D01*
X139788538Y-121808130D01*
X139793433Y-121796819D01*
X139796581Y-121789545D01*
X139797821Y-121781717D01*
X139797823Y-121781710D01*
X139803499Y-121745876D01*
X139805905Y-121734256D01*
X139814928Y-121699111D01*
X139814928Y-121699110D01*
X139816900Y-121691430D01*
X139816900Y-121683930D01*
X143775725Y-121683930D01*
X143793572Y-121910699D01*
X143795115Y-121920446D01*
X143848217Y-122141627D01*
X143851266Y-122151012D01*
X143938313Y-122361163D01*
X143942795Y-122369958D01*
X144045432Y-122537445D01*
X144055890Y-122546907D01*
X144064666Y-122543124D01*
X144915978Y-121691812D01*
X144922356Y-121680132D01*
X145652408Y-121680132D01*
X145652539Y-121681965D01*
X145656790Y-121688580D01*
X146508290Y-122540080D01*
X146520670Y-122546840D01*
X146528320Y-122541113D01*
X146633205Y-122369958D01*
X146637687Y-122361163D01*
X146724734Y-122151012D01*
X146727783Y-122141627D01*
X146780885Y-121920446D01*
X146782428Y-121910699D01*
X146800275Y-121683930D01*
X146800275Y-121674070D01*
X146782428Y-121447301D01*
X146780885Y-121437554D01*
X146727783Y-121216373D01*
X146724734Y-121206988D01*
X146637687Y-120996837D01*
X146633205Y-120988042D01*
X146530568Y-120820555D01*
X146520110Y-120811093D01*
X146511334Y-120814876D01*
X145660022Y-121666188D01*
X145652408Y-121680132D01*
X144922356Y-121680132D01*
X144923592Y-121677868D01*
X144923461Y-121676035D01*
X144919210Y-121669420D01*
X144067710Y-120817920D01*
X144055330Y-120811160D01*
X144047680Y-120816887D01*
X143942795Y-120988042D01*
X143938313Y-120996837D01*
X143851266Y-121206988D01*
X143848217Y-121216373D01*
X143795115Y-121437554D01*
X143793572Y-121447301D01*
X143775725Y-121674070D01*
X143775725Y-121683930D01*
X139816900Y-121683930D01*
X139816900Y-121671176D01*
X139818451Y-121651465D01*
X139820380Y-121639286D01*
X139821620Y-121631457D01*
X139817459Y-121587438D01*
X139816900Y-121575581D01*
X139816900Y-120446890D01*
X144420093Y-120446890D01*
X144423876Y-120455666D01*
X145275188Y-121306978D01*
X145289132Y-121314592D01*
X145290965Y-121314461D01*
X145297580Y-121310210D01*
X146149080Y-120458710D01*
X146155840Y-120446330D01*
X146150113Y-120438680D01*
X145978958Y-120333795D01*
X145970163Y-120329313D01*
X145760012Y-120242266D01*
X145750627Y-120239217D01*
X145529446Y-120186115D01*
X145519699Y-120184572D01*
X145292930Y-120166725D01*
X145283070Y-120166725D01*
X145056301Y-120184572D01*
X145046554Y-120186115D01*
X144825373Y-120239217D01*
X144815988Y-120242266D01*
X144605837Y-120329313D01*
X144597042Y-120333795D01*
X144429555Y-120436432D01*
X144420093Y-120446890D01*
X139816900Y-120446890D01*
X139816900Y-113678167D01*
X139817427Y-113666984D01*
X139819102Y-113659491D01*
X139818295Y-113633800D01*
X139816962Y-113591414D01*
X139816900Y-113587455D01*
X139816900Y-113559544D01*
X139816395Y-113555544D01*
X139815462Y-113543701D01*
X139815355Y-113540279D01*
X139814073Y-113499511D01*
X139808421Y-113480057D01*
X139804413Y-113460700D01*
X139802868Y-113448470D01*
X139802868Y-113448469D01*
X139801874Y-113440603D01*
X139788985Y-113408049D01*
X139785596Y-113399488D01*
X139781751Y-113388258D01*
X139771629Y-113353417D01*
X139771629Y-113353416D01*
X139769418Y-113345807D01*
X139765385Y-113338988D01*
X139765383Y-113338983D01*
X139759107Y-113328372D01*
X139750412Y-113310624D01*
X139742952Y-113291783D01*
X139716964Y-113256013D01*
X139710448Y-113246093D01*
X139691980Y-113214865D01*
X139691978Y-113214862D01*
X139687942Y-113208038D01*
X139673621Y-113193717D01*
X139660780Y-113178683D01*
X139653531Y-113168706D01*
X139648872Y-113162293D01*
X139614795Y-113134102D01*
X139606016Y-113126112D01*
X135274911Y-108795006D01*
X135240885Y-108732694D01*
X135242267Y-108674668D01*
X135244481Y-108669324D01*
X135259500Y-108555244D01*
X135259500Y-108328756D01*
X135255718Y-108300025D01*
X135244481Y-108214676D01*
X135246026Y-108214473D01*
X135246026Y-108169527D01*
X135244481Y-108169324D01*
X135258962Y-108059331D01*
X135258962Y-108059330D01*
X135259500Y-108055244D01*
X135259500Y-107828756D01*
X135255658Y-107799570D01*
X135244912Y-107717946D01*
X135255852Y-107647797D01*
X135302980Y-107594699D01*
X135369834Y-107575500D01*
X136162133Y-107575500D01*
X136173316Y-107576027D01*
X136180809Y-107577702D01*
X136188735Y-107577453D01*
X136188736Y-107577453D01*
X136248886Y-107575562D01*
X136252845Y-107575500D01*
X136280756Y-107575500D01*
X136284691Y-107575003D01*
X136284756Y-107574995D01*
X136296593Y-107574062D01*
X136328851Y-107573048D01*
X136332870Y-107572922D01*
X136340789Y-107572673D01*
X136360243Y-107567021D01*
X136379600Y-107563013D01*
X136391830Y-107561468D01*
X136391831Y-107561468D01*
X136399697Y-107560474D01*
X136407068Y-107557555D01*
X136407070Y-107557555D01*
X136440812Y-107544196D01*
X136452042Y-107540351D01*
X136486883Y-107530229D01*
X136486884Y-107530229D01*
X136494493Y-107528018D01*
X136501312Y-107523985D01*
X136501317Y-107523983D01*
X136511928Y-107517707D01*
X136529676Y-107509012D01*
X136548517Y-107501552D01*
X136584287Y-107475564D01*
X136594207Y-107469048D01*
X136625435Y-107450580D01*
X136625438Y-107450578D01*
X136632262Y-107446542D01*
X136646583Y-107432221D01*
X136661617Y-107419380D01*
X136671594Y-107412131D01*
X136678007Y-107407472D01*
X136706198Y-107373395D01*
X136714188Y-107364616D01*
X137955200Y-106123605D01*
X138017512Y-106089579D01*
X138044295Y-106086700D01*
X138100187Y-106086700D01*
X138106639Y-106085328D01*
X138106644Y-106085328D01*
X138196730Y-106066179D01*
X138286988Y-106046994D01*
X138364562Y-106012456D01*
X138455422Y-105972003D01*
X138455424Y-105972002D01*
X138461452Y-105969318D01*
X138495083Y-105944884D01*
X138610614Y-105860945D01*
X138615953Y-105857066D01*
X138620368Y-105852163D01*
X138625280Y-105847740D01*
X138626405Y-105848989D01*
X138679714Y-105816149D01*
X138712900Y-105811700D01*
X138858533Y-105811700D01*
X138869716Y-105812227D01*
X138877209Y-105813902D01*
X138885135Y-105813653D01*
X138885136Y-105813653D01*
X138945286Y-105811762D01*
X138949245Y-105811700D01*
X138977156Y-105811700D01*
X138981091Y-105811203D01*
X138981156Y-105811195D01*
X138992993Y-105810262D01*
X139025251Y-105809248D01*
X139029270Y-105809122D01*
X139037189Y-105808873D01*
X139056643Y-105803221D01*
X139076000Y-105799213D01*
X139088230Y-105797668D01*
X139088231Y-105797668D01*
X139096097Y-105796674D01*
X139103468Y-105793755D01*
X139103470Y-105793755D01*
X139137212Y-105780396D01*
X139148442Y-105776551D01*
X139183283Y-105766429D01*
X139183284Y-105766429D01*
X139190893Y-105764218D01*
X139197712Y-105760185D01*
X139197717Y-105760183D01*
X139208328Y-105753907D01*
X139226076Y-105745212D01*
X139244917Y-105737752D01*
X139280687Y-105711764D01*
X139290607Y-105705248D01*
X139321835Y-105686780D01*
X139321838Y-105686778D01*
X139328662Y-105682742D01*
X139342983Y-105668421D01*
X139358017Y-105655580D01*
X139367994Y-105648331D01*
X139374407Y-105643672D01*
X139402598Y-105609595D01*
X139410588Y-105600816D01*
X139462999Y-105548405D01*
X139525311Y-105514379D01*
X139552094Y-105511500D01*
X140225400Y-105511500D01*
X140228646Y-105511163D01*
X140228650Y-105511163D01*
X140324308Y-105501238D01*
X140324312Y-105501237D01*
X140331166Y-105500526D01*
X140337702Y-105498345D01*
X140337704Y-105498345D01*
X140491998Y-105446868D01*
X140498946Y-105444550D01*
X140649348Y-105351478D01*
X140774305Y-105226303D01*
X140795433Y-105192028D01*
X140843031Y-105114810D01*
X140895804Y-105067316D01*
X140965875Y-105055893D01*
X141030999Y-105084168D01*
X141067995Y-105138385D01*
X141068027Y-105138370D01*
X141068119Y-105138567D01*
X141069815Y-105141052D01*
X141071130Y-105144994D01*
X141071132Y-105144999D01*
X141073450Y-105151946D01*
X141166522Y-105302348D01*
X141291697Y-105427305D01*
X141297927Y-105431145D01*
X141297928Y-105431146D01*
X141432957Y-105514379D01*
X141442262Y-105520115D01*
X141514129Y-105543952D01*
X141603611Y-105573632D01*
X141603613Y-105573632D01*
X141610139Y-105575797D01*
X141616975Y-105576497D01*
X141616978Y-105576498D01*
X141660031Y-105580909D01*
X141714600Y-105586500D01*
X142130727Y-105586500D01*
X142198848Y-105606502D01*
X142245341Y-105660158D01*
X142256037Y-105699329D01*
X142267848Y-105811700D01*
X142269858Y-105830828D01*
X142328873Y-106012456D01*
X142332176Y-106018178D01*
X142332177Y-106018179D01*
X142349606Y-106048366D01*
X142424360Y-106177844D01*
X142428778Y-106182751D01*
X142428779Y-106182752D01*
X142458788Y-106216080D01*
X142552147Y-106319766D01*
X142706648Y-106432018D01*
X142712676Y-106434702D01*
X142712678Y-106434703D01*
X142857542Y-106499200D01*
X142881112Y-106509694D01*
X142974513Y-106529547D01*
X143061456Y-106548028D01*
X143061461Y-106548028D01*
X143067913Y-106549400D01*
X143258887Y-106549400D01*
X143265339Y-106548028D01*
X143265344Y-106548028D01*
X143352287Y-106529547D01*
X143445688Y-106509694D01*
X143469258Y-106499200D01*
X143614122Y-106434703D01*
X143614124Y-106434702D01*
X143620152Y-106432018D01*
X143774653Y-106319766D01*
X143868012Y-106216080D01*
X143878864Y-106204028D01*
X143939310Y-106166788D01*
X144010294Y-106168140D01*
X144069278Y-106207653D01*
X144097536Y-106272784D01*
X144098500Y-106288338D01*
X144098500Y-107214772D01*
X144109364Y-107304547D01*
X144112344Y-107312075D01*
X144112345Y-107312077D01*
X144120509Y-107332696D01*
X144164887Y-107444783D01*
X144256078Y-107564922D01*
X144376217Y-107656113D01*
X144439832Y-107681300D01*
X144508923Y-107708655D01*
X144508925Y-107708656D01*
X144516453Y-107711636D01*
X144606228Y-107722500D01*
X144967200Y-107722500D01*
X145035321Y-107742502D01*
X145081814Y-107796158D01*
X145093200Y-107848500D01*
X145093200Y-109384500D01*
X145073198Y-109452621D01*
X145019542Y-109499114D01*
X144967200Y-109510500D01*
X144751600Y-109510500D01*
X144748354Y-109510837D01*
X144748350Y-109510837D01*
X144652692Y-109520762D01*
X144652688Y-109520763D01*
X144645834Y-109521474D01*
X144639298Y-109523655D01*
X144639296Y-109523655D01*
X144512518Y-109565952D01*
X144478054Y-109577450D01*
X144327652Y-109670522D01*
X144202695Y-109795697D01*
X144198855Y-109801927D01*
X144198854Y-109801928D01*
X144137476Y-109901502D01*
X144109885Y-109946262D01*
X144104564Y-109962306D01*
X144088291Y-110011367D01*
X144047861Y-110069727D01*
X143982297Y-110096964D01*
X143968698Y-110097700D01*
X143852213Y-110097700D01*
X143845761Y-110099072D01*
X143845756Y-110099072D01*
X143758813Y-110117553D01*
X143665412Y-110137406D01*
X143659382Y-110140091D01*
X143659381Y-110140091D01*
X143496978Y-110212397D01*
X143496976Y-110212398D01*
X143490948Y-110215082D01*
X143485607Y-110218962D01*
X143485606Y-110218963D01*
X143481557Y-110221905D01*
X143336447Y-110327334D01*
X143332026Y-110332244D01*
X143332025Y-110332245D01*
X143222161Y-110454262D01*
X143208660Y-110469256D01*
X143113173Y-110634644D01*
X143054158Y-110816272D01*
X143053468Y-110822833D01*
X143053468Y-110822835D01*
X143038046Y-110969565D01*
X143034196Y-111006200D01*
X143054158Y-111196128D01*
X143113173Y-111377756D01*
X143208660Y-111543144D01*
X143213078Y-111548051D01*
X143213079Y-111548052D01*
X143308113Y-111653598D01*
X143336447Y-111685066D01*
X143423098Y-111748022D01*
X143468007Y-111780650D01*
X143490948Y-111797318D01*
X143496976Y-111800002D01*
X143496978Y-111800003D01*
X143554702Y-111825703D01*
X143665412Y-111874994D01*
X143734617Y-111889704D01*
X143845756Y-111913328D01*
X143845761Y-111913328D01*
X143852213Y-111914700D01*
X144043187Y-111914700D01*
X144049639Y-111913328D01*
X144049644Y-111913328D01*
X144160783Y-111889704D01*
X144229988Y-111874994D01*
X144236015Y-111872311D01*
X144236023Y-111872308D01*
X144279946Y-111852752D01*
X144350313Y-111843318D01*
X144397310Y-111860599D01*
X144472288Y-111906816D01*
X144479262Y-111911115D01*
X144559005Y-111937564D01*
X144640611Y-111964632D01*
X144640613Y-111964632D01*
X144647139Y-111966797D01*
X144653975Y-111967497D01*
X144653978Y-111967498D01*
X144697031Y-111971909D01*
X144751600Y-111977500D01*
X145527400Y-111977500D01*
X145530646Y-111977163D01*
X145530650Y-111977163D01*
X145626308Y-111967238D01*
X145626312Y-111967237D01*
X145633166Y-111966526D01*
X145639702Y-111964345D01*
X145639704Y-111964345D01*
X145788507Y-111914700D01*
X145800946Y-111910550D01*
X145951348Y-111817478D01*
X146076305Y-111692303D01*
X146078906Y-111688084D01*
X146136030Y-111647583D01*
X146206953Y-111644351D01*
X146268365Y-111679976D01*
X146274922Y-111687530D01*
X146278522Y-111693348D01*
X146403697Y-111818305D01*
X146409927Y-111822145D01*
X146409928Y-111822146D01*
X146547288Y-111906816D01*
X146554262Y-111911115D01*
X146634005Y-111937564D01*
X146715611Y-111964632D01*
X146715613Y-111964632D01*
X146722139Y-111966797D01*
X146728975Y-111967497D01*
X146728978Y-111967498D01*
X146772031Y-111971909D01*
X146826600Y-111977500D01*
X147602400Y-111977500D01*
X147605646Y-111977163D01*
X147605650Y-111977163D01*
X147701308Y-111967238D01*
X147701312Y-111967237D01*
X147708166Y-111966526D01*
X147714702Y-111964345D01*
X147714704Y-111964345D01*
X147863507Y-111914700D01*
X147875946Y-111910550D01*
X148026348Y-111817478D01*
X148151305Y-111692303D01*
X148155766Y-111685066D01*
X148172540Y-111657855D01*
X148225313Y-111610362D01*
X148295384Y-111598940D01*
X148360508Y-111627214D01*
X148386943Y-111657669D01*
X148409022Y-111693348D01*
X148534197Y-111818305D01*
X148540427Y-111822145D01*
X148540428Y-111822146D01*
X148677788Y-111906816D01*
X148684762Y-111911115D01*
X148764505Y-111937564D01*
X148846111Y-111964632D01*
X148846113Y-111964632D01*
X148852639Y-111966797D01*
X148859475Y-111967497D01*
X148859478Y-111967498D01*
X148902531Y-111971909D01*
X148957100Y-111977500D01*
X149732900Y-111977500D01*
X149736146Y-111977163D01*
X149736150Y-111977163D01*
X149831808Y-111967238D01*
X149831812Y-111967237D01*
X149838666Y-111966526D01*
X149845202Y-111964345D01*
X149845204Y-111964345D01*
X149994007Y-111914700D01*
X150006446Y-111910550D01*
X150156848Y-111817478D01*
X150281805Y-111692303D01*
X150284602Y-111687765D01*
X150341853Y-111647176D01*
X150412776Y-111643946D01*
X150474187Y-111679572D01*
X150481562Y-111688068D01*
X150489598Y-111698207D01*
X150604329Y-111812739D01*
X150615740Y-111821751D01*
X150753743Y-111906816D01*
X150766924Y-111912963D01*
X150921210Y-111964138D01*
X150934586Y-111967005D01*
X151028938Y-111976672D01*
X151035354Y-111977000D01*
X151147885Y-111977000D01*
X151163124Y-111972525D01*
X151164329Y-111971135D01*
X151166000Y-111963452D01*
X151166000Y-111958884D01*
X151674000Y-111958884D01*
X151678475Y-111974123D01*
X151679865Y-111975328D01*
X151687548Y-111976999D01*
X151804595Y-111976999D01*
X151811114Y-111976662D01*
X151906706Y-111966743D01*
X151920100Y-111963851D01*
X152074284Y-111912412D01*
X152087462Y-111906239D01*
X152225307Y-111820937D01*
X152236708Y-111811901D01*
X152351239Y-111697171D01*
X152360251Y-111685760D01*
X152445316Y-111547757D01*
X152451463Y-111534576D01*
X152502638Y-111380290D01*
X152505505Y-111366914D01*
X152515172Y-111272562D01*
X152515500Y-111266146D01*
X152515500Y-111016115D01*
X152511025Y-111000876D01*
X152509635Y-110999671D01*
X152501952Y-110998000D01*
X151692115Y-110998000D01*
X151676876Y-111002475D01*
X151675671Y-111003865D01*
X151674000Y-111011548D01*
X151674000Y-111958884D01*
X151166000Y-111958884D01*
X151166000Y-110471885D01*
X151674000Y-110471885D01*
X151678475Y-110487124D01*
X151679865Y-110488329D01*
X151687548Y-110490000D01*
X152497384Y-110490000D01*
X152512623Y-110485525D01*
X152513828Y-110484135D01*
X152515499Y-110476452D01*
X152515499Y-110221905D01*
X152515162Y-110215386D01*
X152505243Y-110119794D01*
X152502351Y-110106400D01*
X152450912Y-109952216D01*
X152444739Y-109939038D01*
X152359437Y-109801193D01*
X152350401Y-109789792D01*
X152235671Y-109675261D01*
X152224260Y-109666249D01*
X152086257Y-109581184D01*
X152073076Y-109575037D01*
X151918790Y-109523862D01*
X151905414Y-109520995D01*
X151811062Y-109511328D01*
X151804645Y-109511000D01*
X151692115Y-109511000D01*
X151676876Y-109515475D01*
X151675671Y-109516865D01*
X151674000Y-109524548D01*
X151674000Y-110471885D01*
X151166000Y-110471885D01*
X151166000Y-109529116D01*
X151161525Y-109513877D01*
X151160135Y-109512672D01*
X151152452Y-109511001D01*
X151035405Y-109511001D01*
X151028886Y-109511338D01*
X150933294Y-109521257D01*
X150919900Y-109524149D01*
X150765716Y-109575588D01*
X150752538Y-109581761D01*
X150620003Y-109663777D01*
X150551551Y-109682615D01*
X150483782Y-109661454D01*
X150438210Y-109607013D01*
X150427700Y-109556633D01*
X150427700Y-104707452D01*
X150428228Y-104696276D01*
X150429901Y-104688791D01*
X150427762Y-104620732D01*
X150427700Y-104616775D01*
X150427700Y-104588844D01*
X150427194Y-104584838D01*
X150426261Y-104572992D01*
X150425122Y-104536737D01*
X150424873Y-104528810D01*
X150419222Y-104509358D01*
X150415214Y-104490006D01*
X150413668Y-104477768D01*
X150413667Y-104477766D01*
X150412674Y-104469903D01*
X150396394Y-104428786D01*
X150392559Y-104417585D01*
X150380218Y-104375106D01*
X150376185Y-104368287D01*
X150376183Y-104368282D01*
X150369907Y-104357671D01*
X150361210Y-104339921D01*
X150353752Y-104321083D01*
X150327771Y-104285323D01*
X150321253Y-104275401D01*
X150302778Y-104244160D01*
X150302774Y-104244155D01*
X150298742Y-104237337D01*
X150284418Y-104223013D01*
X150271576Y-104207978D01*
X150259672Y-104191593D01*
X150225606Y-104163411D01*
X150216827Y-104155422D01*
X149044462Y-102983057D01*
X149010436Y-102920745D01*
X149015501Y-102849930D01*
X149058048Y-102793094D01*
X149101413Y-102772378D01*
X149107547Y-102771636D01*
X149247783Y-102716113D01*
X149367922Y-102624922D01*
X149459113Y-102504783D01*
X149496521Y-102410300D01*
X149511655Y-102372077D01*
X149511656Y-102372075D01*
X149514636Y-102364547D01*
X149525500Y-102274772D01*
X149525500Y-100303228D01*
X149514636Y-100213453D01*
X149459113Y-100073217D01*
X149453920Y-100066375D01*
X149453918Y-100066372D01*
X149376138Y-99963901D01*
X149350884Y-99897548D01*
X149350500Y-99887721D01*
X149350500Y-99571063D01*
X149351027Y-99559879D01*
X149352701Y-99552391D01*
X149350562Y-99484332D01*
X149350500Y-99480375D01*
X149350500Y-99452444D01*
X149349994Y-99448438D01*
X149349061Y-99436592D01*
X149347922Y-99400337D01*
X149347673Y-99392410D01*
X149342022Y-99372958D01*
X149338014Y-99353606D01*
X149336467Y-99341363D01*
X149335474Y-99333503D01*
X149332556Y-99326132D01*
X149319200Y-99292397D01*
X149315355Y-99281170D01*
X149313266Y-99273979D01*
X149303018Y-99238707D01*
X149298984Y-99231885D01*
X149298981Y-99231879D01*
X149292706Y-99221268D01*
X149284010Y-99203518D01*
X149279472Y-99192056D01*
X149279469Y-99192051D01*
X149276552Y-99184683D01*
X149250573Y-99148925D01*
X149244057Y-99139007D01*
X149225575Y-99107757D01*
X149221542Y-99100937D01*
X149207218Y-99086613D01*
X149194376Y-99071578D01*
X149182472Y-99055193D01*
X149148406Y-99027011D01*
X149139627Y-99019022D01*
X148219647Y-98099042D01*
X148185621Y-98036730D01*
X148190686Y-97965915D01*
X148219646Y-97920852D01*
X148326198Y-97814300D01*
X148343664Y-97789357D01*
X148454366Y-97631257D01*
X148457523Y-97626749D01*
X148459846Y-97621767D01*
X148459849Y-97621762D01*
X148551961Y-97424225D01*
X148551961Y-97424224D01*
X148554284Y-97419243D01*
X148613543Y-97198087D01*
X148628500Y-97027127D01*
X148628500Y-96012873D01*
X148613543Y-95841913D01*
X148612119Y-95836598D01*
X148555707Y-95626067D01*
X148555706Y-95626065D01*
X148554284Y-95620757D01*
X148551961Y-95615775D01*
X148459849Y-95418238D01*
X148459846Y-95418233D01*
X148457523Y-95413251D01*
X148375339Y-95295880D01*
X148329357Y-95230211D01*
X148329355Y-95230208D01*
X148326198Y-95225700D01*
X148164300Y-95063802D01*
X148159792Y-95060645D01*
X148159789Y-95060643D01*
X148038773Y-94975907D01*
X147976749Y-94932477D01*
X147807799Y-94853695D01*
X147754514Y-94806778D01*
X147735053Y-94738501D01*
X147755595Y-94670541D01*
X147809617Y-94624475D01*
X147861049Y-94613500D01*
X149781233Y-94613500D01*
X149792416Y-94614027D01*
X149799909Y-94615702D01*
X149807835Y-94615453D01*
X149807836Y-94615453D01*
X149867986Y-94613562D01*
X149871945Y-94613500D01*
X149899856Y-94613500D01*
X149903791Y-94613003D01*
X149903856Y-94612995D01*
X149915693Y-94612062D01*
X149947951Y-94611048D01*
X149951970Y-94610922D01*
X149959889Y-94610673D01*
X149979343Y-94605021D01*
X149998700Y-94601013D01*
X150010930Y-94599468D01*
X150010931Y-94599468D01*
X150018797Y-94598474D01*
X150026168Y-94595555D01*
X150026170Y-94595555D01*
X150059912Y-94582196D01*
X150071142Y-94578351D01*
X150105983Y-94568229D01*
X150105984Y-94568229D01*
X150113593Y-94566018D01*
X150120412Y-94561985D01*
X150120417Y-94561983D01*
X150131028Y-94555707D01*
X150148776Y-94547012D01*
X150167617Y-94539552D01*
X150203387Y-94513564D01*
X150213307Y-94507048D01*
X150244535Y-94488580D01*
X150244538Y-94488578D01*
X150251362Y-94484542D01*
X150265683Y-94470221D01*
X150280717Y-94457380D01*
X150290694Y-94450131D01*
X150297107Y-94445472D01*
X150302157Y-94439368D01*
X150302163Y-94439362D01*
X150313843Y-94425243D01*
X150372676Y-94385505D01*
X150443654Y-94383884D01*
X150504242Y-94420893D01*
X150515127Y-94434720D01*
X150616294Y-94583584D01*
X150619080Y-94586700D01*
X150640737Y-94610922D01*
X150816274Y-94807248D01*
X150819444Y-94809965D01*
X150819445Y-94809966D01*
X151040903Y-94999779D01*
X151040907Y-94999782D01*
X151044077Y-95002499D01*
X151047579Y-95004773D01*
X151047584Y-95004777D01*
X151292193Y-95163628D01*
X151292198Y-95163631D01*
X151295703Y-95165907D01*
X151299482Y-95167701D01*
X151299483Y-95167702D01*
X151309318Y-95172372D01*
X151566730Y-95294600D01*
X151570713Y-95295879D01*
X151570716Y-95295880D01*
X151841803Y-95382917D01*
X151852396Y-95386318D01*
X151933264Y-95400868D01*
X152143575Y-95438709D01*
X152143580Y-95438710D01*
X152147684Y-95439448D01*
X152151851Y-95439637D01*
X152151858Y-95439638D01*
X152443234Y-95452870D01*
X152443240Y-95452870D01*
X152447404Y-95453059D01*
X152451552Y-95452696D01*
X152451556Y-95452696D01*
X152642290Y-95436008D01*
X152746292Y-95426909D01*
X152750364Y-95425999D01*
X152750369Y-95425998D01*
X153035016Y-95362372D01*
X153035019Y-95362371D01*
X153039095Y-95361460D01*
X153080223Y-95346328D01*
X153148293Y-95321283D01*
X153320671Y-95257860D01*
X153324359Y-95255916D01*
X153324367Y-95255912D01*
X153582367Y-95119884D01*
X153582368Y-95119883D01*
X153586071Y-95117931D01*
X153830633Y-94944129D01*
X154050061Y-94739510D01*
X154175580Y-94586700D01*
X154237849Y-94510892D01*
X154240498Y-94507667D01*
X154398600Y-94252675D01*
X154521589Y-93979012D01*
X154607304Y-93691487D01*
X154654239Y-93395152D01*
X154657357Y-93326498D01*
X154658436Y-93302738D01*
X154658436Y-93302719D01*
X154658500Y-93301319D01*
X154658500Y-89613893D01*
X154643671Y-89390630D01*
X154625066Y-89298357D01*
X154585195Y-89100623D01*
X154584368Y-89096520D01*
X154486688Y-88812837D01*
X154433775Y-88707171D01*
X154354222Y-88548309D01*
X154354221Y-88548307D01*
X154352347Y-88544565D01*
X154277048Y-88433766D01*
X154186057Y-88299875D01*
X154186055Y-88299872D01*
X154183706Y-88296416D01*
X153983726Y-88072752D01*
X153980555Y-88070034D01*
X153759097Y-87880221D01*
X153759093Y-87880218D01*
X153755923Y-87877501D01*
X153752421Y-87875227D01*
X153752416Y-87875223D01*
X153507807Y-87716372D01*
X153507802Y-87716369D01*
X153504297Y-87714093D01*
X153233270Y-87585400D01*
X153229287Y-87584121D01*
X153229284Y-87584120D01*
X152951591Y-87494962D01*
X152951590Y-87494962D01*
X152947604Y-87493682D01*
X152866736Y-87479132D01*
X152656425Y-87441291D01*
X152656420Y-87441290D01*
X152652316Y-87440552D01*
X152648149Y-87440363D01*
X152648142Y-87440362D01*
X152356766Y-87427130D01*
X152356760Y-87427130D01*
X152352596Y-87426941D01*
X152348448Y-87427304D01*
X152348444Y-87427304D01*
X152188579Y-87441291D01*
X152053708Y-87453091D01*
X152049636Y-87454001D01*
X152049631Y-87454002D01*
X151764984Y-87517628D01*
X151764981Y-87517629D01*
X151760905Y-87518540D01*
X151479329Y-87622140D01*
X151475641Y-87624084D01*
X151475633Y-87624088D01*
X151300601Y-87716372D01*
X151213929Y-87762069D01*
X150969367Y-87935871D01*
X150749939Y-88140490D01*
X150559502Y-88372333D01*
X150401400Y-88627325D01*
X150278411Y-88900988D01*
X150192696Y-89188513D01*
X150192043Y-89192633D01*
X150192043Y-89192635D01*
X150181760Y-89257559D01*
X150145761Y-89484848D01*
X150141500Y-89578681D01*
X150141500Y-92750405D01*
X150121498Y-92818526D01*
X150104595Y-92839500D01*
X149634500Y-93309595D01*
X149572188Y-93343621D01*
X149545405Y-93346500D01*
X145094595Y-93346500D01*
X145026474Y-93326498D01*
X145005500Y-93309595D01*
X144535405Y-92839500D01*
X144501379Y-92777188D01*
X144498500Y-92750405D01*
X144498500Y-89613893D01*
X144483671Y-89390630D01*
X144465066Y-89298357D01*
X144425195Y-89100623D01*
X144424368Y-89096520D01*
X144326688Y-88812837D01*
X144273775Y-88707171D01*
X144194222Y-88548309D01*
X144194221Y-88548307D01*
X144192347Y-88544565D01*
X144117048Y-88433766D01*
X144026057Y-88299875D01*
X144026055Y-88299872D01*
X144023706Y-88296416D01*
X143823726Y-88072752D01*
X143820555Y-88070034D01*
X143599097Y-87880221D01*
X143599093Y-87880218D01*
X143595923Y-87877501D01*
X143592421Y-87875227D01*
X143592416Y-87875223D01*
X143347807Y-87716372D01*
X143347802Y-87716369D01*
X143344297Y-87714093D01*
X143073270Y-87585400D01*
X143069287Y-87584121D01*
X143069284Y-87584120D01*
X142791591Y-87494962D01*
X142791590Y-87494962D01*
X142787604Y-87493682D01*
X142706736Y-87479132D01*
X142496425Y-87441291D01*
X142496420Y-87441290D01*
X142492316Y-87440552D01*
X142488149Y-87440363D01*
X142488142Y-87440362D01*
X142196766Y-87427130D01*
X142196760Y-87427130D01*
X142192596Y-87426941D01*
X142188448Y-87427304D01*
X142188444Y-87427304D01*
X142028579Y-87441291D01*
X141893708Y-87453091D01*
X141889636Y-87454001D01*
X141889631Y-87454002D01*
X141604984Y-87517628D01*
X141604981Y-87517629D01*
X141600905Y-87518540D01*
X141319329Y-87622140D01*
X141315641Y-87624084D01*
X141315633Y-87624088D01*
X141140601Y-87716372D01*
X141053929Y-87762069D01*
X140809367Y-87935871D01*
X140589939Y-88140490D01*
X140399502Y-88372333D01*
X140241400Y-88627325D01*
X140118411Y-88900988D01*
X140032696Y-89188513D01*
X140032043Y-89192633D01*
X140032043Y-89192635D01*
X140021760Y-89257559D01*
X139985761Y-89484848D01*
X139981500Y-89578681D01*
X139981500Y-93266107D01*
X139996329Y-93489370D01*
X139997154Y-93493464D01*
X139997155Y-93493468D01*
X140013835Y-93576190D01*
X140055632Y-93783480D01*
X140153312Y-94067163D01*
X140155181Y-94070896D01*
X140155183Y-94070900D01*
X140195449Y-94151309D01*
X140287653Y-94335435D01*
X140329859Y-94397539D01*
X140452738Y-94578351D01*
X140456294Y-94583584D01*
X140459080Y-94586700D01*
X140480737Y-94610922D01*
X140656274Y-94807248D01*
X140659444Y-94809965D01*
X140659445Y-94809966D01*
X140880903Y-94999779D01*
X140880907Y-94999782D01*
X140884077Y-95002499D01*
X140887579Y-95004773D01*
X140887584Y-95004777D01*
X141132193Y-95163628D01*
X141132198Y-95163631D01*
X141135703Y-95165907D01*
X141139482Y-95167701D01*
X141139483Y-95167702D01*
X141149318Y-95172372D01*
X141406730Y-95294600D01*
X141410713Y-95295879D01*
X141410716Y-95295880D01*
X141681803Y-95382917D01*
X141692396Y-95386318D01*
X141773264Y-95400868D01*
X141983575Y-95438709D01*
X141983580Y-95438710D01*
X141987684Y-95439448D01*
X141991851Y-95439637D01*
X141991858Y-95439638D01*
X142283234Y-95452870D01*
X142283240Y-95452870D01*
X142287404Y-95453059D01*
X142291552Y-95452696D01*
X142291556Y-95452696D01*
X142482290Y-95436008D01*
X142586292Y-95426909D01*
X142590364Y-95425999D01*
X142590369Y-95425998D01*
X142875016Y-95362372D01*
X142875019Y-95362371D01*
X142879095Y-95361460D01*
X142920223Y-95346328D01*
X142988293Y-95321283D01*
X143160671Y-95257860D01*
X143164359Y-95255916D01*
X143164367Y-95255912D01*
X143422367Y-95119884D01*
X143422368Y-95119883D01*
X143426071Y-95117931D01*
X143670633Y-94944129D01*
X143890061Y-94739510D01*
X143892713Y-94736281D01*
X143892718Y-94736276D01*
X143923136Y-94699245D01*
X143981830Y-94659302D01*
X144052802Y-94657432D01*
X144113518Y-94694229D01*
X144144702Y-94758011D01*
X144146500Y-94779221D01*
X144146500Y-94850606D01*
X144126498Y-94918727D01*
X144092771Y-94953819D01*
X143940211Y-95060643D01*
X143940208Y-95060645D01*
X143935700Y-95063802D01*
X143773802Y-95225700D01*
X143770645Y-95230208D01*
X143770643Y-95230211D01*
X143724661Y-95295880D01*
X143642477Y-95413251D01*
X143640154Y-95418233D01*
X143640151Y-95418238D01*
X143548039Y-95615775D01*
X143545716Y-95620757D01*
X143544294Y-95626065D01*
X143544293Y-95626067D01*
X143487881Y-95836598D01*
X143486457Y-95841913D01*
X143471500Y-96012873D01*
X143471500Y-97027127D01*
X143486457Y-97198087D01*
X143545716Y-97419243D01*
X143548039Y-97424224D01*
X143548039Y-97424225D01*
X143640151Y-97621762D01*
X143640154Y-97621767D01*
X143642477Y-97626749D01*
X143645634Y-97631257D01*
X143756337Y-97789357D01*
X143773802Y-97814300D01*
X143935700Y-97976198D01*
X143940208Y-97979355D01*
X143940211Y-97979357D01*
X144097393Y-98089417D01*
X144141721Y-98144874D01*
X144150873Y-98184718D01*
X144152775Y-98214950D01*
X144155225Y-98222491D01*
X144155321Y-98222787D01*
X144160494Y-98245931D01*
X144160532Y-98246235D01*
X144160533Y-98246240D01*
X144161526Y-98254097D01*
X144164442Y-98261462D01*
X144164443Y-98261466D01*
X144182199Y-98306311D01*
X144184871Y-98313730D01*
X144202236Y-98367175D01*
X144206486Y-98373871D01*
X144206486Y-98373872D01*
X144206650Y-98374131D01*
X144217415Y-98395258D01*
X144217529Y-98395546D01*
X144217532Y-98395551D01*
X144220448Y-98402917D01*
X144225104Y-98409325D01*
X144225107Y-98409331D01*
X144253458Y-98448352D01*
X144257901Y-98454889D01*
X144288000Y-98502318D01*
X144293778Y-98507744D01*
X144293779Y-98507745D01*
X144294007Y-98507959D01*
X144309688Y-98525746D01*
X144314528Y-98532407D01*
X144320637Y-98537461D01*
X144320638Y-98537462D01*
X144357796Y-98568203D01*
X144363730Y-98573434D01*
X144398898Y-98606458D01*
X144398901Y-98606460D01*
X144404679Y-98611886D01*
X144411903Y-98615858D01*
X144431506Y-98629181D01*
X144431746Y-98629380D01*
X144431753Y-98629384D01*
X144437856Y-98634433D01*
X144477400Y-98653041D01*
X144488676Y-98658347D01*
X144495708Y-98661929D01*
X144544940Y-98688995D01*
X144552615Y-98690965D01*
X144552621Y-98690968D01*
X144552919Y-98691044D01*
X144575228Y-98699076D01*
X144575503Y-98699206D01*
X144575511Y-98699209D01*
X144582682Y-98702583D01*
X144637849Y-98713106D01*
X144645558Y-98714829D01*
X144679551Y-98723557D01*
X144692293Y-98726829D01*
X144692294Y-98726829D01*
X144699970Y-98728800D01*
X144708207Y-98728800D01*
X144731816Y-98731032D01*
X144732119Y-98731090D01*
X144732123Y-98731090D01*
X144739906Y-98732575D01*
X144795951Y-98729049D01*
X144803862Y-98728800D01*
X145665306Y-98728800D01*
X145733427Y-98748802D01*
X145754401Y-98765705D01*
X146569779Y-99581083D01*
X146603805Y-99643395D01*
X146598740Y-99714210D01*
X146556193Y-99771046D01*
X146489673Y-99795857D01*
X146477732Y-99795924D01*
X146477732Y-99796000D01*
X146449115Y-99796000D01*
X146433876Y-99800475D01*
X146432671Y-99801865D01*
X146431000Y-99809548D01*
X146431000Y-102763885D01*
X146435475Y-102779124D01*
X146436865Y-102780329D01*
X146444548Y-102782000D01*
X146473943Y-102782000D01*
X146481498Y-102781544D01*
X146559388Y-102772119D01*
X146574953Y-102768166D01*
X146699549Y-102718835D01*
X146714376Y-102710480D01*
X146735405Y-102694518D01*
X146801758Y-102669264D01*
X146871232Y-102683892D01*
X146887765Y-102694517D01*
X146909376Y-102710921D01*
X146909379Y-102710923D01*
X146916217Y-102716113D01*
X146990183Y-102745398D01*
X147048923Y-102768655D01*
X147048925Y-102768656D01*
X147056453Y-102771636D01*
X147146228Y-102782500D01*
X147321873Y-102782500D01*
X147389994Y-102802502D01*
X147436487Y-102856158D01*
X147447811Y-102904541D01*
X147448438Y-102924486D01*
X147448500Y-102928445D01*
X147448500Y-102956356D01*
X147448997Y-102960290D01*
X147448997Y-102960291D01*
X147449005Y-102960356D01*
X147449938Y-102972193D01*
X147451327Y-103016389D01*
X147455588Y-103031055D01*
X147456978Y-103035839D01*
X147460987Y-103055200D01*
X147463526Y-103075297D01*
X147466445Y-103082668D01*
X147466445Y-103082670D01*
X147479804Y-103116412D01*
X147483649Y-103127642D01*
X147493771Y-103162483D01*
X147495982Y-103170093D01*
X147500015Y-103176912D01*
X147500017Y-103176917D01*
X147506293Y-103187528D01*
X147514988Y-103205276D01*
X147522448Y-103224117D01*
X147527110Y-103230533D01*
X147527110Y-103230534D01*
X147548436Y-103259887D01*
X147554952Y-103269807D01*
X147560456Y-103279113D01*
X147577458Y-103307862D01*
X147591779Y-103322183D01*
X147604619Y-103337216D01*
X147616528Y-103353607D01*
X147636483Y-103370115D01*
X147650605Y-103381798D01*
X147659384Y-103389788D01*
X148405577Y-104135981D01*
X148439603Y-104198293D01*
X148434538Y-104269108D01*
X148391991Y-104325944D01*
X148325471Y-104350755D01*
X148252342Y-104333529D01*
X148245606Y-104329546D01*
X148239341Y-104324686D01*
X148213217Y-104313381D01*
X148198763Y-104307126D01*
X148188113Y-104301909D01*
X148149360Y-104280605D01*
X148129737Y-104275567D01*
X148111034Y-104269163D01*
X148099720Y-104264267D01*
X148099719Y-104264267D01*
X148092445Y-104261119D01*
X148084622Y-104259880D01*
X148084612Y-104259877D01*
X148048776Y-104254201D01*
X148037156Y-104251795D01*
X148002011Y-104242772D01*
X148002010Y-104242772D01*
X147994330Y-104240800D01*
X147974076Y-104240800D01*
X147954365Y-104239249D01*
X147942186Y-104237320D01*
X147934357Y-104236080D01*
X147905086Y-104238847D01*
X147890339Y-104240241D01*
X147878481Y-104240800D01*
X144008767Y-104240800D01*
X143997584Y-104240273D01*
X143990091Y-104238598D01*
X143982165Y-104238847D01*
X143982164Y-104238847D01*
X143922014Y-104240738D01*
X143918055Y-104240800D01*
X143890144Y-104240800D01*
X143886210Y-104241297D01*
X143886209Y-104241297D01*
X143886144Y-104241305D01*
X143874307Y-104242238D01*
X143842490Y-104243238D01*
X143838029Y-104243378D01*
X143830110Y-104243627D01*
X143816796Y-104247495D01*
X143810658Y-104249278D01*
X143791306Y-104253286D01*
X143784235Y-104254180D01*
X143771203Y-104255826D01*
X143763834Y-104258743D01*
X143763832Y-104258744D01*
X143730097Y-104272100D01*
X143718869Y-104275945D01*
X143676407Y-104288282D01*
X143663643Y-104295831D01*
X143594827Y-104313293D01*
X143527495Y-104290779D01*
X143483024Y-104235436D01*
X143473500Y-104187380D01*
X143473500Y-104102600D01*
X143472566Y-104093600D01*
X143463238Y-104003692D01*
X143463237Y-104003688D01*
X143462526Y-103996834D01*
X143435762Y-103916611D01*
X143408868Y-103836002D01*
X143406550Y-103829054D01*
X143313478Y-103678652D01*
X143188303Y-103553695D01*
X143184084Y-103551094D01*
X143143583Y-103493970D01*
X143140351Y-103423047D01*
X143175976Y-103361635D01*
X143183530Y-103355078D01*
X143189348Y-103351478D01*
X143314305Y-103226303D01*
X143386684Y-103108883D01*
X143439455Y-103061391D01*
X143493943Y-103049000D01*
X143701733Y-103049000D01*
X143712916Y-103049527D01*
X143720409Y-103051202D01*
X143728335Y-103050953D01*
X143728336Y-103050953D01*
X143788486Y-103049062D01*
X143792445Y-103049000D01*
X143820356Y-103049000D01*
X143824291Y-103048503D01*
X143824356Y-103048495D01*
X143836193Y-103047562D01*
X143868451Y-103046548D01*
X143872470Y-103046422D01*
X143880389Y-103046173D01*
X143899843Y-103040521D01*
X143919200Y-103036513D01*
X143931430Y-103034968D01*
X143931431Y-103034968D01*
X143939297Y-103033974D01*
X143946668Y-103031055D01*
X143946670Y-103031055D01*
X143980412Y-103017696D01*
X143991642Y-103013851D01*
X144026483Y-103003729D01*
X144026484Y-103003729D01*
X144034093Y-103001518D01*
X144040912Y-102997485D01*
X144040917Y-102997483D01*
X144051528Y-102991207D01*
X144069276Y-102982512D01*
X144088117Y-102975052D01*
X144100219Y-102966260D01*
X144123887Y-102949064D01*
X144133807Y-102942548D01*
X144165035Y-102924080D01*
X144165038Y-102924078D01*
X144171862Y-102920042D01*
X144186183Y-102905721D01*
X144201217Y-102892880D01*
X144211194Y-102885631D01*
X144217607Y-102880972D01*
X144245798Y-102846895D01*
X144253788Y-102838116D01*
X144317387Y-102774517D01*
X144379699Y-102740491D01*
X144452865Y-102746460D01*
X144508923Y-102768655D01*
X144508925Y-102768656D01*
X144516453Y-102771636D01*
X144606228Y-102782500D01*
X145207772Y-102782500D01*
X145297547Y-102771636D01*
X145305075Y-102768656D01*
X145305077Y-102768655D01*
X145363817Y-102745398D01*
X145437783Y-102716113D01*
X145444621Y-102710923D01*
X145444624Y-102710921D01*
X145466235Y-102694517D01*
X145532589Y-102669264D01*
X145602062Y-102683893D01*
X145618595Y-102694518D01*
X145639624Y-102710480D01*
X145654451Y-102718835D01*
X145779047Y-102768166D01*
X145794612Y-102772119D01*
X145872502Y-102781544D01*
X145880057Y-102782000D01*
X145904885Y-102782000D01*
X145920124Y-102777525D01*
X145921329Y-102776135D01*
X145923000Y-102768452D01*
X145923000Y-99814115D01*
X145918525Y-99798876D01*
X145917135Y-99797671D01*
X145909452Y-99796000D01*
X145880057Y-99796000D01*
X145872502Y-99796456D01*
X145794612Y-99805881D01*
X145779047Y-99809834D01*
X145654451Y-99859165D01*
X145639624Y-99867520D01*
X145618595Y-99883482D01*
X145552242Y-99908736D01*
X145482768Y-99894108D01*
X145466235Y-99883483D01*
X145444624Y-99867079D01*
X145444621Y-99867077D01*
X145437783Y-99861887D01*
X145355807Y-99829430D01*
X145305077Y-99809345D01*
X145305075Y-99809344D01*
X145297547Y-99806364D01*
X145207772Y-99795500D01*
X144606228Y-99795500D01*
X144516453Y-99806364D01*
X144508925Y-99809344D01*
X144508923Y-99809345D01*
X144439832Y-99836700D01*
X144376217Y-99861887D01*
X144256078Y-99953078D01*
X144164887Y-100073217D01*
X144109364Y-100213453D01*
X144098500Y-100303228D01*
X144098500Y-101149405D01*
X144078498Y-101217526D01*
X144061595Y-101238501D01*
X143572383Y-101727712D01*
X143510071Y-101761737D01*
X143439255Y-101756672D01*
X143382420Y-101714125D01*
X143376144Y-101704919D01*
X143368540Y-101692630D01*
X143313478Y-101603652D01*
X143188303Y-101478695D01*
X143117383Y-101434979D01*
X143043968Y-101389725D01*
X143043966Y-101389724D01*
X143037738Y-101385885D01*
X142922354Y-101347614D01*
X142876389Y-101332368D01*
X142876387Y-101332368D01*
X142869861Y-101330203D01*
X142863025Y-101329503D01*
X142863022Y-101329502D01*
X142819969Y-101325091D01*
X142765400Y-101319500D01*
X141714600Y-101319500D01*
X141711354Y-101319837D01*
X141711350Y-101319837D01*
X141615692Y-101329762D01*
X141615688Y-101329763D01*
X141608834Y-101330474D01*
X141602298Y-101332655D01*
X141602296Y-101332655D01*
X141557459Y-101347614D01*
X141441054Y-101386450D01*
X141290652Y-101479522D01*
X141165695Y-101604697D01*
X141161855Y-101610927D01*
X141161854Y-101610928D01*
X141096969Y-101716190D01*
X141044196Y-101763684D01*
X140974125Y-101775107D01*
X140909001Y-101746832D01*
X140872005Y-101692615D01*
X140871973Y-101692630D01*
X140871881Y-101692433D01*
X140870185Y-101689948D01*
X140868870Y-101686006D01*
X140868868Y-101686001D01*
X140866550Y-101679054D01*
X140773478Y-101528652D01*
X140648303Y-101403695D01*
X140575795Y-101359000D01*
X140503968Y-101314725D01*
X140503966Y-101314724D01*
X140497738Y-101310885D01*
X140337254Y-101257655D01*
X140336389Y-101257368D01*
X140336387Y-101257368D01*
X140329861Y-101255203D01*
X140323025Y-101254503D01*
X140323022Y-101254502D01*
X140279969Y-101250091D01*
X140225400Y-101244500D01*
X139174600Y-101244500D01*
X139171354Y-101244837D01*
X139171350Y-101244837D01*
X139075692Y-101254762D01*
X139075688Y-101254763D01*
X139068834Y-101255474D01*
X139062298Y-101257655D01*
X139062296Y-101257655D01*
X138979309Y-101285342D01*
X138901054Y-101311450D01*
X138750652Y-101404522D01*
X138625695Y-101529697D01*
X138621855Y-101535927D01*
X138621854Y-101535928D01*
X138575271Y-101611500D01*
X138532885Y-101680262D01*
X138477203Y-101848139D01*
X138476503Y-101854975D01*
X138476502Y-101854978D01*
X138472091Y-101898031D01*
X138466500Y-101952600D01*
X138466500Y-102728400D01*
X138466837Y-102731646D01*
X138466837Y-102731650D01*
X138474265Y-102803234D01*
X138477474Y-102834166D01*
X138479655Y-102840702D01*
X138479655Y-102840704D01*
X138508265Y-102926458D01*
X138533450Y-103001946D01*
X138626522Y-103152348D01*
X138751697Y-103277305D01*
X138755916Y-103279906D01*
X138796417Y-103337030D01*
X138799649Y-103407953D01*
X138764024Y-103469365D01*
X138756470Y-103475922D01*
X138750652Y-103479522D01*
X138625695Y-103604697D01*
X138532885Y-103755262D01*
X138477203Y-103923139D01*
X138466500Y-104027600D01*
X138466500Y-104195307D01*
X138446498Y-104263428D01*
X138392842Y-104309921D01*
X138322568Y-104320025D01*
X138299544Y-104313381D01*
X138299300Y-104314132D01*
X138293020Y-104312092D01*
X138286988Y-104309406D01*
X138177211Y-104286072D01*
X138106644Y-104271072D01*
X138106639Y-104271072D01*
X138100187Y-104269700D01*
X137909213Y-104269700D01*
X137902761Y-104271072D01*
X137902756Y-104271072D01*
X137832189Y-104286072D01*
X137722412Y-104309406D01*
X137716382Y-104312091D01*
X137716381Y-104312091D01*
X137553978Y-104384397D01*
X137553976Y-104384398D01*
X137547948Y-104387082D01*
X137542607Y-104390962D01*
X137542606Y-104390963D01*
X137518017Y-104408828D01*
X137393447Y-104499334D01*
X137389026Y-104504244D01*
X137389025Y-104504245D01*
X137282027Y-104623079D01*
X137265660Y-104641256D01*
X137262359Y-104646974D01*
X137180452Y-104788841D01*
X137170173Y-104806644D01*
X137111158Y-104988272D01*
X137110468Y-104994833D01*
X137110468Y-104994835D01*
X137108256Y-105015882D01*
X137093956Y-105151946D01*
X137093793Y-105153493D01*
X137066780Y-105219150D01*
X137057578Y-105229418D01*
X136015400Y-106271595D01*
X135953088Y-106305621D01*
X135926305Y-106308500D01*
X135365188Y-106308500D01*
X135297067Y-106288498D01*
X135250574Y-106234842D01*
X135245149Y-106219748D01*
X135244481Y-106214676D01*
X135240071Y-106204028D01*
X135197712Y-106101766D01*
X135185686Y-106072732D01*
X135092157Y-105950843D01*
X135085605Y-105945815D01*
X134976818Y-105862341D01*
X134970267Y-105857314D01*
X134962637Y-105854154D01*
X134961176Y-105853310D01*
X134912182Y-105801928D01*
X134898745Y-105732214D01*
X134925132Y-105666303D01*
X134930539Y-105659880D01*
X135034921Y-105543952D01*
X135034922Y-105543951D01*
X135039340Y-105539044D01*
X135116154Y-105405998D01*
X135131523Y-105379379D01*
X135131524Y-105379378D01*
X135134827Y-105373656D01*
X135193842Y-105192028D01*
X135195296Y-105178200D01*
X135213114Y-105008665D01*
X135213804Y-105002100D01*
X135200265Y-104873286D01*
X135194532Y-104818735D01*
X135194532Y-104818733D01*
X135193842Y-104812172D01*
X135134827Y-104630544D01*
X135128024Y-104618760D01*
X135053687Y-104490006D01*
X135039340Y-104465156D01*
X135009730Y-104432270D01*
X134915975Y-104328145D01*
X134915974Y-104328144D01*
X134911553Y-104323234D01*
X134798093Y-104240800D01*
X134762394Y-104214863D01*
X134762393Y-104214862D01*
X134757052Y-104210982D01*
X134751024Y-104208298D01*
X134751022Y-104208297D01*
X134588619Y-104135991D01*
X134588618Y-104135991D01*
X134582588Y-104133306D01*
X134489188Y-104113453D01*
X134402244Y-104094972D01*
X134402239Y-104094972D01*
X134395787Y-104093600D01*
X134204813Y-104093600D01*
X134198361Y-104094972D01*
X134198356Y-104094972D01*
X134111412Y-104113453D01*
X134018012Y-104133306D01*
X134011982Y-104135991D01*
X134011981Y-104135991D01*
X133849578Y-104208297D01*
X133849576Y-104208298D01*
X133843548Y-104210982D01*
X133838207Y-104214862D01*
X133838206Y-104214863D01*
X133802507Y-104240800D01*
X133689047Y-104323234D01*
X133684626Y-104328144D01*
X133684625Y-104328145D01*
X133590871Y-104432270D01*
X133561260Y-104465156D01*
X133546913Y-104490006D01*
X133472577Y-104618760D01*
X133465773Y-104630544D01*
X133406758Y-104812172D01*
X133406068Y-104818733D01*
X133406068Y-104818735D01*
X133400335Y-104873286D01*
X133386796Y-105002100D01*
X133387486Y-105008665D01*
X133400571Y-105133160D01*
X133397303Y-105177664D01*
X133392500Y-105196370D01*
X133392500Y-105216624D01*
X133390949Y-105236334D01*
X133387780Y-105256343D01*
X133388526Y-105264235D01*
X133391941Y-105300361D01*
X133392500Y-105312219D01*
X133392500Y-105665794D01*
X133372498Y-105733915D01*
X133318842Y-105780408D01*
X133282947Y-105790716D01*
X133223676Y-105798519D01*
X133216049Y-105801678D01*
X133216046Y-105801679D01*
X133187139Y-105813653D01*
X133081732Y-105857314D01*
X132959843Y-105950843D01*
X132954817Y-105957393D01*
X132954816Y-105957394D01*
X132943606Y-105972003D01*
X132866314Y-106072733D01*
X132845242Y-106123605D01*
X132813461Y-106200332D01*
X132807519Y-106214676D01*
X132792500Y-106328756D01*
X132792500Y-106555244D01*
X132793038Y-106559330D01*
X132793038Y-106559331D01*
X132807519Y-106669324D01*
X132805974Y-106669527D01*
X132805974Y-106714473D01*
X132807519Y-106714676D01*
X132792500Y-106828756D01*
X132792500Y-107055244D01*
X132793038Y-107059330D01*
X132793038Y-107059331D01*
X132807519Y-107169324D01*
X132806234Y-107169493D01*
X132806235Y-107214573D01*
X132808006Y-107214806D01*
X132800208Y-107274040D01*
X132802419Y-107288222D01*
X132821784Y-107293783D01*
X132881737Y-107331811D01*
X132886967Y-107338184D01*
X132907771Y-107365296D01*
X132933372Y-107431516D01*
X132919108Y-107501065D01*
X132907771Y-107518705D01*
X132886897Y-107545908D01*
X132829558Y-107587775D01*
X132822433Y-107590099D01*
X132802187Y-107596044D01*
X132800158Y-107609583D01*
X132808006Y-107669194D01*
X132806235Y-107669427D01*
X132806234Y-107714507D01*
X132807519Y-107714676D01*
X132792500Y-107828756D01*
X132792500Y-108055244D01*
X132793038Y-108059330D01*
X132793038Y-108059331D01*
X132807519Y-108169324D01*
X132805974Y-108169527D01*
X132805974Y-108214473D01*
X132807519Y-108214676D01*
X132796283Y-108300025D01*
X132792500Y-108328756D01*
X132792500Y-108434606D01*
X132772498Y-108502727D01*
X132718842Y-108549220D01*
X132648568Y-108559324D01*
X132583988Y-108529830D01*
X132577405Y-108523701D01*
X131902205Y-107848500D01*
X131103452Y-107049747D01*
X131095912Y-107041461D01*
X131091800Y-107034982D01*
X131042148Y-106988356D01*
X131039307Y-106985602D01*
X131019570Y-106965865D01*
X131016373Y-106963385D01*
X131007351Y-106955680D01*
X130980900Y-106930841D01*
X130975121Y-106925414D01*
X130968175Y-106921595D01*
X130968172Y-106921593D01*
X130957366Y-106915652D01*
X130940847Y-106904801D01*
X130940480Y-106904516D01*
X130924841Y-106892386D01*
X130917562Y-106889236D01*
X130916013Y-106888320D01*
X130867559Y-106836427D01*
X130855229Y-106796314D01*
X130844481Y-106714676D01*
X130846026Y-106714473D01*
X130846026Y-106669527D01*
X130844481Y-106669324D01*
X130858962Y-106559331D01*
X130858962Y-106559330D01*
X130859500Y-106555244D01*
X130859500Y-106328756D01*
X130844481Y-106214676D01*
X130840071Y-106204028D01*
X130797712Y-106101766D01*
X130785686Y-106072732D01*
X130692157Y-105950843D01*
X130685605Y-105945815D01*
X130576818Y-105862341D01*
X130570267Y-105857314D01*
X130428324Y-105798519D01*
X130344627Y-105787500D01*
X130318331Y-105784038D01*
X130318330Y-105784038D01*
X130314244Y-105783500D01*
X129915595Y-105783500D01*
X129847474Y-105763498D01*
X129826499Y-105746595D01*
X129483037Y-105403132D01*
X129110547Y-105030642D01*
X129103013Y-105022363D01*
X129098900Y-105015882D01*
X129049248Y-104969256D01*
X129046407Y-104966502D01*
X129026670Y-104946765D01*
X129023473Y-104944285D01*
X129014451Y-104936580D01*
X128988000Y-104911741D01*
X128982221Y-104906314D01*
X128975275Y-104902495D01*
X128975272Y-104902493D01*
X128964466Y-104896552D01*
X128947947Y-104885701D01*
X128938534Y-104878400D01*
X128931941Y-104873286D01*
X128924672Y-104870141D01*
X128924668Y-104870138D01*
X128891363Y-104855726D01*
X128880713Y-104850509D01*
X128841960Y-104829205D01*
X128822337Y-104824167D01*
X128803634Y-104817763D01*
X128792320Y-104812867D01*
X128792319Y-104812867D01*
X128785045Y-104809719D01*
X128777222Y-104808480D01*
X128777212Y-104808477D01*
X128741376Y-104802801D01*
X128729756Y-104800395D01*
X128694611Y-104791372D01*
X128694610Y-104791372D01*
X128686930Y-104789400D01*
X128666676Y-104789400D01*
X128646965Y-104787849D01*
X128634786Y-104785920D01*
X128626957Y-104784680D01*
X128619065Y-104785426D01*
X128582939Y-104788841D01*
X128571081Y-104789400D01*
X127293900Y-104789400D01*
X127225779Y-104769398D01*
X127206553Y-104753057D01*
X127206280Y-104753360D01*
X127201368Y-104748937D01*
X127196953Y-104744034D01*
X127042452Y-104631782D01*
X127036424Y-104629098D01*
X127036422Y-104629097D01*
X126874019Y-104556791D01*
X126874018Y-104556791D01*
X126867988Y-104554106D01*
X126774588Y-104534253D01*
X126687644Y-104515772D01*
X126687639Y-104515772D01*
X126681187Y-104514400D01*
X126625295Y-104514400D01*
X126557174Y-104494398D01*
X126536200Y-104477495D01*
X125065352Y-103006647D01*
X125057812Y-102998361D01*
X125053700Y-102991882D01*
X125043716Y-102982506D01*
X125004049Y-102945257D01*
X125001207Y-102942502D01*
X124981470Y-102922765D01*
X124978273Y-102920285D01*
X124969251Y-102912580D01*
X124942800Y-102887741D01*
X124937021Y-102882314D01*
X124930075Y-102878495D01*
X124930072Y-102878493D01*
X124919266Y-102872552D01*
X124902747Y-102861701D01*
X124895924Y-102856409D01*
X124886741Y-102849286D01*
X124879472Y-102846141D01*
X124879468Y-102846138D01*
X124846163Y-102831726D01*
X124835513Y-102826509D01*
X124796760Y-102805205D01*
X124777137Y-102800167D01*
X124758434Y-102793763D01*
X124747120Y-102788867D01*
X124747119Y-102788867D01*
X124739845Y-102785719D01*
X124732022Y-102784480D01*
X124732012Y-102784477D01*
X124696176Y-102778801D01*
X124684556Y-102776395D01*
X124649411Y-102767372D01*
X124649410Y-102767372D01*
X124641730Y-102765400D01*
X124621476Y-102765400D01*
X124601765Y-102763849D01*
X124589586Y-102761920D01*
X124581757Y-102760680D01*
X124573865Y-102761426D01*
X124537739Y-102764841D01*
X124525881Y-102765400D01*
X120990674Y-102765400D01*
X120922553Y-102745398D01*
X120876060Y-102691742D01*
X120865956Y-102621468D01*
X120895450Y-102556888D01*
X120924832Y-102532886D01*
X120926783Y-102532113D01*
X120953778Y-102511623D01*
X121040087Y-102446110D01*
X121046922Y-102440922D01*
X121138113Y-102320783D01*
X121193636Y-102180547D01*
X121204500Y-102090772D01*
X121204500Y-100119228D01*
X121193636Y-100029453D01*
X121138113Y-99889217D01*
X121046922Y-99769078D01*
X120926783Y-99677887D01*
X120839666Y-99643395D01*
X120794077Y-99625345D01*
X120794075Y-99625344D01*
X120786547Y-99622364D01*
X120696772Y-99611500D01*
X120324695Y-99611500D01*
X120256574Y-99591498D01*
X120235600Y-99574595D01*
X118277071Y-97616066D01*
X118243045Y-97553754D01*
X118248110Y-97482939D01*
X118262951Y-97454703D01*
X118275523Y-97436749D01*
X118277846Y-97431767D01*
X118277849Y-97431762D01*
X118369961Y-97234225D01*
X118369961Y-97234224D01*
X118372284Y-97229243D01*
X118427176Y-97024387D01*
X118430119Y-97013402D01*
X118430119Y-97013400D01*
X118431543Y-97008087D01*
X118446500Y-96837127D01*
X118446500Y-95822873D01*
X118431543Y-95651913D01*
X118392087Y-95504661D01*
X118373707Y-95436067D01*
X118373706Y-95436065D01*
X118372284Y-95430757D01*
X118352968Y-95389334D01*
X118277849Y-95228238D01*
X118277846Y-95228233D01*
X118275523Y-95223251D01*
X118193339Y-95105880D01*
X118147357Y-95040211D01*
X118147355Y-95040208D01*
X118144198Y-95035700D01*
X117982300Y-94873802D01*
X117977792Y-94870645D01*
X117977789Y-94870643D01*
X117857836Y-94786651D01*
X117794749Y-94742477D01*
X117789767Y-94740154D01*
X117789762Y-94740151D01*
X117592225Y-94648039D01*
X117592224Y-94648039D01*
X117587243Y-94645716D01*
X117581935Y-94644294D01*
X117581933Y-94644293D01*
X117371402Y-94587881D01*
X117371400Y-94587881D01*
X117366087Y-94586457D01*
X117138000Y-94566502D01*
X116909913Y-94586457D01*
X116904600Y-94587881D01*
X116904598Y-94587881D01*
X116694067Y-94644293D01*
X116694065Y-94644294D01*
X116688757Y-94645716D01*
X116683776Y-94648039D01*
X116683775Y-94648039D01*
X116486238Y-94740151D01*
X116486233Y-94740154D01*
X116481251Y-94742477D01*
X116418164Y-94786651D01*
X116298211Y-94870643D01*
X116298208Y-94870645D01*
X116293700Y-94873802D01*
X116131802Y-95035700D01*
X116128645Y-95040208D01*
X116128643Y-95040211D01*
X116082661Y-95105880D01*
X116000477Y-95223251D01*
X115998154Y-95228233D01*
X115998151Y-95228238D01*
X115982195Y-95262457D01*
X115935278Y-95315742D01*
X115867001Y-95335203D01*
X115799041Y-95314661D01*
X115753805Y-95262457D01*
X115737849Y-95228238D01*
X115737846Y-95228233D01*
X115735523Y-95223251D01*
X115653339Y-95105880D01*
X115607357Y-95040211D01*
X115607355Y-95040208D01*
X115604198Y-95035700D01*
X115442300Y-94873802D01*
X115437792Y-94870645D01*
X115437789Y-94870643D01*
X115317836Y-94786651D01*
X115254749Y-94742477D01*
X115249767Y-94740154D01*
X115249762Y-94740151D01*
X115052225Y-94648039D01*
X115052224Y-94648039D01*
X115047243Y-94645716D01*
X115041935Y-94644294D01*
X115041933Y-94644293D01*
X114831402Y-94587881D01*
X114831400Y-94587881D01*
X114826087Y-94586457D01*
X114598000Y-94566502D01*
X114369913Y-94586457D01*
X114364600Y-94587881D01*
X114364598Y-94587881D01*
X114154067Y-94644293D01*
X114154065Y-94644294D01*
X114148757Y-94645716D01*
X114143776Y-94648039D01*
X114143775Y-94648039D01*
X113946238Y-94740151D01*
X113946233Y-94740154D01*
X113941251Y-94742477D01*
X113878164Y-94786651D01*
X113758211Y-94870643D01*
X113758208Y-94870645D01*
X113753700Y-94873802D01*
X113591802Y-95035700D01*
X113588645Y-95040208D01*
X113588643Y-95040211D01*
X113542661Y-95105880D01*
X113460477Y-95223251D01*
X113458153Y-95228236D01*
X113458149Y-95228242D01*
X113422479Y-95304738D01*
X113375562Y-95358024D01*
X113307285Y-95377485D01*
X113239325Y-95356944D01*
X113219188Y-95340584D01*
X113078429Y-95199824D01*
X113044404Y-95137512D01*
X113049469Y-95066696D01*
X113092016Y-95009861D01*
X113108761Y-94999272D01*
X113240361Y-94929888D01*
X113240372Y-94929881D01*
X113244071Y-94927931D01*
X113488633Y-94754129D01*
X113708061Y-94549510D01*
X113898498Y-94317667D01*
X114056600Y-94062675D01*
X114179589Y-93789012D01*
X114243034Y-93576190D01*
X114264112Y-93505486D01*
X114264112Y-93505484D01*
X114265304Y-93501487D01*
X114312239Y-93205152D01*
X114316500Y-93111319D01*
X114316500Y-93076107D01*
X119959500Y-93076107D01*
X119974329Y-93299370D01*
X119975154Y-93303464D01*
X119975155Y-93303468D01*
X119993642Y-93395152D01*
X120033632Y-93593480D01*
X120131312Y-93877163D01*
X120133181Y-93880896D01*
X120133183Y-93880900D01*
X120253328Y-94120823D01*
X120265653Y-94145435D01*
X120268008Y-94148900D01*
X120428804Y-94385505D01*
X120434294Y-94393584D01*
X120634274Y-94617248D01*
X120637444Y-94619965D01*
X120637445Y-94619966D01*
X120858903Y-94809779D01*
X120858907Y-94809782D01*
X120862077Y-94812499D01*
X120865579Y-94814773D01*
X120865584Y-94814777D01*
X121110193Y-94973628D01*
X121110198Y-94973631D01*
X121113703Y-94975907D01*
X121117482Y-94977701D01*
X121117483Y-94977702D01*
X121163977Y-94999779D01*
X121384730Y-95104600D01*
X121388713Y-95105879D01*
X121388716Y-95105880D01*
X121641657Y-95187091D01*
X121670396Y-95196318D01*
X121689882Y-95199824D01*
X121961575Y-95248709D01*
X121961580Y-95248710D01*
X121965684Y-95249448D01*
X121969851Y-95249637D01*
X121969858Y-95249638D01*
X122261234Y-95262870D01*
X122261240Y-95262870D01*
X122265404Y-95263059D01*
X122269552Y-95262696D01*
X122269556Y-95262696D01*
X122460290Y-95246008D01*
X122564292Y-95236909D01*
X122568364Y-95235999D01*
X122568369Y-95235998D01*
X122853016Y-95172372D01*
X122853019Y-95172371D01*
X122857095Y-95171460D01*
X123138671Y-95067860D01*
X123142359Y-95065916D01*
X123142367Y-95065912D01*
X123400367Y-94929884D01*
X123400368Y-94929883D01*
X123404071Y-94927931D01*
X123648633Y-94754129D01*
X123868061Y-94549510D01*
X124058498Y-94317667D01*
X124216600Y-94062675D01*
X124339589Y-93789012D01*
X124403034Y-93576190D01*
X124424112Y-93505486D01*
X124424112Y-93505484D01*
X124425304Y-93501487D01*
X124472239Y-93205152D01*
X124476500Y-93111319D01*
X124476500Y-91809259D01*
X129351587Y-91809259D01*
X129369992Y-92172574D01*
X129370529Y-92175929D01*
X129370530Y-92175935D01*
X129410211Y-92423670D01*
X129427527Y-92531777D01*
X129523519Y-92882664D01*
X129656845Y-93221133D01*
X129658428Y-93224148D01*
X129824362Y-93540206D01*
X129824367Y-93540214D01*
X129825946Y-93543222D01*
X129827840Y-93546040D01*
X129827845Y-93546049D01*
X129928263Y-93695486D01*
X130028843Y-93845165D01*
X130263163Y-94123428D01*
X130289818Y-94148900D01*
X130523702Y-94372405D01*
X130523709Y-94372411D01*
X130526165Y-94374758D01*
X130814771Y-94596214D01*
X130843874Y-94613909D01*
X131122692Y-94783433D01*
X131122697Y-94783436D01*
X131125607Y-94785205D01*
X131128695Y-94786651D01*
X131128694Y-94786651D01*
X131451952Y-94938077D01*
X131451962Y-94938081D01*
X131455036Y-94939521D01*
X131458254Y-94940623D01*
X131458257Y-94940624D01*
X131795981Y-95056253D01*
X131795989Y-95056255D01*
X131799204Y-95057356D01*
X132154084Y-95137332D01*
X132207123Y-95143375D01*
X132512144Y-95178128D01*
X132512152Y-95178128D01*
X132515527Y-95178513D01*
X132518931Y-95178531D01*
X132518934Y-95178531D01*
X132717058Y-95179568D01*
X132879303Y-95180418D01*
X132882689Y-95180068D01*
X132882691Y-95180068D01*
X133237765Y-95143375D01*
X133237774Y-95143374D01*
X133241157Y-95143024D01*
X133244490Y-95142310D01*
X133244493Y-95142309D01*
X133369516Y-95115506D01*
X133596856Y-95066768D01*
X133942239Y-94952544D01*
X133945323Y-94951138D01*
X133945332Y-94951135D01*
X134270171Y-94803096D01*
X134273265Y-94801686D01*
X134349364Y-94756502D01*
X134583128Y-94617704D01*
X134583132Y-94617701D01*
X134586063Y-94615961D01*
X134876973Y-94397539D01*
X135142592Y-94148977D01*
X135379813Y-93873182D01*
X135507522Y-93687365D01*
X135583931Y-93576190D01*
X135583936Y-93576182D01*
X135585861Y-93573381D01*
X135587473Y-93570387D01*
X135587478Y-93570379D01*
X135756703Y-93256092D01*
X135758325Y-93253080D01*
X135895188Y-92916027D01*
X135916988Y-92839500D01*
X135942367Y-92750405D01*
X135994850Y-92566164D01*
X136056143Y-92207583D01*
X136058285Y-92172574D01*
X136078241Y-91846278D01*
X136078351Y-91844481D01*
X136078433Y-91821000D01*
X136058760Y-91457751D01*
X135999972Y-91098752D01*
X135902756Y-90748202D01*
X135898331Y-90737081D01*
X135769508Y-90413365D01*
X135768249Y-90410201D01*
X135737690Y-90352485D01*
X135599624Y-90091723D01*
X135599620Y-90091716D01*
X135598025Y-90088704D01*
X135596118Y-90085888D01*
X135596113Y-90085879D01*
X135395985Y-89790292D01*
X135394075Y-89787471D01*
X135158785Y-89510027D01*
X135026847Y-89384822D01*
X134897375Y-89261958D01*
X134897374Y-89261957D01*
X134894908Y-89259617D01*
X134605530Y-89039170D01*
X134602618Y-89037413D01*
X134602613Y-89037410D01*
X134296951Y-88853023D01*
X134296945Y-88853020D01*
X134294036Y-88851265D01*
X133964071Y-88698100D01*
X133619494Y-88581467D01*
X133610234Y-88579414D01*
X133535485Y-88562843D01*
X133264336Y-88502731D01*
X133135217Y-88488476D01*
X132906133Y-88463184D01*
X132906128Y-88463184D01*
X132902752Y-88462811D01*
X132899353Y-88462805D01*
X132899352Y-88462805D01*
X132727762Y-88462506D01*
X132538972Y-88462176D01*
X132403831Y-88476618D01*
X132180634Y-88500471D01*
X132180628Y-88500472D01*
X132177250Y-88500833D01*
X131821820Y-88578330D01*
X131476838Y-88693759D01*
X131146340Y-88845771D01*
X130834192Y-89032588D01*
X130544046Y-89252023D01*
X130279296Y-89501511D01*
X130277084Y-89504101D01*
X130277083Y-89504102D01*
X130183313Y-89613893D01*
X130043040Y-89778132D01*
X129838040Y-90078651D01*
X129666694Y-90399552D01*
X129665419Y-90402724D01*
X129665417Y-90402728D01*
X129663626Y-90407185D01*
X129531009Y-90737081D01*
X129432569Y-91087290D01*
X129372528Y-91446082D01*
X129351587Y-91809259D01*
X124476500Y-91809259D01*
X124476500Y-89423893D01*
X124461671Y-89200630D01*
X124458422Y-89184514D01*
X124427788Y-89032588D01*
X124402368Y-88906520D01*
X124304688Y-88622837D01*
X124283972Y-88581467D01*
X124172222Y-88358309D01*
X124172221Y-88358307D01*
X124170347Y-88354565D01*
X124099294Y-88250013D01*
X124004057Y-88109875D01*
X124004055Y-88109872D01*
X124001706Y-88106416D01*
X123801726Y-87882752D01*
X123792942Y-87875223D01*
X123577097Y-87690221D01*
X123577093Y-87690218D01*
X123573923Y-87687501D01*
X123570421Y-87685227D01*
X123570416Y-87685223D01*
X123325807Y-87526372D01*
X123325802Y-87526369D01*
X123322297Y-87524093D01*
X123313644Y-87519984D01*
X123125607Y-87430698D01*
X123051270Y-87395400D01*
X123047287Y-87394121D01*
X123047284Y-87394120D01*
X122769591Y-87304962D01*
X122769590Y-87304962D01*
X122765604Y-87303682D01*
X122684736Y-87289132D01*
X122474425Y-87251291D01*
X122474420Y-87251290D01*
X122470316Y-87250552D01*
X122466149Y-87250363D01*
X122466142Y-87250362D01*
X122174766Y-87237130D01*
X122174760Y-87237130D01*
X122170596Y-87236941D01*
X122166448Y-87237304D01*
X122166444Y-87237304D01*
X122006579Y-87251291D01*
X121871708Y-87263091D01*
X121867636Y-87264001D01*
X121867631Y-87264002D01*
X121582984Y-87327628D01*
X121582981Y-87327629D01*
X121578905Y-87328540D01*
X121297329Y-87432140D01*
X121293641Y-87434084D01*
X121293633Y-87434088D01*
X121118601Y-87526372D01*
X121031929Y-87572069D01*
X120787367Y-87745871D01*
X120567939Y-87950490D01*
X120377502Y-88182333D01*
X120219400Y-88437325D01*
X120217684Y-88441142D01*
X120217683Y-88441145D01*
X120191021Y-88500471D01*
X120096411Y-88710988D01*
X120010696Y-88998513D01*
X120010043Y-89002633D01*
X120010043Y-89002635D01*
X120003930Y-89041232D01*
X119963761Y-89294848D01*
X119963602Y-89298357D01*
X119959598Y-89386532D01*
X119959500Y-89388681D01*
X119959500Y-93076107D01*
X114316500Y-93076107D01*
X114316500Y-89423893D01*
X114301671Y-89200630D01*
X114298422Y-89184514D01*
X114267788Y-89032588D01*
X114242368Y-88906520D01*
X114144688Y-88622837D01*
X114123972Y-88581467D01*
X114012222Y-88358309D01*
X114012221Y-88358307D01*
X114010347Y-88354565D01*
X113939294Y-88250013D01*
X113844057Y-88109875D01*
X113844055Y-88109872D01*
X113841706Y-88106416D01*
X113641726Y-87882752D01*
X113632942Y-87875223D01*
X113417097Y-87690221D01*
X113417093Y-87690218D01*
X113413923Y-87687501D01*
X113410421Y-87685227D01*
X113410416Y-87685223D01*
X113165807Y-87526372D01*
X113165802Y-87526369D01*
X113162297Y-87524093D01*
X113153644Y-87519984D01*
X112965607Y-87430698D01*
X112891270Y-87395400D01*
X112887287Y-87394121D01*
X112887284Y-87394120D01*
X112609591Y-87304962D01*
X112609590Y-87304962D01*
X112605604Y-87303682D01*
X112524736Y-87289132D01*
X112314425Y-87251291D01*
X112314420Y-87251290D01*
X112310316Y-87250552D01*
X112306149Y-87250363D01*
X112306142Y-87250362D01*
X112014766Y-87237130D01*
X112014760Y-87237130D01*
X112010596Y-87236941D01*
X112006448Y-87237304D01*
X112006444Y-87237304D01*
X111846579Y-87251291D01*
X111711708Y-87263091D01*
X111707636Y-87264001D01*
X111707631Y-87264002D01*
X111422984Y-87327628D01*
X111422981Y-87327629D01*
X111418905Y-87328540D01*
X111137329Y-87432140D01*
X111133641Y-87434084D01*
X111133633Y-87434088D01*
X110958601Y-87526372D01*
X110871929Y-87572069D01*
X110627367Y-87745871D01*
X110407939Y-87950490D01*
X110217502Y-88182333D01*
X110059400Y-88437325D01*
X110057684Y-88441142D01*
X110057683Y-88441145D01*
X110031021Y-88500471D01*
X109936411Y-88710988D01*
X109850696Y-88998513D01*
X109850043Y-89002633D01*
X109850043Y-89002635D01*
X109843930Y-89041232D01*
X109803761Y-89294848D01*
X109803602Y-89298357D01*
X109799598Y-89386532D01*
X109799500Y-89388681D01*
X109799500Y-93076107D01*
X109814329Y-93299370D01*
X109815154Y-93303464D01*
X109815155Y-93303468D01*
X109833642Y-93395152D01*
X109873632Y-93593480D01*
X109971312Y-93877163D01*
X109973181Y-93880896D01*
X109973183Y-93880900D01*
X110093328Y-94120823D01*
X110105653Y-94145435D01*
X110108008Y-94148900D01*
X110268804Y-94385505D01*
X110274294Y-94393584D01*
X110474274Y-94617248D01*
X110477444Y-94619965D01*
X110477445Y-94619966D01*
X110698903Y-94809779D01*
X110698907Y-94809782D01*
X110702077Y-94812499D01*
X110705579Y-94814773D01*
X110705584Y-94814777D01*
X110950193Y-94973628D01*
X110950198Y-94973631D01*
X110953703Y-94975907D01*
X110957482Y-94977701D01*
X110957483Y-94977702D01*
X111003977Y-94999779D01*
X111224730Y-95104600D01*
X111228713Y-95105879D01*
X111228716Y-95105880D01*
X111357480Y-95147222D01*
X111416225Y-95187091D01*
X111439333Y-95232569D01*
X111439526Y-95234097D01*
X111442445Y-95241470D01*
X111442446Y-95241473D01*
X111455804Y-95275212D01*
X111459649Y-95286442D01*
X111467847Y-95314661D01*
X111471982Y-95328893D01*
X111476015Y-95335712D01*
X111476017Y-95335717D01*
X111482293Y-95346328D01*
X111490988Y-95364076D01*
X111498448Y-95382917D01*
X111503110Y-95389333D01*
X111503110Y-95389334D01*
X111524436Y-95418687D01*
X111530952Y-95428607D01*
X111532224Y-95430757D01*
X111553458Y-95466662D01*
X111567779Y-95480983D01*
X111580619Y-95496016D01*
X111592528Y-95512407D01*
X111598632Y-95517457D01*
X111598637Y-95517462D01*
X111626598Y-95540593D01*
X111635378Y-95548583D01*
X112327700Y-96240905D01*
X112361726Y-96303217D01*
X112356661Y-96374032D01*
X112327700Y-96419095D01*
X109562595Y-99184200D01*
X109500283Y-99218226D01*
X109429468Y-99213161D01*
X109372632Y-99170614D01*
X109347821Y-99104094D01*
X109347500Y-99095105D01*
X109347500Y-83819500D01*
X109367502Y-83751379D01*
X109421158Y-83704886D01*
X109473500Y-83693500D01*
X155194500Y-83693500D01*
X155262621Y-83713502D01*
G37*
%TD.AperFunction*%
%TA.AperFunction,Conductor*%
G36*
X128581432Y-123129838D02*
G01*
X128638268Y-123172385D01*
X128663079Y-123238905D01*
X128663400Y-123247894D01*
X128663400Y-123395385D01*
X128667875Y-123410624D01*
X128669265Y-123411829D01*
X128676948Y-123413500D01*
X129186900Y-123413500D01*
X129255021Y-123433502D01*
X129301514Y-123487158D01*
X129312900Y-123539500D01*
X129312900Y-123762700D01*
X129292898Y-123830821D01*
X129239242Y-123877314D01*
X129186900Y-123888700D01*
X128681516Y-123888700D01*
X128666277Y-123893175D01*
X128665072Y-123894565D01*
X128663401Y-123902248D01*
X128663401Y-124334000D01*
X128643399Y-124402121D01*
X128589743Y-124448614D01*
X128537401Y-124460000D01*
X125690394Y-124460000D01*
X125622273Y-124439998D01*
X125601299Y-124423095D01*
X125562799Y-124384595D01*
X125528773Y-124322283D01*
X125533838Y-124251468D01*
X125576385Y-124194632D01*
X125642905Y-124169821D01*
X125651894Y-124169500D01*
X125929900Y-124169500D01*
X125933146Y-124169163D01*
X125933150Y-124169163D01*
X126028808Y-124159238D01*
X126028812Y-124159237D01*
X126035666Y-124158526D01*
X126042202Y-124156345D01*
X126042204Y-124156345D01*
X126174306Y-124112272D01*
X126203446Y-124102550D01*
X126353848Y-124009478D01*
X126478805Y-123884303D01*
X126521498Y-123815042D01*
X126567775Y-123739968D01*
X126567776Y-123739966D01*
X126571615Y-123733738D01*
X126597455Y-123655833D01*
X126637886Y-123597473D01*
X126703450Y-123570236D01*
X126717048Y-123569500D01*
X127696433Y-123569500D01*
X127707616Y-123570027D01*
X127715109Y-123571702D01*
X127723035Y-123571453D01*
X127723036Y-123571453D01*
X127783186Y-123569562D01*
X127787145Y-123569500D01*
X127815056Y-123569500D01*
X127818991Y-123569003D01*
X127819056Y-123568995D01*
X127830893Y-123568062D01*
X127863151Y-123567048D01*
X127867170Y-123566922D01*
X127875089Y-123566673D01*
X127894543Y-123561021D01*
X127913900Y-123557013D01*
X127926130Y-123555468D01*
X127926131Y-123555468D01*
X127933997Y-123554474D01*
X127941368Y-123551555D01*
X127941370Y-123551555D01*
X127975112Y-123538196D01*
X127986342Y-123534351D01*
X128021183Y-123524229D01*
X128021184Y-123524229D01*
X128028793Y-123522018D01*
X128035612Y-123517985D01*
X128035617Y-123517983D01*
X128046228Y-123511707D01*
X128063976Y-123503012D01*
X128082817Y-123495552D01*
X128118587Y-123469564D01*
X128128507Y-123463048D01*
X128159735Y-123444580D01*
X128159738Y-123444578D01*
X128166562Y-123440542D01*
X128180883Y-123426221D01*
X128195917Y-123413380D01*
X128205894Y-123406131D01*
X128212307Y-123401472D01*
X128240498Y-123367395D01*
X128248488Y-123358616D01*
X128448305Y-123158799D01*
X128510617Y-123124773D01*
X128581432Y-123129838D01*
G37*
%TD.AperFunction*%
%TA.AperFunction,Conductor*%
G36*
X137356121Y-121072502D02*
G01*
X137402614Y-121126158D01*
X137414000Y-121178500D01*
X137414000Y-122383883D01*
X137415865Y-122390234D01*
X137415867Y-122461231D01*
X137384065Y-122514830D01*
X136047100Y-123851795D01*
X135984788Y-123885821D01*
X135958005Y-123888700D01*
X135481100Y-123888700D01*
X135412979Y-123868698D01*
X135366486Y-123815042D01*
X135355100Y-123762700D01*
X135355100Y-123539500D01*
X135375102Y-123471379D01*
X135428758Y-123424886D01*
X135481100Y-123413500D01*
X135986484Y-123413500D01*
X136001723Y-123409025D01*
X136002928Y-123407635D01*
X136004599Y-123399952D01*
X136004599Y-122755431D01*
X136004229Y-122748610D01*
X135998705Y-122697748D01*
X135995079Y-122682496D01*
X135949924Y-122562046D01*
X135941386Y-122546451D01*
X135864885Y-122444376D01*
X135852324Y-122431815D01*
X135750249Y-122355314D01*
X135734654Y-122346776D01*
X135650659Y-122315287D01*
X135593894Y-122272645D01*
X135569195Y-122206083D01*
X135584403Y-122136734D01*
X135605794Y-122108210D01*
X135788542Y-121925462D01*
X135850854Y-121891436D01*
X135921669Y-121896501D01*
X135978505Y-121939048D01*
X135991737Y-121961104D01*
X135997759Y-121973958D01*
X136083063Y-122111807D01*
X136092099Y-122123208D01*
X136206829Y-122237739D01*
X136218240Y-122246751D01*
X136356243Y-122331816D01*
X136369424Y-122337963D01*
X136523710Y-122389138D01*
X136537086Y-122392005D01*
X136631438Y-122401672D01*
X136637854Y-122402000D01*
X136887885Y-122402000D01*
X136903124Y-122397525D01*
X136904329Y-122396135D01*
X136906000Y-122388452D01*
X136906000Y-121178500D01*
X136926002Y-121110379D01*
X136979658Y-121063886D01*
X137032000Y-121052500D01*
X137288000Y-121052500D01*
X137356121Y-121072502D01*
G37*
%TD.AperFunction*%
%TA.AperFunction,Conductor*%
G36*
X128731221Y-109047185D02*
G01*
X128774719Y-109065203D01*
X128830000Y-109109751D01*
X128852500Y-109181611D01*
X128852500Y-114507976D01*
X128832498Y-114576097D01*
X128820142Y-114592279D01*
X128746960Y-114673556D01*
X128651473Y-114838944D01*
X128592458Y-115020572D01*
X128591768Y-115027133D01*
X128591768Y-115027135D01*
X128583108Y-115109530D01*
X128572496Y-115210500D01*
X128573186Y-115217065D01*
X128591054Y-115387066D01*
X128592458Y-115400428D01*
X128651473Y-115582056D01*
X128746960Y-115747444D01*
X128820137Y-115828715D01*
X128850853Y-115892721D01*
X128852500Y-115913024D01*
X128852500Y-120910605D01*
X128832498Y-120978726D01*
X128815595Y-120999700D01*
X128750515Y-121064780D01*
X128732247Y-121079895D01*
X128725429Y-121084528D01*
X128720185Y-121090476D01*
X128720184Y-121090477D01*
X128688289Y-121126655D01*
X128682870Y-121132425D01*
X128671565Y-121143730D01*
X128671562Y-121143734D01*
X127549700Y-122265595D01*
X127487388Y-122299621D01*
X127460605Y-122302500D01*
X126717038Y-122302500D01*
X126648917Y-122282498D01*
X126602424Y-122228842D01*
X126597514Y-122216376D01*
X126573368Y-122144002D01*
X126571050Y-122137054D01*
X126477978Y-121986652D01*
X126352803Y-121861695D01*
X126339354Y-121853405D01*
X126208468Y-121772725D01*
X126208466Y-121772724D01*
X126202238Y-121768885D01*
X126115185Y-121740011D01*
X126040889Y-121715368D01*
X126040887Y-121715368D01*
X126034361Y-121713203D01*
X126027525Y-121712503D01*
X126027522Y-121712502D01*
X125984469Y-121708091D01*
X125929900Y-121702500D01*
X125154100Y-121702500D01*
X125150854Y-121702837D01*
X125150850Y-121702837D01*
X125055192Y-121712762D01*
X125055188Y-121712763D01*
X125048334Y-121713474D01*
X125041798Y-121715655D01*
X125041796Y-121715655D01*
X124938628Y-121750075D01*
X124880554Y-121769450D01*
X124730152Y-121862522D01*
X124605195Y-121987697D01*
X124602594Y-121991916D01*
X124545470Y-122032417D01*
X124474547Y-122035649D01*
X124413135Y-122000024D01*
X124406578Y-121992470D01*
X124402978Y-121986652D01*
X124277803Y-121861695D01*
X124160383Y-121789316D01*
X124112891Y-121736545D01*
X124100500Y-121682057D01*
X124100500Y-120293188D01*
X124120502Y-120225067D01*
X124174158Y-120178574D01*
X124186623Y-120173665D01*
X124204002Y-120167867D01*
X124204004Y-120167866D01*
X124210946Y-120165550D01*
X124256021Y-120137657D01*
X124355120Y-120076332D01*
X124361348Y-120072478D01*
X124486305Y-119947303D01*
X124488906Y-119943084D01*
X124546030Y-119902583D01*
X124616953Y-119899351D01*
X124678365Y-119934976D01*
X124684922Y-119942530D01*
X124688522Y-119948348D01*
X124813697Y-120073305D01*
X124819927Y-120077145D01*
X124819928Y-120077146D01*
X124957090Y-120161694D01*
X124964262Y-120166115D01*
X125044005Y-120192564D01*
X125125611Y-120219632D01*
X125125613Y-120219632D01*
X125132139Y-120221797D01*
X125138975Y-120222497D01*
X125138978Y-120222498D01*
X125182031Y-120226909D01*
X125236600Y-120232500D01*
X126012400Y-120232500D01*
X126015646Y-120232163D01*
X126015650Y-120232163D01*
X126111308Y-120222238D01*
X126111312Y-120222237D01*
X126118166Y-120221526D01*
X126124702Y-120219345D01*
X126124704Y-120219345D01*
X126261622Y-120173665D01*
X126285946Y-120165550D01*
X126436348Y-120072478D01*
X126561305Y-119947303D01*
X126568904Y-119934976D01*
X126650275Y-119802968D01*
X126650276Y-119802966D01*
X126654115Y-119796738D01*
X126690747Y-119686296D01*
X126707632Y-119635389D01*
X126707632Y-119635387D01*
X126709797Y-119628861D01*
X126711726Y-119610039D01*
X126720172Y-119527598D01*
X126720500Y-119524400D01*
X126720500Y-118473600D01*
X126720163Y-118470350D01*
X126710238Y-118374692D01*
X126710237Y-118374688D01*
X126709526Y-118367834D01*
X126695603Y-118326100D01*
X126655868Y-118207002D01*
X126653550Y-118200054D01*
X126560478Y-118049652D01*
X126435303Y-117924695D01*
X126284738Y-117831885D01*
X126150785Y-117787455D01*
X126123389Y-117778368D01*
X126123387Y-117778368D01*
X126116861Y-117776203D01*
X126110025Y-117775503D01*
X126110022Y-117775502D01*
X126066969Y-117771091D01*
X126012400Y-117765500D01*
X125339095Y-117765500D01*
X125270974Y-117745498D01*
X125250000Y-117728595D01*
X125227705Y-117706300D01*
X125193679Y-117643988D01*
X125190800Y-117617205D01*
X125190800Y-116294000D01*
X125210802Y-116225879D01*
X125264458Y-116179386D01*
X125316800Y-116168000D01*
X125396885Y-116168000D01*
X125412124Y-116163525D01*
X125413329Y-116162135D01*
X125415000Y-116154452D01*
X125415000Y-116149884D01*
X125923000Y-116149884D01*
X125927475Y-116165123D01*
X125928865Y-116166328D01*
X125936548Y-116167999D01*
X126053595Y-116167999D01*
X126060114Y-116167662D01*
X126155706Y-116157743D01*
X126169100Y-116154851D01*
X126323284Y-116103412D01*
X126336462Y-116097239D01*
X126474307Y-116011937D01*
X126485708Y-116002901D01*
X126600239Y-115888171D01*
X126609251Y-115876760D01*
X126694316Y-115738757D01*
X126700463Y-115725576D01*
X126751638Y-115571290D01*
X126754505Y-115557914D01*
X126764172Y-115463562D01*
X126764500Y-115457146D01*
X126764500Y-115207115D01*
X126760025Y-115191876D01*
X126758635Y-115190671D01*
X126750952Y-115189000D01*
X125941115Y-115189000D01*
X125925876Y-115193475D01*
X125924671Y-115194865D01*
X125923000Y-115202548D01*
X125923000Y-116149884D01*
X125415000Y-116149884D01*
X125415000Y-114807000D01*
X125435002Y-114738879D01*
X125488658Y-114692386D01*
X125541000Y-114681000D01*
X126746384Y-114681000D01*
X126761623Y-114676525D01*
X126762828Y-114675135D01*
X126764499Y-114667452D01*
X126764499Y-114412905D01*
X126764162Y-114406386D01*
X126754243Y-114310794D01*
X126751351Y-114297400D01*
X126699912Y-114143216D01*
X126693739Y-114130038D01*
X126608437Y-113992193D01*
X126599401Y-113980792D01*
X126484671Y-113866261D01*
X126473260Y-113857249D01*
X126335257Y-113772184D01*
X126315443Y-113762944D01*
X126316801Y-113760031D01*
X126270222Y-113727713D01*
X126243031Y-113662129D01*
X126255614Y-113592257D01*
X126303976Y-113540279D01*
X126317056Y-113533513D01*
X126349422Y-113519103D01*
X126349424Y-113519102D01*
X126355452Y-113516418D01*
X126378723Y-113499511D01*
X126469950Y-113433230D01*
X126509953Y-113404166D01*
X126514375Y-113399255D01*
X126633321Y-113267152D01*
X126633322Y-113267151D01*
X126637740Y-113262244D01*
X126733227Y-113096856D01*
X126792242Y-112915228D01*
X126799188Y-112849146D01*
X126811514Y-112731865D01*
X126812204Y-112725300D01*
X126792242Y-112535372D01*
X126733227Y-112353744D01*
X126729794Y-112347797D01*
X126685849Y-112271683D01*
X126637740Y-112188356D01*
X126589122Y-112134361D01*
X126558407Y-112070357D01*
X126563167Y-112010386D01*
X126574350Y-111976672D01*
X126605797Y-111881861D01*
X126607976Y-111860599D01*
X126612879Y-111812739D01*
X126616500Y-111777400D01*
X126616500Y-111104094D01*
X126636502Y-111035973D01*
X126653405Y-111014999D01*
X128593907Y-109074498D01*
X128656219Y-109040472D01*
X128731221Y-109047185D01*
G37*
%TD.AperFunction*%
%TA.AperFunction,Conductor*%
G36*
X133134377Y-109048492D02*
G01*
X133142820Y-109051989D01*
X133223676Y-109085481D01*
X133252502Y-109089276D01*
X133333669Y-109099962D01*
X133333670Y-109099962D01*
X133337756Y-109100500D01*
X133736406Y-109100500D01*
X133804527Y-109120502D01*
X133825501Y-109137405D01*
X138512995Y-113824900D01*
X138547021Y-113887212D01*
X138549900Y-113913995D01*
X138549900Y-117789705D01*
X138529898Y-117857826D01*
X138476242Y-117904319D01*
X138405968Y-117914423D01*
X138341388Y-117884929D01*
X138334805Y-117878800D01*
X138073362Y-117617357D01*
X138039336Y-117555045D01*
X138037147Y-117515094D01*
X138039514Y-117492568D01*
X138039514Y-117492565D01*
X138040204Y-117486000D01*
X138029536Y-117384500D01*
X138020932Y-117302635D01*
X138020932Y-117302633D01*
X138020242Y-117296072D01*
X137961227Y-117114444D01*
X137865740Y-116949056D01*
X137847367Y-116928650D01*
X137742375Y-116812045D01*
X137742374Y-116812044D01*
X137737953Y-116807134D01*
X137583452Y-116694882D01*
X137577424Y-116692198D01*
X137577422Y-116692197D01*
X137415019Y-116619891D01*
X137415018Y-116619891D01*
X137408988Y-116617206D01*
X137315587Y-116597353D01*
X137228644Y-116578872D01*
X137228639Y-116578872D01*
X137222187Y-116577500D01*
X137031213Y-116577500D01*
X137024761Y-116578872D01*
X137024756Y-116578872D01*
X136937813Y-116597353D01*
X136844412Y-116617206D01*
X136838382Y-116619891D01*
X136838381Y-116619891D01*
X136675978Y-116692197D01*
X136675976Y-116692198D01*
X136669948Y-116694882D01*
X136515447Y-116807134D01*
X136511026Y-116812044D01*
X136511025Y-116812045D01*
X136439565Y-116891410D01*
X136379120Y-116928650D01*
X136345929Y-116933100D01*
X133085900Y-116933100D01*
X133017779Y-116913098D01*
X132971286Y-116859442D01*
X132959900Y-116807100D01*
X132959900Y-109247367D01*
X132960427Y-109236184D01*
X132962102Y-109228691D01*
X132961815Y-109219542D01*
X132960221Y-109168860D01*
X132978073Y-109100145D01*
X133030241Y-109051989D01*
X133100163Y-109039682D01*
X133134377Y-109048492D01*
G37*
%TD.AperFunction*%
%TA.AperFunction,Conductor*%
G36*
X112858787Y-104960319D02*
G01*
X112885223Y-104990775D01*
X112972522Y-105131848D01*
X113097697Y-105256805D01*
X113103927Y-105260645D01*
X113103928Y-105260646D01*
X113241090Y-105345194D01*
X113248262Y-105349615D01*
X113314792Y-105371682D01*
X113409611Y-105403132D01*
X113409613Y-105403132D01*
X113416139Y-105405297D01*
X113422975Y-105405997D01*
X113422978Y-105405998D01*
X113460527Y-105409845D01*
X113520600Y-105416000D01*
X114571400Y-105416000D01*
X114574646Y-105415663D01*
X114574650Y-105415663D01*
X114670308Y-105405738D01*
X114670312Y-105405737D01*
X114677166Y-105405026D01*
X114683702Y-105402845D01*
X114683704Y-105402845D01*
X114822271Y-105356615D01*
X114844946Y-105349050D01*
X114995348Y-105255978D01*
X115120305Y-105130803D01*
X115192684Y-105013383D01*
X115245455Y-104965891D01*
X115299943Y-104953500D01*
X115651500Y-104953500D01*
X115719621Y-104973502D01*
X115766114Y-105027158D01*
X115777500Y-105079500D01*
X115777500Y-107030772D01*
X115788364Y-107120547D01*
X115843887Y-107260783D01*
X115935078Y-107380922D01*
X116055217Y-107472113D01*
X116106441Y-107492394D01*
X116187923Y-107524655D01*
X116187925Y-107524656D01*
X116195453Y-107527636D01*
X116285228Y-107538500D01*
X116886772Y-107538500D01*
X116976547Y-107527636D01*
X116984075Y-107524656D01*
X116984077Y-107524655D01*
X117049195Y-107498873D01*
X117119895Y-107492394D01*
X117182875Y-107525167D01*
X117218139Y-107586786D01*
X117221516Y-107612065D01*
X117222438Y-107641385D01*
X117222500Y-107645345D01*
X117222500Y-107673256D01*
X117222997Y-107677190D01*
X117222997Y-107677191D01*
X117223005Y-107677256D01*
X117223938Y-107689093D01*
X117225327Y-107733289D01*
X117228004Y-107742502D01*
X117230978Y-107752739D01*
X117234987Y-107772100D01*
X117237526Y-107792197D01*
X117240445Y-107799568D01*
X117240445Y-107799570D01*
X117253804Y-107833312D01*
X117257649Y-107844542D01*
X117269982Y-107886993D01*
X117274015Y-107893812D01*
X117274017Y-107893817D01*
X117280293Y-107904428D01*
X117288988Y-107922176D01*
X117296448Y-107941017D01*
X117301110Y-107947433D01*
X117301110Y-107947434D01*
X117322436Y-107976787D01*
X117328952Y-107986707D01*
X117351458Y-108024762D01*
X117365779Y-108039083D01*
X117378619Y-108054116D01*
X117390528Y-108070507D01*
X117396634Y-108075558D01*
X117424605Y-108098698D01*
X117433384Y-108106688D01*
X118934300Y-109607605D01*
X118968326Y-109669917D01*
X118963261Y-109740733D01*
X118934300Y-109785795D01*
X118865500Y-109854595D01*
X118803188Y-109888621D01*
X118776405Y-109891500D01*
X118103100Y-109891500D01*
X118099854Y-109891837D01*
X118099850Y-109891837D01*
X118004192Y-109901762D01*
X118004188Y-109901763D01*
X117997334Y-109902474D01*
X117990798Y-109904655D01*
X117990796Y-109904655D01*
X117887739Y-109939038D01*
X117829554Y-109958450D01*
X117679152Y-110051522D01*
X117554195Y-110176697D01*
X117551594Y-110180916D01*
X117494470Y-110221417D01*
X117423547Y-110224649D01*
X117362135Y-110189024D01*
X117355578Y-110181470D01*
X117351978Y-110175652D01*
X117226803Y-110050695D01*
X117220572Y-110046854D01*
X117082468Y-109961725D01*
X117082466Y-109961724D01*
X117076238Y-109957885D01*
X116915754Y-109904655D01*
X116914889Y-109904368D01*
X116914887Y-109904368D01*
X116908361Y-109902203D01*
X116901525Y-109901503D01*
X116901522Y-109901502D01*
X116858469Y-109897091D01*
X116803900Y-109891500D01*
X116028100Y-109891500D01*
X116024854Y-109891837D01*
X116024850Y-109891837D01*
X115929192Y-109901762D01*
X115929188Y-109901763D01*
X115922334Y-109902474D01*
X115915798Y-109904655D01*
X115915796Y-109904655D01*
X115812739Y-109939038D01*
X115754554Y-109958450D01*
X115604152Y-110051522D01*
X115479195Y-110176697D01*
X115475355Y-110182927D01*
X115475354Y-110182928D01*
X115453366Y-110218600D01*
X115386385Y-110327262D01*
X115384081Y-110334209D01*
X115337671Y-110474132D01*
X115330703Y-110495139D01*
X115320000Y-110599600D01*
X115320000Y-110957500D01*
X115299998Y-111025621D01*
X115246342Y-111072114D01*
X115194000Y-111083500D01*
X114142430Y-111083500D01*
X114074309Y-111063498D01*
X114053412Y-111046673D01*
X113983486Y-110976869D01*
X113978303Y-110971695D01*
X113973765Y-110968898D01*
X113933176Y-110911647D01*
X113929946Y-110840724D01*
X113965572Y-110779313D01*
X113974068Y-110771938D01*
X113984207Y-110763902D01*
X114098739Y-110649171D01*
X114107751Y-110637760D01*
X114192816Y-110499757D01*
X114198963Y-110486576D01*
X114250138Y-110332290D01*
X114253005Y-110318914D01*
X114262672Y-110224562D01*
X114263000Y-110218146D01*
X114263000Y-110105615D01*
X114258525Y-110090376D01*
X114257135Y-110089171D01*
X114249452Y-110087500D01*
X112902000Y-110087500D01*
X112833879Y-110067498D01*
X112787386Y-110013842D01*
X112776000Y-109961500D01*
X112776000Y-109561385D01*
X113284000Y-109561385D01*
X113288475Y-109576624D01*
X113289865Y-109577829D01*
X113297548Y-109579500D01*
X114244884Y-109579500D01*
X114260123Y-109575025D01*
X114261328Y-109573635D01*
X114262999Y-109565952D01*
X114262999Y-109448905D01*
X114262662Y-109442386D01*
X114252743Y-109346794D01*
X114249851Y-109333400D01*
X114198412Y-109179216D01*
X114192239Y-109166038D01*
X114106937Y-109028193D01*
X114097901Y-109016792D01*
X113983171Y-108902261D01*
X113971760Y-108893249D01*
X113833757Y-108808184D01*
X113820576Y-108802037D01*
X113666290Y-108750862D01*
X113652914Y-108747995D01*
X113558562Y-108738328D01*
X113552145Y-108738000D01*
X113302115Y-108738000D01*
X113286876Y-108742475D01*
X113285671Y-108743865D01*
X113284000Y-108751548D01*
X113284000Y-109561385D01*
X112776000Y-109561385D01*
X112776000Y-108756116D01*
X112771525Y-108740877D01*
X112770135Y-108739672D01*
X112762452Y-108738001D01*
X112507905Y-108738001D01*
X112501386Y-108738338D01*
X112405794Y-108748257D01*
X112392400Y-108751149D01*
X112238216Y-108802588D01*
X112225038Y-108808761D01*
X112087193Y-108894063D01*
X112075792Y-108903099D01*
X111961261Y-109017829D01*
X111952249Y-109029240D01*
X111867184Y-109167243D01*
X111861036Y-109180426D01*
X111807837Y-109340816D01*
X111767406Y-109399176D01*
X111701842Y-109426413D01*
X111631961Y-109413880D01*
X111599149Y-109390244D01*
X110598205Y-108389300D01*
X110564179Y-108326988D01*
X110561300Y-108300205D01*
X110561300Y-105482412D01*
X110581302Y-105414291D01*
X110634958Y-105367798D01*
X110705232Y-105357694D01*
X110726967Y-105362819D01*
X110869611Y-105410132D01*
X110869613Y-105410132D01*
X110876139Y-105412297D01*
X110882975Y-105412997D01*
X110882978Y-105412998D01*
X110926031Y-105417409D01*
X110980600Y-105423000D01*
X112031400Y-105423000D01*
X112034646Y-105422663D01*
X112034650Y-105422663D01*
X112130308Y-105412738D01*
X112130312Y-105412737D01*
X112137166Y-105412026D01*
X112143702Y-105409845D01*
X112143704Y-105409845D01*
X112297998Y-105358368D01*
X112304946Y-105356050D01*
X112455348Y-105262978D01*
X112580305Y-105137803D01*
X112670820Y-104990961D01*
X112723591Y-104943469D01*
X112793663Y-104932045D01*
X112858787Y-104960319D01*
G37*
%TD.AperFunction*%
%TA.AperFunction,Conductor*%
G36*
X127565027Y-108095502D02*
G01*
X127611520Y-108149158D01*
X127621624Y-108219432D01*
X127592130Y-108284012D01*
X127586001Y-108290595D01*
X127097712Y-108778884D01*
X127035400Y-108812910D01*
X126981830Y-108812909D01*
X126979950Y-108812500D01*
X126282615Y-108812500D01*
X126267376Y-108816975D01*
X126266171Y-108818365D01*
X126264500Y-108826048D01*
X126264500Y-109559905D01*
X126244498Y-109628026D01*
X126227595Y-109649000D01*
X125895000Y-109981595D01*
X125832688Y-110015621D01*
X125805905Y-110018500D01*
X125132600Y-110018500D01*
X125129354Y-110018837D01*
X125129350Y-110018837D01*
X125033692Y-110028762D01*
X125033688Y-110028763D01*
X125026834Y-110029474D01*
X125020298Y-110031655D01*
X125020296Y-110031655D01*
X124989013Y-110042092D01*
X124906182Y-110069727D01*
X124897795Y-110072525D01*
X124826846Y-110075109D01*
X124768819Y-110042092D01*
X124708328Y-109981595D01*
X124512567Y-109785816D01*
X124478546Y-109723503D01*
X124483614Y-109652688D01*
X124512573Y-109607631D01*
X124923455Y-109196749D01*
X124985767Y-109162723D01*
X125056582Y-109167788D01*
X125113418Y-109210335D01*
X125119695Y-109219542D01*
X125180927Y-109318492D01*
X125189960Y-109329890D01*
X125302629Y-109442363D01*
X125314040Y-109451375D01*
X125449563Y-109534912D01*
X125462741Y-109541056D01*
X125614266Y-109591315D01*
X125627632Y-109594181D01*
X125720270Y-109603672D01*
X125726685Y-109604000D01*
X125738385Y-109604000D01*
X125753624Y-109599525D01*
X125754829Y-109598135D01*
X125756500Y-109590452D01*
X125756500Y-108430500D01*
X125776502Y-108362379D01*
X125830158Y-108315886D01*
X125882500Y-108304500D01*
X126975385Y-108304500D01*
X126990624Y-108300025D01*
X126991829Y-108298635D01*
X126993500Y-108290952D01*
X126993500Y-108212222D01*
X126993282Y-108208004D01*
X127009741Y-108138942D01*
X127060925Y-108089741D01*
X127119114Y-108075500D01*
X127496906Y-108075500D01*
X127565027Y-108095502D01*
G37*
%TD.AperFunction*%
%TA.AperFunction,Conductor*%
G36*
X148141647Y-107624206D02*
G01*
X148158179Y-107634831D01*
X148186217Y-107656113D01*
X148268193Y-107688570D01*
X148318923Y-107708655D01*
X148318925Y-107708656D01*
X148326453Y-107711636D01*
X148416228Y-107722500D01*
X149017772Y-107722500D01*
X149021537Y-107722044D01*
X149025323Y-107721816D01*
X149025410Y-107723262D01*
X149089577Y-107733948D01*
X149142186Y-107781622D01*
X149160700Y-107847370D01*
X149160700Y-109384500D01*
X149140698Y-109452621D01*
X149087042Y-109499114D01*
X149034700Y-109510500D01*
X148957100Y-109510500D01*
X148953854Y-109510837D01*
X148953850Y-109510837D01*
X148858192Y-109520762D01*
X148858188Y-109520763D01*
X148851334Y-109521474D01*
X148844798Y-109523655D01*
X148844796Y-109523655D01*
X148718018Y-109565952D01*
X148683554Y-109577450D01*
X148533152Y-109670522D01*
X148408195Y-109795697D01*
X148404354Y-109801928D01*
X148404352Y-109801931D01*
X148386960Y-109830145D01*
X148334187Y-109877638D01*
X148264116Y-109889060D01*
X148198992Y-109860786D01*
X148172557Y-109830331D01*
X148154332Y-109800880D01*
X148150478Y-109794652D01*
X148025303Y-109669695D01*
X148019072Y-109665854D01*
X147880968Y-109580725D01*
X147880966Y-109580724D01*
X147874738Y-109576885D01*
X147794995Y-109550436D01*
X147713389Y-109523368D01*
X147713387Y-109523368D01*
X147706861Y-109521203D01*
X147700025Y-109520503D01*
X147700022Y-109520502D01*
X147656969Y-109516091D01*
X147602400Y-109510500D01*
X146826600Y-109510500D01*
X146823354Y-109510837D01*
X146823350Y-109510837D01*
X146727692Y-109520762D01*
X146727688Y-109520763D01*
X146720834Y-109521474D01*
X146714298Y-109523655D01*
X146714296Y-109523655D01*
X146587518Y-109565952D01*
X146553054Y-109577450D01*
X146546823Y-109581306D01*
X146540203Y-109584407D01*
X146538862Y-109581545D01*
X146484056Y-109596629D01*
X146416286Y-109575471D01*
X146370712Y-109521032D01*
X146360200Y-109470647D01*
X146360200Y-107847992D01*
X146380202Y-107779871D01*
X146433858Y-107733378D01*
X146477489Y-107722500D01*
X146477772Y-107722500D01*
X146567547Y-107711636D01*
X146575075Y-107708656D01*
X146575077Y-107708655D01*
X146625807Y-107688570D01*
X146707783Y-107656113D01*
X146735821Y-107634831D01*
X146802174Y-107609578D01*
X146871647Y-107624206D01*
X146888179Y-107634831D01*
X146916217Y-107656113D01*
X146998193Y-107688570D01*
X147048923Y-107708655D01*
X147048925Y-107708656D01*
X147056453Y-107711636D01*
X147146228Y-107722500D01*
X147747772Y-107722500D01*
X147837547Y-107711636D01*
X147845075Y-107708656D01*
X147845077Y-107708655D01*
X147895807Y-107688570D01*
X147977783Y-107656113D01*
X148005821Y-107634831D01*
X148072174Y-107609578D01*
X148141647Y-107624206D01*
G37*
%TD.AperFunction*%
%TA.AperFunction,Conductor*%
G36*
X113352316Y-97290454D02*
G01*
X113409152Y-97333001D01*
X113422479Y-97355261D01*
X113458149Y-97431758D01*
X113458153Y-97431764D01*
X113460477Y-97436749D01*
X113591802Y-97624300D01*
X113753700Y-97786198D01*
X113758208Y-97789355D01*
X113758211Y-97789357D01*
X113799399Y-97818197D01*
X113941251Y-97917523D01*
X113946233Y-97919846D01*
X113946238Y-97919849D01*
X114073855Y-97979357D01*
X114148757Y-98014284D01*
X114154065Y-98015706D01*
X114154067Y-98015707D01*
X114364598Y-98072119D01*
X114364600Y-98072119D01*
X114369913Y-98073543D01*
X114598000Y-98093498D01*
X114826087Y-98073543D01*
X114831400Y-98072119D01*
X114831402Y-98072119D01*
X115041933Y-98015707D01*
X115041935Y-98015706D01*
X115047243Y-98014284D01*
X115122145Y-97979357D01*
X115249762Y-97919849D01*
X115249767Y-97919846D01*
X115254749Y-97917523D01*
X115396601Y-97818197D01*
X115437789Y-97789357D01*
X115437792Y-97789355D01*
X115442300Y-97786198D01*
X115604198Y-97624300D01*
X115735523Y-97436749D01*
X115737846Y-97431767D01*
X115737849Y-97431762D01*
X115753805Y-97397543D01*
X115800722Y-97344258D01*
X115868999Y-97324797D01*
X115936959Y-97345339D01*
X115982195Y-97397543D01*
X115998151Y-97431762D01*
X115998154Y-97431767D01*
X116000477Y-97436749D01*
X116131802Y-97624300D01*
X116293700Y-97786198D01*
X116298208Y-97789355D01*
X116298211Y-97789357D01*
X116455393Y-97899417D01*
X116499721Y-97954874D01*
X116508873Y-97994718D01*
X116510194Y-98015707D01*
X116510775Y-98024950D01*
X116513225Y-98032491D01*
X116513321Y-98032787D01*
X116518494Y-98055931D01*
X116518532Y-98056235D01*
X116518533Y-98056240D01*
X116519526Y-98064097D01*
X116522442Y-98071462D01*
X116522443Y-98071466D01*
X116540199Y-98116311D01*
X116542871Y-98123730D01*
X116560236Y-98177175D01*
X116564486Y-98183871D01*
X116564486Y-98183872D01*
X116564650Y-98184131D01*
X116575415Y-98205258D01*
X116575529Y-98205546D01*
X116575532Y-98205551D01*
X116578448Y-98212917D01*
X116583104Y-98219325D01*
X116583107Y-98219331D01*
X116611458Y-98258352D01*
X116615901Y-98264889D01*
X116646000Y-98312318D01*
X116651778Y-98317744D01*
X116651779Y-98317745D01*
X116652007Y-98317959D01*
X116667688Y-98335746D01*
X116672528Y-98342407D01*
X116678637Y-98347461D01*
X116678638Y-98347462D01*
X116715796Y-98378203D01*
X116721730Y-98383434D01*
X116756898Y-98416458D01*
X116756901Y-98416460D01*
X116762679Y-98421886D01*
X116769903Y-98425858D01*
X116789506Y-98439181D01*
X116789746Y-98439380D01*
X116789753Y-98439384D01*
X116795856Y-98444433D01*
X116818098Y-98454899D01*
X116846676Y-98468347D01*
X116853708Y-98471929D01*
X116902940Y-98498995D01*
X116910615Y-98500965D01*
X116910621Y-98500968D01*
X116910919Y-98501044D01*
X116933228Y-98509076D01*
X116933503Y-98509206D01*
X116933511Y-98509209D01*
X116940682Y-98512583D01*
X116995849Y-98523106D01*
X117003558Y-98524829D01*
X117037551Y-98533557D01*
X117050293Y-98536829D01*
X117050294Y-98536829D01*
X117057970Y-98538800D01*
X117066207Y-98538800D01*
X117089816Y-98541032D01*
X117090119Y-98541090D01*
X117090123Y-98541090D01*
X117097906Y-98542575D01*
X117153951Y-98539049D01*
X117161862Y-98538800D01*
X117355806Y-98538800D01*
X117423927Y-98558802D01*
X117444901Y-98575705D01*
X118267847Y-99398651D01*
X118301873Y-99460963D01*
X118296808Y-99531778D01*
X118254261Y-99588614D01*
X118187741Y-99613425D01*
X118163614Y-99612833D01*
X118160495Y-99612456D01*
X118152943Y-99612000D01*
X118128115Y-99612000D01*
X118112876Y-99616475D01*
X118111671Y-99617865D01*
X118110000Y-99625548D01*
X118110000Y-101233000D01*
X118089998Y-101301121D01*
X118036342Y-101347614D01*
X117984000Y-101359000D01*
X117728000Y-101359000D01*
X117659879Y-101338998D01*
X117613386Y-101285342D01*
X117602000Y-101233000D01*
X117602000Y-99630115D01*
X117597525Y-99614876D01*
X117596135Y-99613671D01*
X117588452Y-99612000D01*
X117559057Y-99612000D01*
X117551502Y-99612456D01*
X117473612Y-99621881D01*
X117458047Y-99625834D01*
X117333451Y-99675165D01*
X117318624Y-99683520D01*
X117297595Y-99699482D01*
X117231242Y-99724736D01*
X117161768Y-99710108D01*
X117145235Y-99699483D01*
X117123624Y-99683079D01*
X117123621Y-99683077D01*
X117116783Y-99677887D01*
X117029666Y-99643395D01*
X116984077Y-99625345D01*
X116984075Y-99625344D01*
X116976547Y-99622364D01*
X116886772Y-99611500D01*
X116285228Y-99611500D01*
X116195453Y-99622364D01*
X116187925Y-99625344D01*
X116187923Y-99625345D01*
X116142334Y-99643395D01*
X116055217Y-99677887D01*
X115935078Y-99769078D01*
X115843887Y-99889217D01*
X115788364Y-100029453D01*
X115777500Y-100119228D01*
X115777500Y-100345500D01*
X115757498Y-100413621D01*
X115703842Y-100460114D01*
X115651500Y-100471500D01*
X115179753Y-100471500D01*
X115111632Y-100451498D01*
X115086121Y-100429815D01*
X115028153Y-100365434D01*
X114873652Y-100253182D01*
X114867624Y-100250498D01*
X114867622Y-100250497D01*
X114705219Y-100178191D01*
X114705218Y-100178191D01*
X114699188Y-100175506D01*
X114605788Y-100155653D01*
X114518844Y-100137172D01*
X114518839Y-100137172D01*
X114512387Y-100135800D01*
X114321413Y-100135800D01*
X114314961Y-100137172D01*
X114314956Y-100137172D01*
X114228012Y-100155653D01*
X114134612Y-100175506D01*
X114128582Y-100178191D01*
X114128581Y-100178191D01*
X113966178Y-100250497D01*
X113966176Y-100250498D01*
X113960148Y-100253182D01*
X113805647Y-100365434D01*
X113677860Y-100507356D01*
X113582373Y-100672744D01*
X113523358Y-100854372D01*
X113503396Y-101044300D01*
X113502776Y-101044235D01*
X113484084Y-101107896D01*
X113430428Y-101154389D01*
X113414711Y-101159605D01*
X113414834Y-101159974D01*
X113247054Y-101215950D01*
X113096652Y-101309022D01*
X112971695Y-101434197D01*
X112941079Y-101483866D01*
X112899317Y-101551616D01*
X112846545Y-101599109D01*
X112792057Y-101611500D01*
X112755714Y-101611500D01*
X112687593Y-101591498D01*
X112648570Y-101551803D01*
X112583332Y-101446380D01*
X112579478Y-101440152D01*
X112454303Y-101315195D01*
X112443573Y-101308581D01*
X112309968Y-101226225D01*
X112309966Y-101226224D01*
X112303738Y-101222385D01*
X112143260Y-101169157D01*
X112142389Y-101168868D01*
X112142387Y-101168868D01*
X112135861Y-101166703D01*
X112129025Y-101166003D01*
X112129022Y-101166002D01*
X112085969Y-101161591D01*
X112031400Y-101156000D01*
X110980600Y-101156000D01*
X110977354Y-101156337D01*
X110977350Y-101156337D01*
X110881692Y-101166262D01*
X110881688Y-101166263D01*
X110874834Y-101166974D01*
X110868292Y-101169157D01*
X110868290Y-101169157D01*
X110727177Y-101216236D01*
X110656227Y-101218821D01*
X110595143Y-101182638D01*
X110563318Y-101119174D01*
X110561300Y-101096713D01*
X110561300Y-100029494D01*
X110581302Y-99961373D01*
X110598205Y-99940399D01*
X113219189Y-97319415D01*
X113281501Y-97285389D01*
X113352316Y-97290454D01*
G37*
%TD.AperFunction*%
%TD*%
%TA.AperFunction,NonConductor*%
G36*
X146847072Y-94633502D02*
G01*
X146893565Y-94687158D01*
X146903669Y-94757432D01*
X146874175Y-94822012D01*
X146832202Y-94853695D01*
X146663251Y-94932477D01*
X146601227Y-94975907D01*
X146480211Y-95060643D01*
X146480208Y-95060645D01*
X146475700Y-95063802D01*
X146313802Y-95225700D01*
X146310645Y-95230208D01*
X146310643Y-95230211D01*
X146264661Y-95295880D01*
X146182477Y-95413251D01*
X146180154Y-95418233D01*
X146180151Y-95418238D01*
X146164195Y-95452457D01*
X146117278Y-95505742D01*
X146049001Y-95525203D01*
X145981041Y-95504661D01*
X145935805Y-95452457D01*
X145919849Y-95418238D01*
X145919846Y-95418233D01*
X145917523Y-95413251D01*
X145835339Y-95295880D01*
X145789357Y-95230211D01*
X145789355Y-95230208D01*
X145786198Y-95225700D01*
X145624300Y-95063802D01*
X145619792Y-95060645D01*
X145619789Y-95060643D01*
X145467229Y-94953819D01*
X145422901Y-94898362D01*
X145413500Y-94850606D01*
X145413500Y-94739500D01*
X145433502Y-94671379D01*
X145487158Y-94624886D01*
X145539500Y-94613500D01*
X146778951Y-94613500D01*
X146847072Y-94633502D01*
G37*
%TD.AperFunction*%
%TA.AperFunction,NonConductor*%
G36*
X115719621Y-101758502D02*
G01*
X115766114Y-101812158D01*
X115777500Y-101864500D01*
X115777500Y-102090772D01*
X115788364Y-102180547D01*
X115843887Y-102320783D01*
X115935078Y-102440922D01*
X115941913Y-102446110D01*
X116028223Y-102511623D01*
X116055217Y-102532113D01*
X116055840Y-102532360D01*
X116102707Y-102580490D01*
X116116874Y-102650059D01*
X116091181Y-102716244D01*
X116033785Y-102758031D01*
X115991326Y-102765400D01*
X115405168Y-102765400D01*
X115337047Y-102745398D01*
X115290554Y-102691742D01*
X115279436Y-102633520D01*
X115279500Y-102632900D01*
X115279500Y-101864500D01*
X115299502Y-101796379D01*
X115353158Y-101749886D01*
X115405500Y-101738500D01*
X115651500Y-101738500D01*
X115719621Y-101758502D01*
G37*
%TD.AperFunction*%
%TA.AperFunction,NonConductor*%
G36*
X127369518Y-106076402D02*
G01*
X127416011Y-106130058D01*
X127426115Y-106200332D01*
X127421230Y-106221336D01*
X127417001Y-106234353D01*
X127392658Y-106309272D01*
X127372696Y-106499200D01*
X127373386Y-106505765D01*
X127390577Y-106669330D01*
X127377805Y-106739168D01*
X127329303Y-106791015D01*
X127265267Y-106808500D01*
X127120000Y-106808500D01*
X127051879Y-106788498D01*
X127005386Y-106734842D01*
X126994000Y-106682500D01*
X126994000Y-106483928D01*
X126988614Y-106432018D01*
X126983919Y-106386765D01*
X126983918Y-106386761D01*
X126983207Y-106379907D01*
X126981026Y-106373371D01*
X126981024Y-106373360D01*
X126978697Y-106366385D01*
X126976115Y-106295436D01*
X127012301Y-106234353D01*
X127035223Y-106217394D01*
X127036415Y-106216706D01*
X127042452Y-106214018D01*
X127047794Y-106210136D01*
X127047797Y-106210135D01*
X127191614Y-106105645D01*
X127196953Y-106101766D01*
X127201368Y-106096863D01*
X127206280Y-106092440D01*
X127207405Y-106093689D01*
X127260714Y-106060849D01*
X127293900Y-106056400D01*
X127301397Y-106056400D01*
X127369518Y-106076402D01*
G37*
%TD.AperFunction*%
%TA.AperFunction,NonConductor*%
G36*
X124315227Y-104052402D02*
G01*
X124336201Y-104069305D01*
X125638578Y-105371682D01*
X125672604Y-105433994D01*
X125674793Y-105447607D01*
X125690989Y-105601705D01*
X125692158Y-105612828D01*
X125694200Y-105619112D01*
X125700830Y-105639519D01*
X125702856Y-105710486D01*
X125666193Y-105771284D01*
X125618610Y-105795904D01*
X125619407Y-105798293D01*
X125454393Y-105853346D01*
X125306469Y-105944884D01*
X125301296Y-105950066D01*
X125188742Y-106062816D01*
X125188738Y-106062821D01*
X125183571Y-106067997D01*
X125179731Y-106074227D01*
X125179730Y-106074228D01*
X125097860Y-106207046D01*
X125092291Y-106216080D01*
X125037526Y-106381191D01*
X125027000Y-106483928D01*
X125027000Y-107183072D01*
X125027337Y-107186316D01*
X125027337Y-107186324D01*
X125031931Y-107230598D01*
X125019066Y-107300419D01*
X124995699Y-107332696D01*
X123302100Y-109026295D01*
X123239788Y-109060321D01*
X123213005Y-109063200D01*
X120233894Y-109063200D01*
X120165773Y-109043198D01*
X120144799Y-109026295D01*
X118872100Y-107753595D01*
X118838074Y-107691283D01*
X118843139Y-107620467D01*
X118885686Y-107563632D01*
X118952206Y-107538821D01*
X118961195Y-107538500D01*
X119426772Y-107538500D01*
X119516547Y-107527636D01*
X119524075Y-107524656D01*
X119524077Y-107524655D01*
X119583658Y-107501065D01*
X119656783Y-107472113D01*
X119684821Y-107450831D01*
X119751174Y-107425578D01*
X119820647Y-107440206D01*
X119837179Y-107450831D01*
X119865217Y-107472113D01*
X119938342Y-107501065D01*
X119997923Y-107524655D01*
X119997925Y-107524656D01*
X120005453Y-107527636D01*
X120095228Y-107538500D01*
X120696772Y-107538500D01*
X120786547Y-107527636D01*
X120794075Y-107524656D01*
X120794077Y-107524655D01*
X120875559Y-107492394D01*
X120926783Y-107472113D01*
X121046922Y-107380922D01*
X121138113Y-107260783D01*
X121193636Y-107120547D01*
X121204500Y-107030772D01*
X121204500Y-105059228D01*
X121193636Y-104969453D01*
X121185764Y-104949569D01*
X121154315Y-104870138D01*
X121138113Y-104829217D01*
X121046922Y-104709078D01*
X120926783Y-104617887D01*
X120828406Y-104578937D01*
X120794077Y-104565345D01*
X120794075Y-104565344D01*
X120786547Y-104562364D01*
X120696772Y-104551500D01*
X120385295Y-104551500D01*
X120317174Y-104531498D01*
X120296200Y-104514595D01*
X120029100Y-104247495D01*
X119995074Y-104185183D01*
X120000139Y-104114368D01*
X120042686Y-104057532D01*
X120109206Y-104032721D01*
X120118195Y-104032400D01*
X124247106Y-104032400D01*
X124315227Y-104052402D01*
G37*
%TD.AperFunction*%
%TA.AperFunction,NonConductor*%
G36*
X131534912Y-109273470D02*
G01*
X131541495Y-109279599D01*
X131655995Y-109394099D01*
X131690021Y-109456411D01*
X131692900Y-109483194D01*
X131692900Y-117252006D01*
X131672898Y-117320127D01*
X131655995Y-117341101D01*
X131649501Y-117347595D01*
X131587189Y-117381621D01*
X131560406Y-117384500D01*
X131119200Y-117384500D01*
X131051079Y-117364498D01*
X131004586Y-117310842D01*
X130993200Y-117258500D01*
X130993200Y-115677295D01*
X131013202Y-115609174D01*
X131030105Y-115588200D01*
X131085153Y-115533152D01*
X131093439Y-115525612D01*
X131099918Y-115521500D01*
X131146545Y-115471847D01*
X131149299Y-115469006D01*
X131169035Y-115449270D01*
X131171515Y-115446073D01*
X131179220Y-115437051D01*
X131204059Y-115410600D01*
X131209486Y-115404821D01*
X131213305Y-115397875D01*
X131213307Y-115397872D01*
X131219248Y-115387066D01*
X131230099Y-115370547D01*
X131237658Y-115360801D01*
X131242514Y-115354541D01*
X131245659Y-115347272D01*
X131245662Y-115347268D01*
X131260074Y-115313963D01*
X131265291Y-115303313D01*
X131286595Y-115264560D01*
X131291633Y-115244937D01*
X131298037Y-115226234D01*
X131302933Y-115214920D01*
X131302933Y-115214919D01*
X131306081Y-115207645D01*
X131307320Y-115199822D01*
X131307323Y-115199812D01*
X131312999Y-115163976D01*
X131315405Y-115152356D01*
X131324428Y-115117211D01*
X131324428Y-115117210D01*
X131326400Y-115109530D01*
X131326400Y-115089276D01*
X131327951Y-115069565D01*
X131329880Y-115057386D01*
X131331120Y-115049557D01*
X131326959Y-115005538D01*
X131326400Y-114993681D01*
X131326400Y-109368694D01*
X131346402Y-109300573D01*
X131400058Y-109254080D01*
X131470332Y-109243976D01*
X131534912Y-109273470D01*
G37*
%TD.AperFunction*%
%TA.AperFunction,NonConductor*%
G36*
X136070212Y-118220102D02*
G01*
X136116705Y-118273758D01*
X136126809Y-118344032D01*
X136097315Y-118408612D01*
X136091266Y-118415115D01*
X136090871Y-118415511D01*
X136090867Y-118415516D01*
X136085695Y-118420697D01*
X136081855Y-118426927D01*
X136081854Y-118426928D01*
X136013317Y-118538116D01*
X135960545Y-118585609D01*
X135906057Y-118598000D01*
X134572000Y-118598000D01*
X134503879Y-118577998D01*
X134457386Y-118524342D01*
X134446000Y-118472000D01*
X134446000Y-118326100D01*
X134466002Y-118257979D01*
X134519658Y-118211486D01*
X134572000Y-118200100D01*
X136002091Y-118200100D01*
X136070212Y-118220102D01*
G37*
%TD.AperFunction*%
%TA.AperFunction,NonConductor*%
G36*
X135821127Y-119885002D02*
G01*
X135867620Y-119938658D01*
X135877724Y-120008932D01*
X135848230Y-120073512D01*
X135842101Y-120080095D01*
X134807595Y-121114600D01*
X134745283Y-121148626D01*
X134674467Y-121143561D01*
X134617632Y-121101014D01*
X134592821Y-121034494D01*
X134592500Y-121025505D01*
X134592500Y-119991000D01*
X134612502Y-119922879D01*
X134666158Y-119876386D01*
X134718500Y-119865000D01*
X135753006Y-119865000D01*
X135821127Y-119885002D01*
G37*
%TD.AperFunction*%
%TA.AperFunction,NonConductor*%
G36*
X132403865Y-119553976D02*
G01*
X132410422Y-119561530D01*
X132414022Y-119567348D01*
X132539197Y-119692305D01*
X132545427Y-119696145D01*
X132545428Y-119696146D01*
X132669769Y-119772791D01*
X132689762Y-119785115D01*
X132769505Y-119811564D01*
X132851111Y-119838632D01*
X132851113Y-119838632D01*
X132857639Y-119840797D01*
X132864475Y-119841497D01*
X132864478Y-119841498D01*
X132907531Y-119845909D01*
X132962100Y-119851500D01*
X133199500Y-119851500D01*
X133267621Y-119871502D01*
X133314114Y-119925158D01*
X133325500Y-119977500D01*
X133325500Y-122166100D01*
X133305498Y-122234221D01*
X133251842Y-122280714D01*
X133199501Y-122292100D01*
X133026732Y-122292101D01*
X133019907Y-122292471D01*
X132999932Y-122294640D01*
X132972722Y-122294640D01*
X132948135Y-122291969D01*
X132948127Y-122291969D01*
X132944734Y-122291600D01*
X132373266Y-122291600D01*
X132345282Y-122294640D01*
X132318067Y-122294640D01*
X132298083Y-122292469D01*
X132291272Y-122292100D01*
X132264715Y-122292100D01*
X132249476Y-122296575D01*
X132238537Y-122309199D01*
X132187540Y-122344669D01*
X132183107Y-122346331D01*
X132183104Y-122346333D01*
X132174695Y-122349485D01*
X132164824Y-122356883D01*
X132161706Y-122358048D01*
X132159640Y-122359179D01*
X132159477Y-122358881D01*
X132098320Y-122381733D01*
X132028937Y-122366682D01*
X131978705Y-122316510D01*
X131972105Y-122302441D01*
X131961198Y-122274892D01*
X131957354Y-122263665D01*
X131955232Y-122256361D01*
X131945018Y-122221207D01*
X131940697Y-122213900D01*
X131934707Y-122203772D01*
X131926012Y-122186024D01*
X131918552Y-122167183D01*
X131920748Y-122166313D01*
X131908500Y-122118611D01*
X131908500Y-119872046D01*
X131928502Y-119803925D01*
X131968197Y-119764902D01*
X132080620Y-119695332D01*
X132086848Y-119691478D01*
X132211805Y-119566303D01*
X132214406Y-119562084D01*
X132271530Y-119521583D01*
X132342453Y-119518351D01*
X132403865Y-119553976D01*
G37*
%TD.AperFunction*%
M02*
