%TF.GenerationSoftware,KiCad,Pcbnew,(6.0.11)*%
%TF.CreationDate,2023-05-27T13:57:12+02:00*%
%TF.ProjectId,Orp-pH Board,4f72702d-7048-4204-926f-6172642e6b69,V1.0*%
%TF.SameCoordinates,Original*%
%TF.FileFunction,Paste,Bot*%
%TF.FilePolarity,Positive*%
%FSLAX46Y46*%
G04 Gerber Fmt 4.6, Leading zero omitted, Abs format (unit mm)*
G04 Created by KiCad (PCBNEW (6.0.11)) date 2023-05-27 13:57:12*
%MOMM*%
%LPD*%
G01*
G04 APERTURE LIST*
G04 Aperture macros list*
%AMRoundRect*
0 Rectangle with rounded corners*
0 $1 Rounding radius*
0 $2 $3 $4 $5 $6 $7 $8 $9 X,Y pos of 4 corners*
0 Add a 4 corners polygon primitive as box body*
4,1,4,$2,$3,$4,$5,$6,$7,$8,$9,$2,$3,0*
0 Add four circle primitives for the rounded corners*
1,1,$1+$1,$2,$3*
1,1,$1+$1,$4,$5*
1,1,$1+$1,$6,$7*
1,1,$1+$1,$8,$9*
0 Add four rect primitives between the rounded corners*
20,1,$1+$1,$2,$3,$4,$5,0*
20,1,$1+$1,$4,$5,$6,$7,0*
20,1,$1+$1,$6,$7,$8,$9,0*
20,1,$1+$1,$8,$9,$2,$3,0*%
G04 Aperture macros list end*
%ADD10RoundRect,0.237500X-0.237500X0.300000X-0.237500X-0.300000X0.237500X-0.300000X0.237500X0.300000X0*%
%ADD11RoundRect,0.237500X-0.300000X-0.237500X0.300000X-0.237500X0.300000X0.237500X-0.300000X0.237500X0*%
%ADD12RoundRect,0.237500X0.237500X-0.300000X0.237500X0.300000X-0.237500X0.300000X-0.237500X-0.300000X0*%
%ADD13RoundRect,0.250000X0.412500X1.100000X-0.412500X1.100000X-0.412500X-1.100000X0.412500X-1.100000X0*%
%ADD14RoundRect,0.237500X0.300000X0.237500X-0.300000X0.237500X-0.300000X-0.237500X0.300000X-0.237500X0*%
%ADD15RoundRect,0.250000X-0.475000X0.337500X-0.475000X-0.337500X0.475000X-0.337500X0.475000X0.337500X0*%
%ADD16RoundRect,0.250000X-0.412500X-1.100000X0.412500X-1.100000X0.412500X1.100000X-0.412500X1.100000X0*%
%ADD17RoundRect,0.250000X0.475000X-0.337500X0.475000X0.337500X-0.475000X0.337500X-0.475000X-0.337500X0*%
G04 APERTURE END LIST*
D10*
%TO.C,C2*%
X148590000Y-102669000D03*
X148590000Y-104394000D03*
%TD*%
D11*
%TO.C,C8*%
X125502500Y-107188000D03*
X127227500Y-107188000D03*
%TD*%
D10*
%TO.C,C5*%
X136906000Y-103658500D03*
X136906000Y-105383500D03*
%TD*%
D12*
%TO.C,C4*%
X114046000Y-104141000D03*
X114046000Y-102416000D03*
%TD*%
D13*
%TO.C,C11*%
X133436000Y-122762100D03*
X130311000Y-122762100D03*
%TD*%
D14*
%TO.C,C10*%
X132652500Y-120142000D03*
X130927500Y-120142000D03*
%TD*%
D15*
%TO.C,R20*%
X124565500Y-112881500D03*
X124565500Y-114956500D03*
%TD*%
D11*
%TO.C,C12*%
X131330000Y-134493000D03*
X133055000Y-134493000D03*
%TD*%
D10*
%TO.C,C7*%
X125476000Y-103658500D03*
X125476000Y-105383500D03*
%TD*%
D15*
%TO.C,R3*%
X145796000Y-105007500D03*
X145796000Y-107082500D03*
%TD*%
%TO.C,R2*%
X117983000Y-100250500D03*
X117983000Y-102325500D03*
%TD*%
%TO.C,R4*%
X117983000Y-104547000D03*
X117983000Y-106622000D03*
%TD*%
D10*
%TO.C,C1*%
X121158000Y-102606500D03*
X121158000Y-104331500D03*
%TD*%
D16*
%TO.C,C13*%
X130565000Y-131779100D03*
X133690000Y-131779100D03*
%TD*%
D15*
%TO.C,R1*%
X145796000Y-100668000D03*
X145796000Y-102743000D03*
%TD*%
D17*
%TO.C,R19*%
X131296500Y-115210500D03*
X131296500Y-113135500D03*
%TD*%
%TO.C,R12*%
X133858000Y-103124000D03*
X133858000Y-101049000D03*
%TD*%
D15*
%TO.C,R14*%
X128524000Y-101070500D03*
X128524000Y-103145500D03*
%TD*%
D11*
%TO.C,C6*%
X136551500Y-107569000D03*
X138276500Y-107569000D03*
%TD*%
D12*
%TO.C,C3*%
X141859000Y-104214000D03*
X141859000Y-102489000D03*
%TD*%
M02*
